<mxfile host="Electron" agent="Mozilla/5.0 (Windows NT 10.0; Win64; x64) AppleWebKit/537.36 (KHTML, like Gecko) draw.io/28.1.2 Chrome/138.0.7204.243 Electron/37.4.0 Safari/537.36" version="28.1.2">
  <diagram name="Page-1" id="OCkba2BT7mwxZAxi1WQV">
    <mxGraphModel dx="1869" dy="722" grid="1" gridSize="10" guides="1" tooltips="1" connect="1" arrows="1" fold="1" page="1" pageScale="1" pageWidth="827" pageHeight="1169" math="0" shadow="0">
      <root>
        <mxCell id="0" />
        <mxCell id="1" parent="0" />
        <mxCell id="srN8gHAstGxJ4yh3wAJ1-14" value="&lt;div style=&quot;font-size: 20px;&quot;&gt;&lt;p style=&quot;margin: 0px; text-indent: 0px; direction: ltr; font-size: 20px;&quot;&gt;&lt;font style=&quot;font-size: 20px; color: rgb(0, 0, 0); direction: ltr; letter-spacing: 0px; line-height: 120%; opacity: 1;&quot;&gt;&lt;br style=&quot;font-size: 20px;&quot;&gt;&lt;/font&gt;&lt;/p&gt;&lt;/div&gt;" style="verticalAlign=top;align=left;vsdxID=25;fillColor=#f8f8f8;gradientColor=none;shape=stencil(nZBLDoAgDERP0z3SIyjew0SURgSD+Lu9kMZoXLhwN9O+tukAlrNpJg1SzDH4QW/URgNYgZTkjA4UkwJUgGXng+6DX1zLfmoymdXo17xh5zmRJ6Q42BWCfc2oJfdAr+Yv+AP9Cb7OJ3H/2JG1HNGz/84klThPVCc=);strokeColor=#bfbfbf;strokeWidth=3;points=[[0.5,1,0],[1,0.5,0],[0.5,0,0],[0,0.5,0],[0.5,0.5,0]];labelBackgroundColor=none;rounded=0;html=1;whiteSpace=wrap;fontFamily=Clear Sans Text;fontStyle=0;spacingLeft=7;fontSize=20;movable=1;resizable=1;rotatable=1;deletable=1;editable=1;locked=0;connectable=1;" vertex="1" parent="1">
          <mxGeometry x="-140" y="110" width="430" height="388" as="geometry" />
        </mxCell>
        <mxCell id="srN8gHAstGxJ4yh3wAJ1-7" value="" style="rounded=1;whiteSpace=wrap;html=1;strokeWidth=2;fillColor=none;dashed=1;dashPattern=8 8;movable=1;resizable=1;rotatable=1;deletable=1;editable=1;locked=0;connectable=1;strokeColor=#000000;" vertex="1" parent="1">
          <mxGeometry x="-40" y="270" width="230" height="150" as="geometry" />
        </mxCell>
        <mxCell id="srN8gHAstGxJ4yh3wAJ1-1" value="" style="shape=image;verticalLabelPosition=bottom;labelBackgroundColor=default;verticalAlign=top;aspect=fixed;imageAspect=0;image=data:image/png,iVBORw0KGgoAAAANSUhEUgAAANAAAADOCAYAAABPeIyfAAAACXBIWXMAAAsSAAALEgHS3X78AAAHVElEQVR4nO3d61EbSRiF4a9d+99kgDNAjsBsBMtGYJEBm4EdgZ2BIYKFCAwRWM4AMlhH0FsNbRU3qWfmzKUv71OlH8syQtPTR31mdLHz3hvy4Zw7MLOVmR0/e1DXZrbx3v/H4coHAcpADM2JmZ2Z2VHiEf00s69mdkmYlkeAFuacW8dAvO35SH6FwHnvz6sblIIQoIXEVSdM/r/ER3BlZmtWo2UQoAU458I5zqWZHY701+9CBfTeb4oaiAq8aX0A5uacC+c5P0YMj8X7+hHvGzNiBZrJiJUthUo3IwI0gwkqWwqVbiYEaGKxVn0Z8Fdu4ms/Fl8T+jDgPv7x3n9dbOcbQIAmIlS2q3h5+vbxD51z7+Ll7iH3R6WbCAGagFDZkivGwBWNSjcRrsKNbOBVtjDB33epW/F33sdtuuIq3URYgUYiVrbeFWvuv4cdx4EA6aasbClUumVR4URTV7YUKt2yWIEGyq1CUemWQYAGWLKypVDp5kWF62npypZCpZsXK1BHpVUkKt08CFAHOVe2FCrdtKhwCblXthQq3bRYgXaorQJR6aZBgF5RcmVLodKNiwr3TOmVLYVKNy5WoKi1ikOlGwcBqryypVDpNM1XuNorWwqVTtPsCkSFeYrxGKbJALVc2VKodP00V+Far2wpVLp+mlmBqCj9MF7dNBEgKttwVLr9qq9wVDYNlW6/alcgKsi4GM/XVRkgKtt0qHRPVVfhqGzTotI9Vc0KRMWYF+P9oIoAUdmW03qlK77CUdmW1XqlK3YFokLkpdXjUWSAqGz5aq3SFVfhqGx5a63SFbMCUdnK0srxKiJAVLZy1V7psg9Qi5dJ4xPGybMfXxa+P3U+AYYA5Xgzs4M46L7nLWxzkOt+7buZWZhomz37G/7fqtB9q/J45jyRbgcM9lmJkyvu87rHfq4L3s+zAcf1NtcnjuwqXKOVLfwz9t97bvaeSre8bALU8lU251wIwlHPzX5671cTPaTJ1XK8s3gdKD4jbQYMZnhGOik8PKsB4QmO4rZFCscsHLtwDHs+/jBHNrns++IB4oXRF1fb5to2C6W/8LpYgMIS7py7HHC+cxVPKGv5cNZBBo9hUfFYruKx7eNLmEOxDi5ikQC1XNnwulIr3ewBorK9wJPBI6VVutkCRGXb6XKhbbNVUqWb5TI272Xbr8XL2F3l/rrg5CsQla2T9UzbFCf3SjdZgKhs3cV9Pe2xyWmD45NnpZvo/U7NvZdtxHGr8s2kI45RVu+lG/0cqPVvaRlDbR9nGFtO59SjBYhPjGJOucy3UQLEVTYsZenGI19E4CoblrT0VbrBKxCVDTlZaj4OChCVDbmau9L1rnBUNuRs7krXeQWisqEkc83XTgGisqFUU1e6ZIWjsqFkU1e6nSsQlQ01mWo+vxogKhtqNXalexEg51x4m/y3sf4AkBthgQjvgj9//IMn50ADw9Pcxw9QNuHjEd9iRra2K1BM5Y+ed0hlQ9EGVrrtt8I+DtBtjyWNyoZqDKh0d977d/a7wjnnPvXYmMqGqgyodIcxMw8rUI/Vh8qGqvWodPerkIuffPw38cu/zOyYVQctiJXu2szeJnb371DhjjuMCeFBM+Jc75SLN7H77XNBeNCaOOcvEru9cvFbS/b503t/zQxCa7q8tJMMkPfeMXPQKufc3nxk8Q9sAaUiQICAAAECAgQICBAgIECAgAABAgIECAgQICBAgIAAAQICBAgIECAgQICAAAECAgQICBAgIECAgAABAgIECP6oZfBSX/5QypejsB9lYQUCBAQIEBAgQECAAAEBAgQECBAQIEBAgAABAQIEBAgQECBAQIAAAQECBAQIEBAgQECAAAEBAgQECBAQIEBAgAABAQIEBAgQECBAQIAAAQECBAQIEBAgQECAAAEBAgQECBAQIEBAgAABAQIEBAgQECBAQIAAAQECBAQIEBAgQECAAAEBAgQECBAQIEBAgAABAQIEBAgQECBAQIAAAQECBAQIEBAgQECAAAEBAgQECBAQIEBAgAABAQIEBAgQECBAQIAAAQECBAQIEBAgQECAAAEBAgQECBAQIEBAgAABAQIEBAgQECBAQIAAAQECBAQIEDgz8/s29947Bhitcs7tzQcrECAgQICAAAECAgQICBAgIECAgAABAgIECAgQICBAgIAAAQICBAgIECAgQICAAAGCZICcc8cMMFrUZe6HAN0kfmfN7EGjUnP/JgRok/ilj865FTMILYlz/mNilzchQNcdxuWaEKEVca53y4X3Pmxwa2aHHTa4MLNz732XOweKEs951h1WnuDOe/8ufGlI+I9P8ctFuHHj1u326X7xiQHqswoBrXtYfZ5dxj5pfVSAjrZZ2QbIex+uxp0ygsBepzEr9568kOq9PydEwE6nMSNb23OgJz98uIx3yTkRcO8u1LbHK89vr76VJ/xiPEn6HDcGWhTm/ueQhdfCY7tWoBe/5Fw4aQrXyMPK9IGphIqFt7aFsFx770ML283M/gdC9Idle8/j8gAAAABJRU5ErkJggg==;" vertex="1" parent="1">
          <mxGeometry x="50" y="170" width="50" height="49.52" as="geometry" />
        </mxCell>
        <mxCell id="srN8gHAstGxJ4yh3wAJ1-2" value="" style="shape=image;verticalLabelPosition=bottom;labelBackgroundColor=default;verticalAlign=top;aspect=fixed;imageAspect=0;image=data:image/png,iVBORw0KGgoAAAANSUhEUgAAANAAAADQCAYAAAB2pO90AAAACXBIWXMAAAsSAAALEgHS3X78AAAV4klEQVR4nO2d4VEbSROGZ1z3H74I4CIAR2A5AnMRGCKwHIFxBCcisIjgRASGCEARnBTBQQTz1djvwiAkdc/s7E7Pbj9VKnx1Qqx2993u6e7pts45o8jFWrvtAi2NMY/Bf9/i5wqvR+fcg17W7lEBCWeHgLisIahb/HxQYeVFBSSclgLaxRKi8mK6dc6thn4eu0IFJJyOBLTJGoLyr4Vz7jHu18eLCkg4PQloE2+h5rBO6vLtQQUknEICCvHWaeEFpWJ6iwpIOAIEFNJYprm6eb9RAQlHmIBCbowxM+fcLf9XhocKqDKstYfGmNPgqI/x8kzw80OP38q7eLOxWiUV0EAJhBa+Tjr8tk+BkEYTFlcBjQxr7QSCmuB10MEZuDbGXI5BSCqgkWOtbcR01oHrN3ghqYCUZ+D2NWI6y2SdGtduNsQ1kgpI2Ym11ovo3BjzKcNZeoI1mg3pjKuAFBJYpnO82gYifNTufCjhbxWQEgWCEF5In1ueuRsIqWq3TgWkJGGt9bknL6Rpi7VS9W6dCkhpBdy7aUsh3cEaVRetUwEpWcggJG+Nps65eU1XRAWkZCWDkKpaG6mAlE6AkGaJwQYfqTurYfvEOwHHoAwQb0Gccz7I8B5rnBiOjDH31tqp9DOjAlI6xVsR55wPfX/FOieGv621c1gzkagLp/QGhDBPqGxYwqUTF6VTASm9gxKheWSQwVuvibR1kbpwSu845xbYBBizNvJiu7XWnku6YiogpQgIMjRrIy5eRD8kiUhdOKU42JO0QPSNy5VzrniUTi2QUhysa06RROXyxUfoSh+7CkgRAVw6H1y4ijiez6VFpC6cIg6scX5EHNc1kra9owJSRIJ10W1EqLuIiNSFU0SCddEEdXEcirhzKiBFLEFwYck8Ri+iXjfnqQuniAclQLcR/Rgu+tpXpBZIEQ/2Bk0iLFFvyVa1QEo1RFqiXmrnVEAFQGebpnd12Cz+kHFzhAOGH/DvBwwWHvykhAQRnXZZxa0C6piNXtSnkeUqKayb2acYKjw4UUWKaAlL1MkWcRVQZtDu6QyCydHRMwc3wfzTQfSphogemA+kznJEKqAMQDRTCKdrC9OWZmTjrHYxRSZbv3bRf04FlAiegGcQTpdzd7pkicYf1U7mhojumW9/nzuooAKKBNbmMuP0Agk8wSpVOYokonZujaBCtoeFCogJggFTQeuarqhy9ikqEL4w3nqDqu88f1cFtB8I57LnuaMSuINFqkZI1toF8wGXrVJBBbSDwFVrO4VgF/4GXW28DELPW12MjQHDxxuvrgRezZS5iMhctvyQCmgL1trLls3SN1kjWtTkZjrJjmNBHc4/zRURfIJbd5np8zojIqhwh54M7fAC0tfvF246/1RyGV4LjP84LnV+YaHOcSw5vtMKSUnR9wwefpzvM237t9QCvZj+S+YidB83uFnFhYWDsPtZhkDIFdw6saFva+0tw619wgMu+XuMXkCJHWFCmiG681pCwJmGY4luAI8Hxorx/dpF5cbsvkWY+l3uzPkAzsF5S7e1tRvU4Xc7Y36HZLe06ovf4sQ2PZpHK5wt56SNkPy5PBT6vTjrv1Xy5w/tRmCc0GOEOmNvkschCmfL+TnHd409Pw8lAyZ7vs8h8/skWdJB3wxbTuZp4s0xk/qE7eg8NcOxUh4ypwK/D8dVf0y5xqPZ0o2Kgpg2SQbFlr4AcVr7OPYY0ORwiuFY3G3UJmgA3z6/khFUYVON7A8gtChGISAUG/6MFM9359xpDWMGuwLDsbzV/h7xJ/w5/iltigJTHFNEKPmMwB05T3BDxCcLC5zHSYL7K2rNyAwczWM+c9B5oIQWsXfIbYzGXYsBuZVFZN1dby2mKCJyQ39yc3qDdeHgh8eIx4/L6Gzv/BAIZvrENID/IWVNhGvL2ZXKrvkbpAVK6Kss5ilZC5HWXcx4xtxWaHAWCItArnieVDxp4JxdMCdvN9G5uAV6N8fNtUKsIMigLJDExntDJ9Lad9piigvTCrEKTYdmgWYqnn4JpihwLNEJ8+nfKUwrdMCxQoOxQNZaH+f/m/FWFU8HSGgxFQPTCq2dc3vdzkFYIFw8jngMap5UPJnBOeVm8v/GNSt5vBwrdERFEKsXUJCb4KABgw4JAgscFrh2JeHcC3sfCkOwQJfMzXBXKp7uwTnm5ImOYvItXYAw9TXx0Z/2Cb3qNRDM60/GW/M0kFDYMLdUez6WbJ3FvId2rtlqF9CK2cKo1b53JZ6IhCW5UO8aa+0DEb1doqj2DdW6cGg9xXHdtLatADjnnF4DR7iWJaFc+5NdQY8qBRRMQ6D4PoahU1LBuedshYjfRpAXztp4a06oShcO48ypjqE7za7SLwwXyXQ5w4cDoy3wVlezOguERR+n3a60DV1jhnMtPheu2qas0NE2N65GF47jL19pslQOuBac0HaxtZBzbsEoR3oj8KpcOGbIUaNuAomIyhULazOWBm+WBbVZINa+9iGJx1rr8Hr0uRXvq/uolbX2TEAmnw2uCev6FTxMqqLlZPOcV2OBEKX5l3hb8ZxCbrx4iI9cwn+vYoAwM3fH3lKdE4jjP+IjX5WD1WSBOP6x+PEbHXCCQtp/vQsiraXUFsReR1hJqv3Vq/NbhQXKVXpeIwwLtI07yVXnDCtUbB3L2Bbz6j6rxQJxBvqO0frswteg3fu5oULXSdS1OmBWMXQBFcA4CpO+tVggKhH35JyrZkEdQ6IFChE5hsQHRYiHYrFEOOPYntdB4i0Q1E5lsYtvExbMEayRtMQydc1OCpb3UFboWdg1uHCcsKbu86H5gVHwUmi9ma1DKAE9BxJqEBDlC9/UMhkuBeecd7MtGr3/heJMKlK0iy9IFkr4XiuMxNxHqXUQ5e6+eETC+zEf19Z/ucdzc4gndMpQrJmQ78DpW15k5hDjuH6NcZFugThPIG4/hEGBNrszhFQvECzg8kXImohz7UpZIWqsy691kHQBUUnBG615+92HAEKKGUPyQ0hnHMqNK5UYpty4XwEO6QKixrGP0vrswjl3ibUSp8mhEdIZh7qGbUfyp0IJ6JewxQqIWZKiu003QL7nmDlZrnhnHM41LFSeVL0FotyL5ZCjb22AazRhiuhLSVcO15Bav5U4PkpAv0qRJAuIeurohrk9BCLiuHOl80PsvEtfcNbW/sFTswVS940gEBHFh8JV3OzMf89Q+bZDyQKi9oyoBWKANREnOlcyrM1ylwRyLFJAnKeh9jzgg+gctc74XKr2jHMtC1lIyjLKFBCy7PtILWUZM5xoW6mkpeG4Sz0dRxRSBUT5vBp9iwTl95QVKunGUde0xDqIOqbJHz0dSCzU02bQAkJYedMaLDK4rTNit+WvphmFqjuoa1rCApH3mVQBjdICQTjzHfufvllrlyieTRXSnDGI7LRQhFOiBSKptbn84ASE4s57YvPgSZvNcSlNM3qkxmsqNow9yO3Zu4Dl+RHxK20KQaXmXChK3BPkviCpAqK2cA8thJ2yyS11Yxx17ko9vPib2HqCsxas0oUbWOfR08SbY+fMGgKRa41ar+kgpnRXTpvcS/TvMgIQnDH1ClABlWdU672h8QfVdwwNLRRGjzY9V+2o8fypBSrP6Lek14wKKI69e2sSF/VttqVH/y7jGLnbwUePqXjIsNRQa3Q1Mxb1nJ2jmywTKxKoY9Qq9whIARW6WVkthQpAuVupx5VSWZBa+Ekdo7qUgHPvvxN6s0q9iKxOLbHAklxE/NpFi3o43SrPh+zL8a7SJ06ppuPUzfUh1WJju8F74oHm/9/7cEJaDDi2D8SvqID4PEqtxn4gLrTUrv0GrlVSkw5YldON7QyHeMjl2M7Acfu010QEHAGVuFkpq1hq6/EjthTsK72Ztu1yA6F0YQmoaQdL7fT6CvI+e8fZ953/uEiyR7syQrlPRwJn8TTbJajmHDom5jXUfXYrNYxNPQUpP75LOLkXieMmOcekrZIjecfZ9933QTnnOO1eS1UN+/N1TbzNWyExIsKxUNbnWju9voG691ccAZVCYrvXBo6r86309APz8qD5xnirum/xrDhh7FLuUic5lxzAQnJaa92WnH6Av82Jqt1xrP4Ioe79x3fMpnYlbgJx/ZI34MzvPCglokA8nP09pWaRioVzzbx2miBCld3xC05xbkLNV4y3nvQtokA8nJ2uV9rldSvUPf9LM42AxG3zZboUpa0Qp2WuwY286mNNhL+xYopnLTRiKAFWa7VGQFI7tUid4vwLJB25x3CAllSd3bD47PuIbdlnmjjdCWs6iFgLBChhfyo9ojChENRH51Y5k63+s/xnMqNtDW0KUscAr7knRnqfUmO9C40ar2bMPcp3YsfNr7CAP0z4e9WPuZf84o65t3gzud/fGPOxRKgTT9Z9SUA/qbuoK9dgrfW5lM+Jv34Hi+utwmrTOmBtc4yH3aRFesEnTMWVGkkCo1R+7juk5/4NwRPtgVDcVPCT/VjK0yzREvX1UsvDu4ZT4no8NO8Na+Gk5l04lc1inqjOuWnkmqgvLnBsCg11rz9rJRSQyMw/6rOoXbOiboxgcxwnxN016zab8EYKe9dujAU6KFjbRVmhA2lbCJrNccxka1dcYbGr0TYmuMepNMBbC8Sc11/KjVsw2i2JSwj6HAvcpvc9j6W8g9WZap4nGuoeX4dV65v7gSgrVCTahZuA2qsiciObgTVyzvkL85GxFaIN14iWTtTqJEPd46808hzGNi+7Fqk5Nf8r8VRD3du/xNv806HkblUW+C5nCH60HduxxFaEhe7naQeS8v8RH3IRric3BcT5gL+cc0V2Llpr/d/9RLztoqYFM875BOulUyRIt/nhT1i8PuLnLcKp6qJlwlrrH2r/EJ/2yoC8EpD5/SEPxFOxWCKOk+DCjXasN5YSCyMR7puuvAqkbeuJQD29i2X9mRvZDrTCWEmEurffaGObgDjh7JKlMxxxfJGwnVqpB9zT7PB1wxsBIXpDhbOLRbtghTiRLE0cKjFQ9/R6W2RzV1srKkhQehvBJSMvdCKpM44iF9zLVHBqqyZ2CYjz9C65Floxa+S+IfCgKPvgeFRbNfEmCvf8P+ho3JuIRN8wtjoYjcopFG3u9X2dSSkrdCLg6c55chxox01lF7iHqWT2Ti20EZApvY0AAQVOsaYfO9Kq4bsyWJLdN7PPhTP8zP+fJUtIsAB8YLhyprYqBaVbmOVhe3c8U83lxW9mi+yM80NqwalSBM69sFcDey2Q4S3URSzSrbV+28DfjLf649Vq5ZEDz2VFJE/J4mTOeBNyM5uEHaHOuRkzwdq029VKhXEzZVQekB4YxwJxlCrFCsW0tFVLNFJy3tOkBcIH1GKFmvUQVaVgAkuka6LxwbI+HINAWiDDj1aISVjCPeNOJjAanRsPTOtjuNFl1ohH5lQ2EVbIvBTExpQa/dA80WjgWB/2tD6WBTIVWiHD36IecqcN14dLbutjuBbIxFkhMU9yuGUxTQ4/YAyJFqAOk1lO62NiLJB5sUIPjIN4Lym6lWCJPN+dc7odYiBgXXxPfJsn9NFjCyhqzH3ENgJR6wlYoo/M6FyD3wrxoPmiwcC6b2PL0qIskInzI78iuSmGhOhcgy9YvdS1UZ0wq1SS1u9RFsi85Fo4rs1l6eFXmwTtdqle25t8wdpIc0aVgXuQdb+mPCCjLdDzL/I2s4mZ3ROCkzpLnOWzxsnWvFEFMHcUJDfkjLZAAZyn8afCHXy2gp7V/vi/Jvz6EfJGapGEg3uPEo9ps6Mg2QIZvrpFb6nGumjB3E+0jSdYs7m21pVDxFq9lZfUVkDcg7xDc3WRBH7yl5bHdwMxLjTgUBZr7S1jDGb7h3sP4/CKjoiM/C6TxKG9214LuAZixk+O5dXnPdnKAjUw1W6kJVh3gX5ynJopLmuEz5uG8LqFoiOYCVOTyyvKJSBuhcIamV7x7g2+02WLqdsUd7B24cvoxIV0IvpjRFcc7CKLgExcuYzI0PYuUBd32WKsfCuex6krnGvFCWqZnNtX2oSxX4EDumG89VNNWwd866xguhzn+ykFwD3FEc9NzhxeNgtkRtJiKnDtON38W6MWiCbC+8m+hMgqIBO3iDO1BBW2gYfFGYINbcc07kQFtJ/S91s2F64BB8jN8FfbHQfVDHP0TP4TBafUWBglI0FxMIevXTyss1ug5w+mx+U1VBOZ4xAMEJ4wffK9qAXaTuRyobOxpF0KKKbF1BItpgYXvkUU7zQYJBxVMqQCeouke6szAZm4/JAZsog2gagON6ZyG/z71U2hAnpNQu+/LPmencfTpYBM/Ca20YhIiUdi48zsQYRN8AW47a5OEFgQtRFPKU+keAzq3DqP8HYuIBPfHUdFpLwiQTy95Rh7EZB5ERFnGJZRESkNCeK56jNB35uAzG8RTZkTFAxOmHbFGTG49tT80pBr3GO90XkQYRsROSKjUxTGSUIHpc5yPfvo1QI14ItyLZE/gffaf2A84FrfSxePKSUgEy8iow3gxwGucUwX2WLiMaVcuFcHEOfOGWwpONdc0bBAsGAeWf5UVDympAVqwAngRucMTrAGFwZEECyIEc9VafEYCQIyL9G5mCkKR1gXiZhHpKSDa3gfWSN40Xe0bRfFXbgQLB45IyhCdKZPhcBlW0RulX9ChYGYjZiiBGTSG8A/YV206PDQlEygY+g84RqLS2eIcOFCEhvA+wvxj28qodULcvHXBo0//okUzxJV1eJygeIEZF7mEE0iw9wGi9CVro3kgWuySthkeA3LI7JtsjgXbhPmbJdt3PVVkavsBi75LLEtmLgZU5uIF5Bp3wD+GkLSIEOPZBghc1ZFF9saBGTSE20NzQSFmQqpW3Cdpi1aI1eVKK9GQA2Joe4GFVJHZBCOuBA1h+oEZF56LcxbtNtVIWUig3AM1qvnNc5XqlJADQgwXLa4cDocKxE8xM5bCucJ4zKrLRKuWkCm/doo5BpC4jbqGyXoKHSeYWrFIIqCqxdQAy7svMWoxoYlrJJOmQOZ2xivIZxBPKgGI6CGDG5dyA2s0ihLhFByc56jw+oQ3LVtDE5AJt/CNuSpmX3q6/SGaplw3iawNrmmTww6YDNIATV0OGXuLhBT1ZUOSFI3osk9ROwaVmewAZpBC6ih43GNTxvzT0X79hu9uicdzTgavHAaRiGghkyhVw5L7LB8fvXtvsAdO914dTbHaKwpgVEJqAE3VyOktlG7GO7w3sZKNQOGG0ihBcJoOMbLwKKYnue5rgPhjC5qOUoBhcClmWaKNI0JH6GcjT1vNnoBNQRW6bxjV6dmlsi1jdLabEMFtAVEps4RmerTxZPIGhHHue6teosKiCAI847JMjWWpvowfdeogCIISlqaEPBQrNM6CMVrCVMEKqAWICwe5lVqsVDLJm8FK6OV6ImogDIDl+8UoeUJfpayVGuEyW/x80FdsryogHoCwjrckbcx2wYM78FbkNDN2swrPapQesAY83+saZwoUd/PUQAAAABJRU5ErkJggg==;" vertex="1" parent="1">
          <mxGeometry x="-20" y="290" width="50" height="50" as="geometry" />
        </mxCell>
        <mxCell id="srN8gHAstGxJ4yh3wAJ1-8" value="" style="shape=image;verticalLabelPosition=bottom;labelBackgroundColor=default;verticalAlign=top;aspect=fixed;imageAspect=0;image=data:image/png,iVBORw0KGgoAAAANSUhEUgAAANAAAADQCAYAAAB2pO90AAAACXBIWXMAAAsSAAALEgHS3X78AAAV4klEQVR4nO2d4VEbSROGZ1z3H74I4CIAR2A5AnMRGCKwHIFxBCcisIjgRASGCEARnBTBQQTz1djvwiAkdc/s7E7Pbj9VKnx1Qqx2993u6e7pts45o8jFWrvtAi2NMY/Bf9/i5wqvR+fcg17W7lEBCWeHgLisIahb/HxQYeVFBSSclgLaxRKi8mK6dc6thn4eu0IFJJyOBLTJGoLyr4Vz7jHu18eLCkg4PQloE2+h5rBO6vLtQQUknEICCvHWaeEFpWJ6iwpIOAIEFNJYprm6eb9RAQlHmIBCbowxM+fcLf9XhocKqDKstYfGmNPgqI/x8kzw80OP38q7eLOxWiUV0EAJhBa+Tjr8tk+BkEYTFlcBjQxr7QSCmuB10MEZuDbGXI5BSCqgkWOtbcR01oHrN3ghqYCUZ+D2NWI6y2SdGtduNsQ1kgpI2Ym11ovo3BjzKcNZeoI1mg3pjKuAFBJYpnO82gYifNTufCjhbxWQEgWCEF5In1ueuRsIqWq3TgWkJGGt9bknL6Rpi7VS9W6dCkhpBdy7aUsh3cEaVRetUwEpWcggJG+Nps65eU1XRAWkZCWDkKpaG6mAlE6AkGaJwQYfqTurYfvEOwHHoAwQb0Gccz7I8B5rnBiOjDH31tqp9DOjAlI6xVsR55wPfX/FOieGv621c1gzkagLp/QGhDBPqGxYwqUTF6VTASm9gxKheWSQwVuvibR1kbpwSu845xbYBBizNvJiu7XWnku6YiogpQgIMjRrIy5eRD8kiUhdOKU42JO0QPSNy5VzrniUTi2QUhysa06RROXyxUfoSh+7CkgRAVw6H1y4ijiez6VFpC6cIg6scX5EHNc1kra9owJSRIJ10W1EqLuIiNSFU0SCddEEdXEcirhzKiBFLEFwYck8Ri+iXjfnqQuniAclQLcR/Rgu+tpXpBZIEQ/2Bk0iLFFvyVa1QEo1RFqiXmrnVEAFQGebpnd12Cz+kHFzhAOGH/DvBwwWHvykhAQRnXZZxa0C6piNXtSnkeUqKayb2acYKjw4UUWKaAlL1MkWcRVQZtDu6QyCydHRMwc3wfzTQfSphogemA+kznJEKqAMQDRTCKdrC9OWZmTjrHYxRSZbv3bRf04FlAiegGcQTpdzd7pkicYf1U7mhojumW9/nzuooAKKBNbmMuP0Agk8wSpVOYokonZujaBCtoeFCogJggFTQeuarqhy9ikqEL4w3nqDqu88f1cFtB8I57LnuaMSuINFqkZI1toF8wGXrVJBBbSDwFVrO4VgF/4GXW28DELPW12MjQHDxxuvrgRezZS5iMhctvyQCmgL1trLls3SN1kjWtTkZjrJjmNBHc4/zRURfIJbd5np8zojIqhwh54M7fAC0tfvF246/1RyGV4LjP84LnV+YaHOcSw5vtMKSUnR9wwefpzvM237t9QCvZj+S+YidB83uFnFhYWDsPtZhkDIFdw6saFva+0tw619wgMu+XuMXkCJHWFCmiG681pCwJmGY4luAI8Hxorx/dpF5cbsvkWY+l3uzPkAzsF5S7e1tRvU4Xc7Y36HZLe06ovf4sQ2PZpHK5wt56SNkPy5PBT6vTjrv1Xy5w/tRmCc0GOEOmNvkschCmfL+TnHd409Pw8lAyZ7vs8h8/skWdJB3wxbTuZp4s0xk/qE7eg8NcOxUh4ypwK/D8dVf0y5xqPZ0o2Kgpg2SQbFlr4AcVr7OPYY0ORwiuFY3G3UJmgA3z6/khFUYVON7A8gtChGISAUG/6MFM9359xpDWMGuwLDsbzV/h7xJ/w5/iltigJTHFNEKPmMwB05T3BDxCcLC5zHSYL7K2rNyAwczWM+c9B5oIQWsXfIbYzGXYsBuZVFZN1dby2mKCJyQ39yc3qDdeHgh8eIx4/L6Gzv/BAIZvrENID/IWVNhGvL2ZXKrvkbpAVK6Kss5ilZC5HWXcx4xtxWaHAWCItArnieVDxp4JxdMCdvN9G5uAV6N8fNtUKsIMigLJDExntDJ9Lad9piigvTCrEKTYdmgWYqnn4JpihwLNEJ8+nfKUwrdMCxQoOxQNZaH+f/m/FWFU8HSGgxFQPTCq2dc3vdzkFYIFw8jngMap5UPJnBOeVm8v/GNSt5vBwrdERFEKsXUJCb4KABgw4JAgscFrh2JeHcC3sfCkOwQJfMzXBXKp7uwTnm5ImOYvItXYAw9TXx0Z/2Cb3qNRDM60/GW/M0kFDYMLdUez6WbJ3FvId2rtlqF9CK2cKo1b53JZ6IhCW5UO8aa+0DEb1doqj2DdW6cGg9xXHdtLatADjnnF4DR7iWJaFc+5NdQY8qBRRMQ6D4PoahU1LBuedshYjfRpAXztp4a06oShcO48ypjqE7za7SLwwXyXQ5w4cDoy3wVlezOguERR+n3a60DV1jhnMtPheu2qas0NE2N65GF47jL19pslQOuBac0HaxtZBzbsEoR3oj8KpcOGbIUaNuAomIyhULazOWBm+WBbVZINa+9iGJx1rr8Hr0uRXvq/uolbX2TEAmnw2uCev6FTxMqqLlZPOcV2OBEKX5l3hb8ZxCbrx4iI9cwn+vYoAwM3fH3lKdE4jjP+IjX5WD1WSBOP6x+PEbHXCCQtp/vQsiraXUFsReR1hJqv3Vq/NbhQXKVXpeIwwLtI07yVXnDCtUbB3L2Bbz6j6rxQJxBvqO0frswteg3fu5oULXSdS1OmBWMXQBFcA4CpO+tVggKhH35JyrZkEdQ6IFChE5hsQHRYiHYrFEOOPYntdB4i0Q1E5lsYtvExbMEayRtMQydc1OCpb3UFboWdg1uHCcsKbu86H5gVHwUmi9ma1DKAE9BxJqEBDlC9/UMhkuBeecd7MtGr3/heJMKlK0iy9IFkr4XiuMxNxHqXUQ5e6+eETC+zEf19Z/ucdzc4gndMpQrJmQ78DpW15k5hDjuH6NcZFugThPIG4/hEGBNrszhFQvECzg8kXImohz7UpZIWqsy691kHQBUUnBG615+92HAEKKGUPyQ0hnHMqNK5UYpty4XwEO6QKixrGP0vrswjl3ibUSp8mhEdIZh7qGbUfyp0IJ6JewxQqIWZKiu003QL7nmDlZrnhnHM41LFSeVL0FotyL5ZCjb22AazRhiuhLSVcO15Bav5U4PkpAv0qRJAuIeurohrk9BCLiuHOl80PsvEtfcNbW/sFTswVS940gEBHFh8JV3OzMf89Q+bZDyQKi9oyoBWKANREnOlcyrM1ylwRyLFJAnKeh9jzgg+gctc74XKr2jHMtC1lIyjLKFBCy7PtILWUZM5xoW6mkpeG4Sz0dRxRSBUT5vBp9iwTl95QVKunGUde0xDqIOqbJHz0dSCzU02bQAkJYedMaLDK4rTNit+WvphmFqjuoa1rCApH3mVQBjdICQTjzHfufvllrlyieTRXSnDGI7LRQhFOiBSKptbn84ASE4s57YvPgSZvNcSlNM3qkxmsqNow9yO3Zu4Dl+RHxK20KQaXmXChK3BPkviCpAqK2cA8thJ2yyS11Yxx17ko9vPib2HqCsxas0oUbWOfR08SbY+fMGgKRa41ar+kgpnRXTpvcS/TvMgIQnDH1ClABlWdU672h8QfVdwwNLRRGjzY9V+2o8fypBSrP6Lek14wKKI69e2sSF/VttqVH/y7jGLnbwUePqXjIsNRQa3Q1Mxb1nJ2jmywTKxKoY9Qq9whIARW6WVkthQpAuVupx5VSWZBa+Ekdo7qUgHPvvxN6s0q9iKxOLbHAklxE/NpFi3o43SrPh+zL8a7SJ06ppuPUzfUh1WJju8F74oHm/9/7cEJaDDi2D8SvqID4PEqtxn4gLrTUrv0GrlVSkw5YldON7QyHeMjl2M7Acfu010QEHAGVuFkpq1hq6/EjthTsK72Ztu1yA6F0YQmoaQdL7fT6CvI+e8fZ953/uEiyR7syQrlPRwJn8TTbJajmHDom5jXUfXYrNYxNPQUpP75LOLkXieMmOcekrZIjecfZ9933QTnnOO1eS1UN+/N1TbzNWyExIsKxUNbnWju9voG691ccAZVCYrvXBo6r86309APz8qD5xnirum/xrDhh7FLuUic5lxzAQnJaa92WnH6Av82Jqt1xrP4Ioe79x3fMpnYlbgJx/ZI34MzvPCglokA8nP09pWaRioVzzbx2miBCld3xC05xbkLNV4y3nvQtokA8nJ2uV9rldSvUPf9LM42AxG3zZboUpa0Qp2WuwY286mNNhL+xYopnLTRiKAFWa7VGQFI7tUid4vwLJB25x3CAllSd3bD47PuIbdlnmjjdCWs6iFgLBChhfyo9ojChENRH51Y5k63+s/xnMqNtDW0KUscAr7knRnqfUmO9C40ar2bMPcp3YsfNr7CAP0z4e9WPuZf84o65t3gzud/fGPOxRKgTT9Z9SUA/qbuoK9dgrfW5lM+Jv34Hi+utwmrTOmBtc4yH3aRFesEnTMWVGkkCo1R+7juk5/4NwRPtgVDcVPCT/VjK0yzREvX1UsvDu4ZT4no8NO8Na+Gk5l04lc1inqjOuWnkmqgvLnBsCg11rz9rJRSQyMw/6rOoXbOiboxgcxwnxN016zab8EYKe9dujAU6KFjbRVmhA2lbCJrNccxka1dcYbGr0TYmuMepNMBbC8Sc11/KjVsw2i2JSwj6HAvcpvc9j6W8g9WZap4nGuoeX4dV65v7gSgrVCTahZuA2qsiciObgTVyzvkL85GxFaIN14iWTtTqJEPd46808hzGNi+7Fqk5Nf8r8VRD3du/xNv806HkblUW+C5nCH60HduxxFaEhe7naQeS8v8RH3IRric3BcT5gL+cc0V2Llpr/d/9RLztoqYFM875BOulUyRIt/nhT1i8PuLnLcKp6qJlwlrrH2r/EJ/2yoC8EpD5/SEPxFOxWCKOk+DCjXasN5YSCyMR7puuvAqkbeuJQD29i2X9mRvZDrTCWEmEurffaGObgDjh7JKlMxxxfJGwnVqpB9zT7PB1wxsBIXpDhbOLRbtghTiRLE0cKjFQ9/R6W2RzV1srKkhQehvBJSMvdCKpM44iF9zLVHBqqyZ2CYjz9C65Floxa+S+IfCgKPvgeFRbNfEmCvf8P+ho3JuIRN8wtjoYjcopFG3u9X2dSSkrdCLg6c55chxox01lF7iHqWT2Ti20EZApvY0AAQVOsaYfO9Kq4bsyWJLdN7PPhTP8zP+fJUtIsAB8YLhyprYqBaVbmOVhe3c8U83lxW9mi+yM80NqwalSBM69sFcDey2Q4S3URSzSrbV+28DfjLf649Vq5ZEDz2VFJE/J4mTOeBNyM5uEHaHOuRkzwdq029VKhXEzZVQekB4YxwJxlCrFCsW0tFVLNFJy3tOkBcIH1GKFmvUQVaVgAkuka6LxwbI+HINAWiDDj1aISVjCPeNOJjAanRsPTOtjuNFl1ohH5lQ2EVbIvBTExpQa/dA80WjgWB/2tD6WBTIVWiHD36IecqcN14dLbutjuBbIxFkhMU9yuGUxTQ4/YAyJFqAOk1lO62NiLJB5sUIPjIN4Lym6lWCJPN+dc7odYiBgXXxPfJsn9NFjCyhqzH3ENgJR6wlYoo/M6FyD3wrxoPmiwcC6b2PL0qIskInzI78iuSmGhOhcgy9YvdS1UZ0wq1SS1u9RFsi85Fo4rs1l6eFXmwTtdqle25t8wdpIc0aVgXuQdb+mPCCjLdDzL/I2s4mZ3ROCkzpLnOWzxsnWvFEFMHcUJDfkjLZAAZyn8afCHXy2gp7V/vi/Jvz6EfJGapGEg3uPEo9ps6Mg2QIZvrpFb6nGumjB3E+0jSdYs7m21pVDxFq9lZfUVkDcg7xDc3WRBH7yl5bHdwMxLjTgUBZr7S1jDGb7h3sP4/CKjoiM/C6TxKG9214LuAZixk+O5dXnPdnKAjUw1W6kJVh3gX5ynJopLmuEz5uG8LqFoiOYCVOTyyvKJSBuhcIamV7x7g2+02WLqdsUd7B24cvoxIV0IvpjRFcc7CKLgExcuYzI0PYuUBd32WKsfCuex6krnGvFCWqZnNtX2oSxX4EDumG89VNNWwd866xguhzn+ykFwD3FEc9NzhxeNgtkRtJiKnDtON38W6MWiCbC+8m+hMgqIBO3iDO1BBW2gYfFGYINbcc07kQFtJ/S91s2F64BB8jN8FfbHQfVDHP0TP4TBafUWBglI0FxMIevXTyss1ug5w+mx+U1VBOZ4xAMEJ4wffK9qAXaTuRyobOxpF0KKKbF1BItpgYXvkUU7zQYJBxVMqQCeouke6szAZm4/JAZsog2gagON6ZyG/z71U2hAnpNQu+/LPmencfTpYBM/Ca20YhIiUdi48zsQYRN8AW47a5OEFgQtRFPKU+keAzq3DqP8HYuIBPfHUdFpLwiQTy95Rh7EZB5ERFnGJZRESkNCeK56jNB35uAzG8RTZkTFAxOmHbFGTG49tT80pBr3GO90XkQYRsROSKjUxTGSUIHpc5yPfvo1QI14ItyLZE/gffaf2A84FrfSxePKSUgEy8iow3gxwGucUwX2WLiMaVcuFcHEOfOGWwpONdc0bBAsGAeWf5UVDympAVqwAngRucMTrAGFwZEECyIEc9VafEYCQIyL9G5mCkKR1gXiZhHpKSDa3gfWSN40Xe0bRfFXbgQLB45IyhCdKZPhcBlW0RulX9ChYGYjZiiBGTSG8A/YV206PDQlEygY+g84RqLS2eIcOFCEhvA+wvxj28qodULcvHXBo0//okUzxJV1eJygeIEZF7mEE0iw9wGi9CVro3kgWuySthkeA3LI7JtsjgXbhPmbJdt3PVVkavsBi75LLEtmLgZU5uIF5Bp3wD+GkLSIEOPZBghc1ZFF9saBGTSE20NzQSFmQqpW3Cdpi1aI1eVKK9GQA2Joe4GFVJHZBCOuBA1h+oEZF56LcxbtNtVIWUig3AM1qvnNc5XqlJADQgwXLa4cDocKxE8xM5bCucJ4zKrLRKuWkCm/doo5BpC4jbqGyXoKHSeYWrFIIqCqxdQAy7svMWoxoYlrJJOmQOZ2xivIZxBPKgGI6CGDG5dyA2s0ihLhFByc56jw+oQ3LVtDE5AJt/CNuSpmX3q6/SGaplw3iawNrmmTww6YDNIATV0OGXuLhBT1ZUOSFI3osk9ROwaVmewAZpBC6ih43GNTxvzT0X79hu9uicdzTgavHAaRiGghkyhVw5L7LB8fvXtvsAdO914dTbHaKwpgVEJqAE3VyOktlG7GO7w3sZKNQOGG0ihBcJoOMbLwKKYnue5rgPhjC5qOUoBhcClmWaKNI0JH6GcjT1vNnoBNQRW6bxjV6dmlsi1jdLabEMFtAVEps4RmerTxZPIGhHHue6teosKiCAI847JMjWWpvowfdeogCIISlqaEPBQrNM6CMVrCVMEKqAWICwe5lVqsVDLJm8FK6OV6ImogDIDl+8UoeUJfpayVGuEyW/x80FdsryogHoCwjrckbcx2wYM78FbkNDN2swrPapQesAY83+saZwoUd/PUQAAAABJRU5ErkJggg==;" vertex="1" parent="1">
          <mxGeometry x="50" y="290" width="50" height="50" as="geometry" />
        </mxCell>
        <mxCell id="srN8gHAstGxJ4yh3wAJ1-9" value="" style="shape=image;verticalLabelPosition=bottom;labelBackgroundColor=default;verticalAlign=top;aspect=fixed;imageAspect=0;image=data:image/png,iVBORw0KGgoAAAANSUhEUgAAANAAAADQCAYAAAB2pO90AAAACXBIWXMAAAsSAAALEgHS3X78AAAV4klEQVR4nO2d4VEbSROGZ1z3H74I4CIAR2A5AnMRGCKwHIFxBCcisIjgRASGCEARnBTBQQTz1djvwiAkdc/s7E7Pbj9VKnx1Qqx2993u6e7pts45o8jFWrvtAi2NMY/Bf9/i5wqvR+fcg17W7lEBCWeHgLisIahb/HxQYeVFBSSclgLaxRKi8mK6dc6thn4eu0IFJJyOBLTJGoLyr4Vz7jHu18eLCkg4PQloE2+h5rBO6vLtQQUknEICCvHWaeEFpWJ6iwpIOAIEFNJYprm6eb9RAQlHmIBCbowxM+fcLf9XhocKqDKstYfGmNPgqI/x8kzw80OP38q7eLOxWiUV0EAJhBa+Tjr8tk+BkEYTFlcBjQxr7QSCmuB10MEZuDbGXI5BSCqgkWOtbcR01oHrN3ghqYCUZ+D2NWI6y2SdGtduNsQ1kgpI2Ym11ovo3BjzKcNZeoI1mg3pjKuAFBJYpnO82gYifNTufCjhbxWQEgWCEF5In1ueuRsIqWq3TgWkJGGt9bknL6Rpi7VS9W6dCkhpBdy7aUsh3cEaVRetUwEpWcggJG+Nps65eU1XRAWkZCWDkKpaG6mAlE6AkGaJwQYfqTurYfvEOwHHoAwQb0Gccz7I8B5rnBiOjDH31tqp9DOjAlI6xVsR55wPfX/FOieGv621c1gzkagLp/QGhDBPqGxYwqUTF6VTASm9gxKheWSQwVuvibR1kbpwSu845xbYBBizNvJiu7XWnku6YiogpQgIMjRrIy5eRD8kiUhdOKU42JO0QPSNy5VzrniUTi2QUhysa06RROXyxUfoSh+7CkgRAVw6H1y4ijiez6VFpC6cIg6scX5EHNc1kra9owJSRIJ10W1EqLuIiNSFU0SCddEEdXEcirhzKiBFLEFwYck8Ri+iXjfnqQuniAclQLcR/Rgu+tpXpBZIEQ/2Bk0iLFFvyVa1QEo1RFqiXmrnVEAFQGebpnd12Cz+kHFzhAOGH/DvBwwWHvykhAQRnXZZxa0C6piNXtSnkeUqKayb2acYKjw4UUWKaAlL1MkWcRVQZtDu6QyCydHRMwc3wfzTQfSphogemA+kznJEKqAMQDRTCKdrC9OWZmTjrHYxRSZbv3bRf04FlAiegGcQTpdzd7pkicYf1U7mhojumW9/nzuooAKKBNbmMuP0Agk8wSpVOYokonZujaBCtoeFCogJggFTQeuarqhy9ikqEL4w3nqDqu88f1cFtB8I57LnuaMSuINFqkZI1toF8wGXrVJBBbSDwFVrO4VgF/4GXW28DELPW12MjQHDxxuvrgRezZS5iMhctvyQCmgL1trLls3SN1kjWtTkZjrJjmNBHc4/zRURfIJbd5np8zojIqhwh54M7fAC0tfvF246/1RyGV4LjP84LnV+YaHOcSw5vtMKSUnR9wwefpzvM237t9QCvZj+S+YidB83uFnFhYWDsPtZhkDIFdw6saFva+0tw619wgMu+XuMXkCJHWFCmiG681pCwJmGY4luAI8Hxorx/dpF5cbsvkWY+l3uzPkAzsF5S7e1tRvU4Xc7Y36HZLe06ovf4sQ2PZpHK5wt56SNkPy5PBT6vTjrv1Xy5w/tRmCc0GOEOmNvkschCmfL+TnHd409Pw8lAyZ7vs8h8/skWdJB3wxbTuZp4s0xk/qE7eg8NcOxUh4ypwK/D8dVf0y5xqPZ0o2Kgpg2SQbFlr4AcVr7OPYY0ORwiuFY3G3UJmgA3z6/khFUYVON7A8gtChGISAUG/6MFM9359xpDWMGuwLDsbzV/h7xJ/w5/iltigJTHFNEKPmMwB05T3BDxCcLC5zHSYL7K2rNyAwczWM+c9B5oIQWsXfIbYzGXYsBuZVFZN1dby2mKCJyQ39yc3qDdeHgh8eIx4/L6Gzv/BAIZvrENID/IWVNhGvL2ZXKrvkbpAVK6Kss5ilZC5HWXcx4xtxWaHAWCItArnieVDxp4JxdMCdvN9G5uAV6N8fNtUKsIMigLJDExntDJ9Lad9piigvTCrEKTYdmgWYqnn4JpihwLNEJ8+nfKUwrdMCxQoOxQNZaH+f/m/FWFU8HSGgxFQPTCq2dc3vdzkFYIFw8jngMap5UPJnBOeVm8v/GNSt5vBwrdERFEKsXUJCb4KABgw4JAgscFrh2JeHcC3sfCkOwQJfMzXBXKp7uwTnm5ImOYvItXYAw9TXx0Z/2Cb3qNRDM60/GW/M0kFDYMLdUez6WbJ3FvId2rtlqF9CK2cKo1b53JZ6IhCW5UO8aa+0DEb1doqj2DdW6cGg9xXHdtLatADjnnF4DR7iWJaFc+5NdQY8qBRRMQ6D4PoahU1LBuedshYjfRpAXztp4a06oShcO48ypjqE7za7SLwwXyXQ5w4cDoy3wVlezOguERR+n3a60DV1jhnMtPheu2qas0NE2N65GF47jL19pslQOuBac0HaxtZBzbsEoR3oj8KpcOGbIUaNuAomIyhULazOWBm+WBbVZINa+9iGJx1rr8Hr0uRXvq/uolbX2TEAmnw2uCev6FTxMqqLlZPOcV2OBEKX5l3hb8ZxCbrx4iI9cwn+vYoAwM3fH3lKdE4jjP+IjX5WD1WSBOP6x+PEbHXCCQtp/vQsiraXUFsReR1hJqv3Vq/NbhQXKVXpeIwwLtI07yVXnDCtUbB3L2Bbz6j6rxQJxBvqO0frswteg3fu5oULXSdS1OmBWMXQBFcA4CpO+tVggKhH35JyrZkEdQ6IFChE5hsQHRYiHYrFEOOPYntdB4i0Q1E5lsYtvExbMEayRtMQydc1OCpb3UFboWdg1uHCcsKbu86H5gVHwUmi9ma1DKAE9BxJqEBDlC9/UMhkuBeecd7MtGr3/heJMKlK0iy9IFkr4XiuMxNxHqXUQ5e6+eETC+zEf19Z/ucdzc4gndMpQrJmQ78DpW15k5hDjuH6NcZFugThPIG4/hEGBNrszhFQvECzg8kXImohz7UpZIWqsy691kHQBUUnBG615+92HAEKKGUPyQ0hnHMqNK5UYpty4XwEO6QKixrGP0vrswjl3ibUSp8mhEdIZh7qGbUfyp0IJ6JewxQqIWZKiu003QL7nmDlZrnhnHM41LFSeVL0FotyL5ZCjb22AazRhiuhLSVcO15Bav5U4PkpAv0qRJAuIeurohrk9BCLiuHOl80PsvEtfcNbW/sFTswVS940gEBHFh8JV3OzMf89Q+bZDyQKi9oyoBWKANREnOlcyrM1ylwRyLFJAnKeh9jzgg+gctc74XKr2jHMtC1lIyjLKFBCy7PtILWUZM5xoW6mkpeG4Sz0dRxRSBUT5vBp9iwTl95QVKunGUde0xDqIOqbJHz0dSCzU02bQAkJYedMaLDK4rTNit+WvphmFqjuoa1rCApH3mVQBjdICQTjzHfufvllrlyieTRXSnDGI7LRQhFOiBSKptbn84ASE4s57YvPgSZvNcSlNM3qkxmsqNow9yO3Zu4Dl+RHxK20KQaXmXChK3BPkviCpAqK2cA8thJ2yyS11Yxx17ko9vPib2HqCsxas0oUbWOfR08SbY+fMGgKRa41ar+kgpnRXTpvcS/TvMgIQnDH1ClABlWdU672h8QfVdwwNLRRGjzY9V+2o8fypBSrP6Lek14wKKI69e2sSF/VttqVH/y7jGLnbwUePqXjIsNRQa3Q1Mxb1nJ2jmywTKxKoY9Qq9whIARW6WVkthQpAuVupx5VSWZBa+Ekdo7qUgHPvvxN6s0q9iKxOLbHAklxE/NpFi3o43SrPh+zL8a7SJ06ppuPUzfUh1WJju8F74oHm/9/7cEJaDDi2D8SvqID4PEqtxn4gLrTUrv0GrlVSkw5YldON7QyHeMjl2M7Acfu010QEHAGVuFkpq1hq6/EjthTsK72Ztu1yA6F0YQmoaQdL7fT6CvI+e8fZ953/uEiyR7syQrlPRwJn8TTbJajmHDom5jXUfXYrNYxNPQUpP75LOLkXieMmOcekrZIjecfZ9933QTnnOO1eS1UN+/N1TbzNWyExIsKxUNbnWju9voG691ccAZVCYrvXBo6r86309APz8qD5xnirum/xrDhh7FLuUic5lxzAQnJaa92WnH6Av82Jqt1xrP4Ioe79x3fMpnYlbgJx/ZI34MzvPCglokA8nP09pWaRioVzzbx2miBCld3xC05xbkLNV4y3nvQtokA8nJ2uV9rldSvUPf9LM42AxG3zZboUpa0Qp2WuwY286mNNhL+xYopnLTRiKAFWa7VGQFI7tUid4vwLJB25x3CAllSd3bD47PuIbdlnmjjdCWs6iFgLBChhfyo9ojChENRH51Y5k63+s/xnMqNtDW0KUscAr7knRnqfUmO9C40ar2bMPcp3YsfNr7CAP0z4e9WPuZf84o65t3gzud/fGPOxRKgTT9Z9SUA/qbuoK9dgrfW5lM+Jv34Hi+utwmrTOmBtc4yH3aRFesEnTMWVGkkCo1R+7juk5/4NwRPtgVDcVPCT/VjK0yzREvX1UsvDu4ZT4no8NO8Na+Gk5l04lc1inqjOuWnkmqgvLnBsCg11rz9rJRSQyMw/6rOoXbOiboxgcxwnxN016zab8EYKe9dujAU6KFjbRVmhA2lbCJrNccxka1dcYbGr0TYmuMepNMBbC8Sc11/KjVsw2i2JSwj6HAvcpvc9j6W8g9WZap4nGuoeX4dV65v7gSgrVCTahZuA2qsiciObgTVyzvkL85GxFaIN14iWTtTqJEPd46808hzGNi+7Fqk5Nf8r8VRD3du/xNv806HkblUW+C5nCH60HduxxFaEhe7naQeS8v8RH3IRric3BcT5gL+cc0V2Llpr/d/9RLztoqYFM875BOulUyRIt/nhT1i8PuLnLcKp6qJlwlrrH2r/EJ/2yoC8EpD5/SEPxFOxWCKOk+DCjXasN5YSCyMR7puuvAqkbeuJQD29i2X9mRvZDrTCWEmEurffaGObgDjh7JKlMxxxfJGwnVqpB9zT7PB1wxsBIXpDhbOLRbtghTiRLE0cKjFQ9/R6W2RzV1srKkhQehvBJSMvdCKpM44iF9zLVHBqqyZ2CYjz9C65Floxa+S+IfCgKPvgeFRbNfEmCvf8P+ho3JuIRN8wtjoYjcopFG3u9X2dSSkrdCLg6c55chxox01lF7iHqWT2Ti20EZApvY0AAQVOsaYfO9Kq4bsyWJLdN7PPhTP8zP+fJUtIsAB8YLhyprYqBaVbmOVhe3c8U83lxW9mi+yM80NqwalSBM69sFcDey2Q4S3URSzSrbV+28DfjLf649Vq5ZEDz2VFJE/J4mTOeBNyM5uEHaHOuRkzwdq029VKhXEzZVQekB4YxwJxlCrFCsW0tFVLNFJy3tOkBcIH1GKFmvUQVaVgAkuka6LxwbI+HINAWiDDj1aISVjCPeNOJjAanRsPTOtjuNFl1ohH5lQ2EVbIvBTExpQa/dA80WjgWB/2tD6WBTIVWiHD36IecqcN14dLbutjuBbIxFkhMU9yuGUxTQ4/YAyJFqAOk1lO62NiLJB5sUIPjIN4Lym6lWCJPN+dc7odYiBgXXxPfJsn9NFjCyhqzH3ENgJR6wlYoo/M6FyD3wrxoPmiwcC6b2PL0qIskInzI78iuSmGhOhcgy9YvdS1UZ0wq1SS1u9RFsi85Fo4rs1l6eFXmwTtdqle25t8wdpIc0aVgXuQdb+mPCCjLdDzL/I2s4mZ3ROCkzpLnOWzxsnWvFEFMHcUJDfkjLZAAZyn8afCHXy2gp7V/vi/Jvz6EfJGapGEg3uPEo9ps6Mg2QIZvrpFb6nGumjB3E+0jSdYs7m21pVDxFq9lZfUVkDcg7xDc3WRBH7yl5bHdwMxLjTgUBZr7S1jDGb7h3sP4/CKjoiM/C6TxKG9214LuAZixk+O5dXnPdnKAjUw1W6kJVh3gX5ynJopLmuEz5uG8LqFoiOYCVOTyyvKJSBuhcIamV7x7g2+02WLqdsUd7B24cvoxIV0IvpjRFcc7CKLgExcuYzI0PYuUBd32WKsfCuex6krnGvFCWqZnNtX2oSxX4EDumG89VNNWwd866xguhzn+ykFwD3FEc9NzhxeNgtkRtJiKnDtON38W6MWiCbC+8m+hMgqIBO3iDO1BBW2gYfFGYINbcc07kQFtJ/S91s2F64BB8jN8FfbHQfVDHP0TP4TBafUWBglI0FxMIevXTyss1ug5w+mx+U1VBOZ4xAMEJ4wffK9qAXaTuRyobOxpF0KKKbF1BItpgYXvkUU7zQYJBxVMqQCeouke6szAZm4/JAZsog2gagON6ZyG/z71U2hAnpNQu+/LPmencfTpYBM/Ca20YhIiUdi48zsQYRN8AW47a5OEFgQtRFPKU+keAzq3DqP8HYuIBPfHUdFpLwiQTy95Rh7EZB5ERFnGJZRESkNCeK56jNB35uAzG8RTZkTFAxOmHbFGTG49tT80pBr3GO90XkQYRsROSKjUxTGSUIHpc5yPfvo1QI14ItyLZE/gffaf2A84FrfSxePKSUgEy8iow3gxwGucUwX2WLiMaVcuFcHEOfOGWwpONdc0bBAsGAeWf5UVDympAVqwAngRucMTrAGFwZEECyIEc9VafEYCQIyL9G5mCkKR1gXiZhHpKSDa3gfWSN40Xe0bRfFXbgQLB45IyhCdKZPhcBlW0RulX9ChYGYjZiiBGTSG8A/YV206PDQlEygY+g84RqLS2eIcOFCEhvA+wvxj28qodULcvHXBo0//okUzxJV1eJygeIEZF7mEE0iw9wGi9CVro3kgWuySthkeA3LI7JtsjgXbhPmbJdt3PVVkavsBi75LLEtmLgZU5uIF5Bp3wD+GkLSIEOPZBghc1ZFF9saBGTSE20NzQSFmQqpW3Cdpi1aI1eVKK9GQA2Joe4GFVJHZBCOuBA1h+oEZF56LcxbtNtVIWUig3AM1qvnNc5XqlJADQgwXLa4cDocKxE8xM5bCucJ4zKrLRKuWkCm/doo5BpC4jbqGyXoKHSeYWrFIIqCqxdQAy7svMWoxoYlrJJOmQOZ2xivIZxBPKgGI6CGDG5dyA2s0ihLhFByc56jw+oQ3LVtDE5AJt/CNuSpmX3q6/SGaplw3iawNrmmTww6YDNIATV0OGXuLhBT1ZUOSFI3osk9ROwaVmewAZpBC6ih43GNTxvzT0X79hu9uicdzTgavHAaRiGghkyhVw5L7LB8fvXtvsAdO914dTbHaKwpgVEJqAE3VyOktlG7GO7w3sZKNQOGG0ihBcJoOMbLwKKYnue5rgPhjC5qOUoBhcClmWaKNI0JH6GcjT1vNnoBNQRW6bxjV6dmlsi1jdLabEMFtAVEps4RmerTxZPIGhHHue6teosKiCAI847JMjWWpvowfdeogCIISlqaEPBQrNM6CMVrCVMEKqAWICwe5lVqsVDLJm8FK6OV6ImogDIDl+8UoeUJfpayVGuEyW/x80FdsryogHoCwjrckbcx2wYM78FbkNDN2swrPapQesAY83+saZwoUd/PUQAAAABJRU5ErkJggg==;" vertex="1" parent="1">
          <mxGeometry x="120" y="290" width="50" height="50" as="geometry" />
        </mxCell>
        <mxCell id="srN8gHAstGxJ4yh3wAJ1-10" value="" style="shape=image;verticalLabelPosition=bottom;labelBackgroundColor=default;verticalAlign=top;aspect=fixed;imageAspect=0;image=data:image/png,iVBORw0KGgoAAAANSUhEUgAAANAAAADQCAYAAAB2pO90AAAACXBIWXMAAAsSAAALEgHS3X78AAAV4klEQVR4nO2d4VEbSROGZ1z3H74I4CIAR2A5AnMRGCKwHIFxBCcisIjgRASGCEARnBTBQQTz1djvwiAkdc/s7E7Pbj9VKnx1Qqx2993u6e7pts45o8jFWrvtAi2NMY/Bf9/i5wqvR+fcg17W7lEBCWeHgLisIahb/HxQYeVFBSSclgLaxRKi8mK6dc6thn4eu0IFJJyOBLTJGoLyr4Vz7jHu18eLCkg4PQloE2+h5rBO6vLtQQUknEICCvHWaeEFpWJ6iwpIOAIEFNJYprm6eb9RAQlHmIBCbowxM+fcLf9XhocKqDKstYfGmNPgqI/x8kzw80OP38q7eLOxWiUV0EAJhBa+Tjr8tk+BkEYTFlcBjQxr7QSCmuB10MEZuDbGXI5BSCqgkWOtbcR01oHrN3ghqYCUZ+D2NWI6y2SdGtduNsQ1kgpI2Ym11ovo3BjzKcNZeoI1mg3pjKuAFBJYpnO82gYifNTufCjhbxWQEgWCEF5In1ueuRsIqWq3TgWkJGGt9bknL6Rpi7VS9W6dCkhpBdy7aUsh3cEaVRetUwEpWcggJG+Nps65eU1XRAWkZCWDkKpaG6mAlE6AkGaJwQYfqTurYfvEOwHHoAwQb0Gccz7I8B5rnBiOjDH31tqp9DOjAlI6xVsR55wPfX/FOieGv621c1gzkagLp/QGhDBPqGxYwqUTF6VTASm9gxKheWSQwVuvibR1kbpwSu845xbYBBizNvJiu7XWnku6YiogpQgIMjRrIy5eRD8kiUhdOKU42JO0QPSNy5VzrniUTi2QUhysa06RROXyxUfoSh+7CkgRAVw6H1y4ijiez6VFpC6cIg6scX5EHNc1kra9owJSRIJ10W1EqLuIiNSFU0SCddEEdXEcirhzKiBFLEFwYck8Ri+iXjfnqQuniAclQLcR/Rgu+tpXpBZIEQ/2Bk0iLFFvyVa1QEo1RFqiXmrnVEAFQGebpnd12Cz+kHFzhAOGH/DvBwwWHvykhAQRnXZZxa0C6piNXtSnkeUqKayb2acYKjw4UUWKaAlL1MkWcRVQZtDu6QyCydHRMwc3wfzTQfSphogemA+kznJEKqAMQDRTCKdrC9OWZmTjrHYxRSZbv3bRf04FlAiegGcQTpdzd7pkicYf1U7mhojumW9/nzuooAKKBNbmMuP0Agk8wSpVOYokonZujaBCtoeFCogJggFTQeuarqhy9ikqEL4w3nqDqu88f1cFtB8I57LnuaMSuINFqkZI1toF8wGXrVJBBbSDwFVrO4VgF/4GXW28DELPW12MjQHDxxuvrgRezZS5iMhctvyQCmgL1trLls3SN1kjWtTkZjrJjmNBHc4/zRURfIJbd5np8zojIqhwh54M7fAC0tfvF246/1RyGV4LjP84LnV+YaHOcSw5vtMKSUnR9wwefpzvM237t9QCvZj+S+YidB83uFnFhYWDsPtZhkDIFdw6saFva+0tw619wgMu+XuMXkCJHWFCmiG681pCwJmGY4luAI8Hxorx/dpF5cbsvkWY+l3uzPkAzsF5S7e1tRvU4Xc7Y36HZLe06ovf4sQ2PZpHK5wt56SNkPy5PBT6vTjrv1Xy5w/tRmCc0GOEOmNvkschCmfL+TnHd409Pw8lAyZ7vs8h8/skWdJB3wxbTuZp4s0xk/qE7eg8NcOxUh4ypwK/D8dVf0y5xqPZ0o2Kgpg2SQbFlr4AcVr7OPYY0ORwiuFY3G3UJmgA3z6/khFUYVON7A8gtChGISAUG/6MFM9359xpDWMGuwLDsbzV/h7xJ/w5/iltigJTHFNEKPmMwB05T3BDxCcLC5zHSYL7K2rNyAwczWM+c9B5oIQWsXfIbYzGXYsBuZVFZN1dby2mKCJyQ39yc3qDdeHgh8eIx4/L6Gzv/BAIZvrENID/IWVNhGvL2ZXKrvkbpAVK6Kss5ilZC5HWXcx4xtxWaHAWCItArnieVDxp4JxdMCdvN9G5uAV6N8fNtUKsIMigLJDExntDJ9Lad9piigvTCrEKTYdmgWYqnn4JpihwLNEJ8+nfKUwrdMCxQoOxQNZaH+f/m/FWFU8HSGgxFQPTCq2dc3vdzkFYIFw8jngMap5UPJnBOeVm8v/GNSt5vBwrdERFEKsXUJCb4KABgw4JAgscFrh2JeHcC3sfCkOwQJfMzXBXKp7uwTnm5ImOYvItXYAw9TXx0Z/2Cb3qNRDM60/GW/M0kFDYMLdUez6WbJ3FvId2rtlqF9CK2cKo1b53JZ6IhCW5UO8aa+0DEb1doqj2DdW6cGg9xXHdtLatADjnnF4DR7iWJaFc+5NdQY8qBRRMQ6D4PoahU1LBuedshYjfRpAXztp4a06oShcO48ypjqE7za7SLwwXyXQ5w4cDoy3wVlezOguERR+n3a60DV1jhnMtPheu2qas0NE2N65GF47jL19pslQOuBac0HaxtZBzbsEoR3oj8KpcOGbIUaNuAomIyhULazOWBm+WBbVZINa+9iGJx1rr8Hr0uRXvq/uolbX2TEAmnw2uCev6FTxMqqLlZPOcV2OBEKX5l3hb8ZxCbrx4iI9cwn+vYoAwM3fH3lKdE4jjP+IjX5WD1WSBOP6x+PEbHXCCQtp/vQsiraXUFsReR1hJqv3Vq/NbhQXKVXpeIwwLtI07yVXnDCtUbB3L2Bbz6j6rxQJxBvqO0frswteg3fu5oULXSdS1OmBWMXQBFcA4CpO+tVggKhH35JyrZkEdQ6IFChE5hsQHRYiHYrFEOOPYntdB4i0Q1E5lsYtvExbMEayRtMQydc1OCpb3UFboWdg1uHCcsKbu86H5gVHwUmi9ma1DKAE9BxJqEBDlC9/UMhkuBeecd7MtGr3/heJMKlK0iy9IFkr4XiuMxNxHqXUQ5e6+eETC+zEf19Z/ucdzc4gndMpQrJmQ78DpW15k5hDjuH6NcZFugThPIG4/hEGBNrszhFQvECzg8kXImohz7UpZIWqsy691kHQBUUnBG615+92HAEKKGUPyQ0hnHMqNK5UYpty4XwEO6QKixrGP0vrswjl3ibUSp8mhEdIZh7qGbUfyp0IJ6JewxQqIWZKiu003QL7nmDlZrnhnHM41LFSeVL0FotyL5ZCjb22AazRhiuhLSVcO15Bav5U4PkpAv0qRJAuIeurohrk9BCLiuHOl80PsvEtfcNbW/sFTswVS940gEBHFh8JV3OzMf89Q+bZDyQKi9oyoBWKANREnOlcyrM1ylwRyLFJAnKeh9jzgg+gctc74XKr2jHMtC1lIyjLKFBCy7PtILWUZM5xoW6mkpeG4Sz0dRxRSBUT5vBp9iwTl95QVKunGUde0xDqIOqbJHz0dSCzU02bQAkJYedMaLDK4rTNit+WvphmFqjuoa1rCApH3mVQBjdICQTjzHfufvllrlyieTRXSnDGI7LRQhFOiBSKptbn84ASE4s57YvPgSZvNcSlNM3qkxmsqNow9yO3Zu4Dl+RHxK20KQaXmXChK3BPkviCpAqK2cA8thJ2yyS11Yxx17ko9vPib2HqCsxas0oUbWOfR08SbY+fMGgKRa41ar+kgpnRXTpvcS/TvMgIQnDH1ClABlWdU672h8QfVdwwNLRRGjzY9V+2o8fypBSrP6Lek14wKKI69e2sSF/VttqVH/y7jGLnbwUePqXjIsNRQa3Q1Mxb1nJ2jmywTKxKoY9Qq9whIARW6WVkthQpAuVupx5VSWZBa+Ekdo7qUgHPvvxN6s0q9iKxOLbHAklxE/NpFi3o43SrPh+zL8a7SJ06ppuPUzfUh1WJju8F74oHm/9/7cEJaDDi2D8SvqID4PEqtxn4gLrTUrv0GrlVSkw5YldON7QyHeMjl2M7Acfu010QEHAGVuFkpq1hq6/EjthTsK72Ztu1yA6F0YQmoaQdL7fT6CvI+e8fZ953/uEiyR7syQrlPRwJn8TTbJajmHDom5jXUfXYrNYxNPQUpP75LOLkXieMmOcekrZIjecfZ9933QTnnOO1eS1UN+/N1TbzNWyExIsKxUNbnWju9voG691ccAZVCYrvXBo6r86309APz8qD5xnirum/xrDhh7FLuUic5lxzAQnJaa92WnH6Av82Jqt1xrP4Ioe79x3fMpnYlbgJx/ZI34MzvPCglokA8nP09pWaRioVzzbx2miBCld3xC05xbkLNV4y3nvQtokA8nJ2uV9rldSvUPf9LM42AxG3zZboUpa0Qp2WuwY286mNNhL+xYopnLTRiKAFWa7VGQFI7tUid4vwLJB25x3CAllSd3bD47PuIbdlnmjjdCWs6iFgLBChhfyo9ojChENRH51Y5k63+s/xnMqNtDW0KUscAr7knRnqfUmO9C40ar2bMPcp3YsfNr7CAP0z4e9WPuZf84o65t3gzud/fGPOxRKgTT9Z9SUA/qbuoK9dgrfW5lM+Jv34Hi+utwmrTOmBtc4yH3aRFesEnTMWVGkkCo1R+7juk5/4NwRPtgVDcVPCT/VjK0yzREvX1UsvDu4ZT4no8NO8Na+Gk5l04lc1inqjOuWnkmqgvLnBsCg11rz9rJRSQyMw/6rOoXbOiboxgcxwnxN016zab8EYKe9dujAU6KFjbRVmhA2lbCJrNccxka1dcYbGr0TYmuMepNMBbC8Sc11/KjVsw2i2JSwj6HAvcpvc9j6W8g9WZap4nGuoeX4dV65v7gSgrVCTahZuA2qsiciObgTVyzvkL85GxFaIN14iWTtTqJEPd46808hzGNi+7Fqk5Nf8r8VRD3du/xNv806HkblUW+C5nCH60HduxxFaEhe7naQeS8v8RH3IRric3BcT5gL+cc0V2Llpr/d/9RLztoqYFM875BOulUyRIt/nhT1i8PuLnLcKp6qJlwlrrH2r/EJ/2yoC8EpD5/SEPxFOxWCKOk+DCjXasN5YSCyMR7puuvAqkbeuJQD29i2X9mRvZDrTCWEmEurffaGObgDjh7JKlMxxxfJGwnVqpB9zT7PB1wxsBIXpDhbOLRbtghTiRLE0cKjFQ9/R6W2RzV1srKkhQehvBJSMvdCKpM44iF9zLVHBqqyZ2CYjz9C65Floxa+S+IfCgKPvgeFRbNfEmCvf8P+ho3JuIRN8wtjoYjcopFG3u9X2dSSkrdCLg6c55chxox01lF7iHqWT2Ti20EZApvY0AAQVOsaYfO9Kq4bsyWJLdN7PPhTP8zP+fJUtIsAB8YLhyprYqBaVbmOVhe3c8U83lxW9mi+yM80NqwalSBM69sFcDey2Q4S3URSzSrbV+28DfjLf649Vq5ZEDz2VFJE/J4mTOeBNyM5uEHaHOuRkzwdq029VKhXEzZVQekB4YxwJxlCrFCsW0tFVLNFJy3tOkBcIH1GKFmvUQVaVgAkuka6LxwbI+HINAWiDDj1aISVjCPeNOJjAanRsPTOtjuNFl1ohH5lQ2EVbIvBTExpQa/dA80WjgWB/2tD6WBTIVWiHD36IecqcN14dLbutjuBbIxFkhMU9yuGUxTQ4/YAyJFqAOk1lO62NiLJB5sUIPjIN4Lym6lWCJPN+dc7odYiBgXXxPfJsn9NFjCyhqzH3ENgJR6wlYoo/M6FyD3wrxoPmiwcC6b2PL0qIskInzI78iuSmGhOhcgy9YvdS1UZ0wq1SS1u9RFsi85Fo4rs1l6eFXmwTtdqle25t8wdpIc0aVgXuQdb+mPCCjLdDzL/I2s4mZ3ROCkzpLnOWzxsnWvFEFMHcUJDfkjLZAAZyn8afCHXy2gp7V/vi/Jvz6EfJGapGEg3uPEo9ps6Mg2QIZvrpFb6nGumjB3E+0jSdYs7m21pVDxFq9lZfUVkDcg7xDc3WRBH7yl5bHdwMxLjTgUBZr7S1jDGb7h3sP4/CKjoiM/C6TxKG9214LuAZixk+O5dXnPdnKAjUw1W6kJVh3gX5ynJopLmuEz5uG8LqFoiOYCVOTyyvKJSBuhcIamV7x7g2+02WLqdsUd7B24cvoxIV0IvpjRFcc7CKLgExcuYzI0PYuUBd32WKsfCuex6krnGvFCWqZnNtX2oSxX4EDumG89VNNWwd866xguhzn+ykFwD3FEc9NzhxeNgtkRtJiKnDtON38W6MWiCbC+8m+hMgqIBO3iDO1BBW2gYfFGYINbcc07kQFtJ/S91s2F64BB8jN8FfbHQfVDHP0TP4TBafUWBglI0FxMIevXTyss1ug5w+mx+U1VBOZ4xAMEJ4wffK9qAXaTuRyobOxpF0KKKbF1BItpgYXvkUU7zQYJBxVMqQCeouke6szAZm4/JAZsog2gagON6ZyG/z71U2hAnpNQu+/LPmencfTpYBM/Ca20YhIiUdi48zsQYRN8AW47a5OEFgQtRFPKU+keAzq3DqP8HYuIBPfHUdFpLwiQTy95Rh7EZB5ERFnGJZRESkNCeK56jNB35uAzG8RTZkTFAxOmHbFGTG49tT80pBr3GO90XkQYRsROSKjUxTGSUIHpc5yPfvo1QI14ItyLZE/gffaf2A84FrfSxePKSUgEy8iow3gxwGucUwX2WLiMaVcuFcHEOfOGWwpONdc0bBAsGAeWf5UVDympAVqwAngRucMTrAGFwZEECyIEc9VafEYCQIyL9G5mCkKR1gXiZhHpKSDa3gfWSN40Xe0bRfFXbgQLB45IyhCdKZPhcBlW0RulX9ChYGYjZiiBGTSG8A/YV206PDQlEygY+g84RqLS2eIcOFCEhvA+wvxj28qodULcvHXBo0//okUzxJV1eJygeIEZF7mEE0iw9wGi9CVro3kgWuySthkeA3LI7JtsjgXbhPmbJdt3PVVkavsBi75LLEtmLgZU5uIF5Bp3wD+GkLSIEOPZBghc1ZFF9saBGTSE20NzQSFmQqpW3Cdpi1aI1eVKK9GQA2Joe4GFVJHZBCOuBA1h+oEZF56LcxbtNtVIWUig3AM1qvnNc5XqlJADQgwXLa4cDocKxE8xM5bCucJ4zKrLRKuWkCm/doo5BpC4jbqGyXoKHSeYWrFIIqCqxdQAy7svMWoxoYlrJJOmQOZ2xivIZxBPKgGI6CGDG5dyA2s0ihLhFByc56jw+oQ3LVtDE5AJt/CNuSpmX3q6/SGaplw3iawNrmmTww6YDNIATV0OGXuLhBT1ZUOSFI3osk9ROwaVmewAZpBC6ih43GNTxvzT0X79hu9uicdzTgavHAaRiGghkyhVw5L7LB8fvXtvsAdO914dTbHaKwpgVEJqAE3VyOktlG7GO7w3sZKNQOGG0ihBcJoOMbLwKKYnue5rgPhjC5qOUoBhcClmWaKNI0JH6GcjT1vNnoBNQRW6bxjV6dmlsi1jdLabEMFtAVEps4RmerTxZPIGhHHue6teosKiCAI847JMjWWpvowfdeogCIISlqaEPBQrNM6CMVrCVMEKqAWICwe5lVqsVDLJm8FK6OV6ImogDIDl+8UoeUJfpayVGuEyW/x80FdsryogHoCwjrckbcx2wYM78FbkNDN2swrPapQesAY83+saZwoUd/PUQAAAABJRU5ErkJggg==;" vertex="1" parent="1">
          <mxGeometry x="-20" y="350" width="50" height="50" as="geometry" />
        </mxCell>
        <mxCell id="srN8gHAstGxJ4yh3wAJ1-11" value="" style="shape=image;verticalLabelPosition=bottom;labelBackgroundColor=default;verticalAlign=top;aspect=fixed;imageAspect=0;image=data:image/png,iVBORw0KGgoAAAANSUhEUgAAANAAAADQCAYAAAB2pO90AAAACXBIWXMAAAsSAAALEgHS3X78AAAV4klEQVR4nO2d4VEbSROGZ1z3H74I4CIAR2A5AnMRGCKwHIFxBCcisIjgRASGCEARnBTBQQTz1djvwiAkdc/s7E7Pbj9VKnx1Qqx2993u6e7pts45o8jFWrvtAi2NMY/Bf9/i5wqvR+fcg17W7lEBCWeHgLisIahb/HxQYeVFBSSclgLaxRKi8mK6dc6thn4eu0IFJJyOBLTJGoLyr4Vz7jHu18eLCkg4PQloE2+h5rBO6vLtQQUknEICCvHWaeEFpWJ6iwpIOAIEFNJYprm6eb9RAQlHmIBCbowxM+fcLf9XhocKqDKstYfGmNPgqI/x8kzw80OP38q7eLOxWiUV0EAJhBa+Tjr8tk+BkEYTFlcBjQxr7QSCmuB10MEZuDbGXI5BSCqgkWOtbcR01oHrN3ghqYCUZ+D2NWI6y2SdGtduNsQ1kgpI2Ym11ovo3BjzKcNZeoI1mg3pjKuAFBJYpnO82gYifNTufCjhbxWQEgWCEF5In1ueuRsIqWq3TgWkJGGt9bknL6Rpi7VS9W6dCkhpBdy7aUsh3cEaVRetUwEpWcggJG+Nps65eU1XRAWkZCWDkKpaG6mAlE6AkGaJwQYfqTurYfvEOwHHoAwQb0Gccz7I8B5rnBiOjDH31tqp9DOjAlI6xVsR55wPfX/FOieGv621c1gzkagLp/QGhDBPqGxYwqUTF6VTASm9gxKheWSQwVuvibR1kbpwSu845xbYBBizNvJiu7XWnku6YiogpQgIMjRrIy5eRD8kiUhdOKU42JO0QPSNy5VzrniUTi2QUhysa06RROXyxUfoSh+7CkgRAVw6H1y4ijiez6VFpC6cIg6scX5EHNc1kra9owJSRIJ10W1EqLuIiNSFU0SCddEEdXEcirhzKiBFLEFwYck8Ri+iXjfnqQuniAclQLcR/Rgu+tpXpBZIEQ/2Bk0iLFFvyVa1QEo1RFqiXmrnVEAFQGebpnd12Cz+kHFzhAOGH/DvBwwWHvykhAQRnXZZxa0C6piNXtSnkeUqKayb2acYKjw4UUWKaAlL1MkWcRVQZtDu6QyCydHRMwc3wfzTQfSphogemA+kznJEKqAMQDRTCKdrC9OWZmTjrHYxRSZbv3bRf04FlAiegGcQTpdzd7pkicYf1U7mhojumW9/nzuooAKKBNbmMuP0Agk8wSpVOYokonZujaBCtoeFCogJggFTQeuarqhy9ikqEL4w3nqDqu88f1cFtB8I57LnuaMSuINFqkZI1toF8wGXrVJBBbSDwFVrO4VgF/4GXW28DELPW12MjQHDxxuvrgRezZS5iMhctvyQCmgL1trLls3SN1kjWtTkZjrJjmNBHc4/zRURfIJbd5np8zojIqhwh54M7fAC0tfvF246/1RyGV4LjP84LnV+YaHOcSw5vtMKSUnR9wwefpzvM237t9QCvZj+S+YidB83uFnFhYWDsPtZhkDIFdw6saFva+0tw619wgMu+XuMXkCJHWFCmiG681pCwJmGY4luAI8Hxorx/dpF5cbsvkWY+l3uzPkAzsF5S7e1tRvU4Xc7Y36HZLe06ovf4sQ2PZpHK5wt56SNkPy5PBT6vTjrv1Xy5w/tRmCc0GOEOmNvkschCmfL+TnHd409Pw8lAyZ7vs8h8/skWdJB3wxbTuZp4s0xk/qE7eg8NcOxUh4ypwK/D8dVf0y5xqPZ0o2Kgpg2SQbFlr4AcVr7OPYY0ORwiuFY3G3UJmgA3z6/khFUYVON7A8gtChGISAUG/6MFM9359xpDWMGuwLDsbzV/h7xJ/w5/iltigJTHFNEKPmMwB05T3BDxCcLC5zHSYL7K2rNyAwczWM+c9B5oIQWsXfIbYzGXYsBuZVFZN1dby2mKCJyQ39yc3qDdeHgh8eIx4/L6Gzv/BAIZvrENID/IWVNhGvL2ZXKrvkbpAVK6Kss5ilZC5HWXcx4xtxWaHAWCItArnieVDxp4JxdMCdvN9G5uAV6N8fNtUKsIMigLJDExntDJ9Lad9piigvTCrEKTYdmgWYqnn4JpihwLNEJ8+nfKUwrdMCxQoOxQNZaH+f/m/FWFU8HSGgxFQPTCq2dc3vdzkFYIFw8jngMap5UPJnBOeVm8v/GNSt5vBwrdERFEKsXUJCb4KABgw4JAgscFrh2JeHcC3sfCkOwQJfMzXBXKp7uwTnm5ImOYvItXYAw9TXx0Z/2Cb3qNRDM60/GW/M0kFDYMLdUez6WbJ3FvId2rtlqF9CK2cKo1b53JZ6IhCW5UO8aa+0DEb1doqj2DdW6cGg9xXHdtLatADjnnF4DR7iWJaFc+5NdQY8qBRRMQ6D4PoahU1LBuedshYjfRpAXztp4a06oShcO48ypjqE7za7SLwwXyXQ5w4cDoy3wVlezOguERR+n3a60DV1jhnMtPheu2qas0NE2N65GF47jL19pslQOuBac0HaxtZBzbsEoR3oj8KpcOGbIUaNuAomIyhULazOWBm+WBbVZINa+9iGJx1rr8Hr0uRXvq/uolbX2TEAmnw2uCev6FTxMqqLlZPOcV2OBEKX5l3hb8ZxCbrx4iI9cwn+vYoAwM3fH3lKdE4jjP+IjX5WD1WSBOP6x+PEbHXCCQtp/vQsiraXUFsReR1hJqv3Vq/NbhQXKVXpeIwwLtI07yVXnDCtUbB3L2Bbz6j6rxQJxBvqO0frswteg3fu5oULXSdS1OmBWMXQBFcA4CpO+tVggKhH35JyrZkEdQ6IFChE5hsQHRYiHYrFEOOPYntdB4i0Q1E5lsYtvExbMEayRtMQydc1OCpb3UFboWdg1uHCcsKbu86H5gVHwUmi9ma1DKAE9BxJqEBDlC9/UMhkuBeecd7MtGr3/heJMKlK0iy9IFkr4XiuMxNxHqXUQ5e6+eETC+zEf19Z/ucdzc4gndMpQrJmQ78DpW15k5hDjuH6NcZFugThPIG4/hEGBNrszhFQvECzg8kXImohz7UpZIWqsy691kHQBUUnBG615+92HAEKKGUPyQ0hnHMqNK5UYpty4XwEO6QKixrGP0vrswjl3ibUSp8mhEdIZh7qGbUfyp0IJ6JewxQqIWZKiu003QL7nmDlZrnhnHM41LFSeVL0FotyL5ZCjb22AazRhiuhLSVcO15Bav5U4PkpAv0qRJAuIeurohrk9BCLiuHOl80PsvEtfcNbW/sFTswVS940gEBHFh8JV3OzMf89Q+bZDyQKi9oyoBWKANREnOlcyrM1ylwRyLFJAnKeh9jzgg+gctc74XKr2jHMtC1lIyjLKFBCy7PtILWUZM5xoW6mkpeG4Sz0dRxRSBUT5vBp9iwTl95QVKunGUde0xDqIOqbJHz0dSCzU02bQAkJYedMaLDK4rTNit+WvphmFqjuoa1rCApH3mVQBjdICQTjzHfufvllrlyieTRXSnDGI7LRQhFOiBSKptbn84ASE4s57YvPgSZvNcSlNM3qkxmsqNow9yO3Zu4Dl+RHxK20KQaXmXChK3BPkviCpAqK2cA8thJ2yyS11Yxx17ko9vPib2HqCsxas0oUbWOfR08SbY+fMGgKRa41ar+kgpnRXTpvcS/TvMgIQnDH1ClABlWdU672h8QfVdwwNLRRGjzY9V+2o8fypBSrP6Lek14wKKI69e2sSF/VttqVH/y7jGLnbwUePqXjIsNRQa3Q1Mxb1nJ2jmywTKxKoY9Qq9whIARW6WVkthQpAuVupx5VSWZBa+Ekdo7qUgHPvvxN6s0q9iKxOLbHAklxE/NpFi3o43SrPh+zL8a7SJ06ppuPUzfUh1WJju8F74oHm/9/7cEJaDDi2D8SvqID4PEqtxn4gLrTUrv0GrlVSkw5YldON7QyHeMjl2M7Acfu010QEHAGVuFkpq1hq6/EjthTsK72Ztu1yA6F0YQmoaQdL7fT6CvI+e8fZ953/uEiyR7syQrlPRwJn8TTbJajmHDom5jXUfXYrNYxNPQUpP75LOLkXieMmOcekrZIjecfZ9933QTnnOO1eS1UN+/N1TbzNWyExIsKxUNbnWju9voG691ccAZVCYrvXBo6r86309APz8qD5xnirum/xrDhh7FLuUic5lxzAQnJaa92WnH6Av82Jqt1xrP4Ioe79x3fMpnYlbgJx/ZI34MzvPCglokA8nP09pWaRioVzzbx2miBCld3xC05xbkLNV4y3nvQtokA8nJ2uV9rldSvUPf9LM42AxG3zZboUpa0Qp2WuwY286mNNhL+xYopnLTRiKAFWa7VGQFI7tUid4vwLJB25x3CAllSd3bD47PuIbdlnmjjdCWs6iFgLBChhfyo9ojChENRH51Y5k63+s/xnMqNtDW0KUscAr7knRnqfUmO9C40ar2bMPcp3YsfNr7CAP0z4e9WPuZf84o65t3gzud/fGPOxRKgTT9Z9SUA/qbuoK9dgrfW5lM+Jv34Hi+utwmrTOmBtc4yH3aRFesEnTMWVGkkCo1R+7juk5/4NwRPtgVDcVPCT/VjK0yzREvX1UsvDu4ZT4no8NO8Na+Gk5l04lc1inqjOuWnkmqgvLnBsCg11rz9rJRSQyMw/6rOoXbOiboxgcxwnxN016zab8EYKe9dujAU6KFjbRVmhA2lbCJrNccxka1dcYbGr0TYmuMepNMBbC8Sc11/KjVsw2i2JSwj6HAvcpvc9j6W8g9WZap4nGuoeX4dV65v7gSgrVCTahZuA2qsiciObgTVyzvkL85GxFaIN14iWTtTqJEPd46808hzGNi+7Fqk5Nf8r8VRD3du/xNv806HkblUW+C5nCH60HduxxFaEhe7naQeS8v8RH3IRric3BcT5gL+cc0V2Llpr/d/9RLztoqYFM875BOulUyRIt/nhT1i8PuLnLcKp6qJlwlrrH2r/EJ/2yoC8EpD5/SEPxFOxWCKOk+DCjXasN5YSCyMR7puuvAqkbeuJQD29i2X9mRvZDrTCWEmEurffaGObgDjh7JKlMxxxfJGwnVqpB9zT7PB1wxsBIXpDhbOLRbtghTiRLE0cKjFQ9/R6W2RzV1srKkhQehvBJSMvdCKpM44iF9zLVHBqqyZ2CYjz9C65Floxa+S+IfCgKPvgeFRbNfEmCvf8P+ho3JuIRN8wtjoYjcopFG3u9X2dSSkrdCLg6c55chxox01lF7iHqWT2Ti20EZApvY0AAQVOsaYfO9Kq4bsyWJLdN7PPhTP8zP+fJUtIsAB8YLhyprYqBaVbmOVhe3c8U83lxW9mi+yM80NqwalSBM69sFcDey2Q4S3URSzSrbV+28DfjLf649Vq5ZEDz2VFJE/J4mTOeBNyM5uEHaHOuRkzwdq029VKhXEzZVQekB4YxwJxlCrFCsW0tFVLNFJy3tOkBcIH1GKFmvUQVaVgAkuka6LxwbI+HINAWiDDj1aISVjCPeNOJjAanRsPTOtjuNFl1ohH5lQ2EVbIvBTExpQa/dA80WjgWB/2tD6WBTIVWiHD36IecqcN14dLbutjuBbIxFkhMU9yuGUxTQ4/YAyJFqAOk1lO62NiLJB5sUIPjIN4Lym6lWCJPN+dc7odYiBgXXxPfJsn9NFjCyhqzH3ENgJR6wlYoo/M6FyD3wrxoPmiwcC6b2PL0qIskInzI78iuSmGhOhcgy9YvdS1UZ0wq1SS1u9RFsi85Fo4rs1l6eFXmwTtdqle25t8wdpIc0aVgXuQdb+mPCCjLdDzL/I2s4mZ3ROCkzpLnOWzxsnWvFEFMHcUJDfkjLZAAZyn8afCHXy2gp7V/vi/Jvz6EfJGapGEg3uPEo9ps6Mg2QIZvrpFb6nGumjB3E+0jSdYs7m21pVDxFq9lZfUVkDcg7xDc3WRBH7yl5bHdwMxLjTgUBZr7S1jDGb7h3sP4/CKjoiM/C6TxKG9214LuAZixk+O5dXnPdnKAjUw1W6kJVh3gX5ynJopLmuEz5uG8LqFoiOYCVOTyyvKJSBuhcIamV7x7g2+02WLqdsUd7B24cvoxIV0IvpjRFcc7CKLgExcuYzI0PYuUBd32WKsfCuex6krnGvFCWqZnNtX2oSxX4EDumG89VNNWwd866xguhzn+ykFwD3FEc9NzhxeNgtkRtJiKnDtON38W6MWiCbC+8m+hMgqIBO3iDO1BBW2gYfFGYINbcc07kQFtJ/S91s2F64BB8jN8FfbHQfVDHP0TP4TBafUWBglI0FxMIevXTyss1ug5w+mx+U1VBOZ4xAMEJ4wffK9qAXaTuRyobOxpF0KKKbF1BItpgYXvkUU7zQYJBxVMqQCeouke6szAZm4/JAZsog2gagON6ZyG/z71U2hAnpNQu+/LPmencfTpYBM/Ca20YhIiUdi48zsQYRN8AW47a5OEFgQtRFPKU+keAzq3DqP8HYuIBPfHUdFpLwiQTy95Rh7EZB5ERFnGJZRESkNCeK56jNB35uAzG8RTZkTFAxOmHbFGTG49tT80pBr3GO90XkQYRsROSKjUxTGSUIHpc5yPfvo1QI14ItyLZE/gffaf2A84FrfSxePKSUgEy8iow3gxwGucUwX2WLiMaVcuFcHEOfOGWwpONdc0bBAsGAeWf5UVDympAVqwAngRucMTrAGFwZEECyIEc9VafEYCQIyL9G5mCkKR1gXiZhHpKSDa3gfWSN40Xe0bRfFXbgQLB45IyhCdKZPhcBlW0RulX9ChYGYjZiiBGTSG8A/YV206PDQlEygY+g84RqLS2eIcOFCEhvA+wvxj28qodULcvHXBo0//okUzxJV1eJygeIEZF7mEE0iw9wGi9CVro3kgWuySthkeA3LI7JtsjgXbhPmbJdt3PVVkavsBi75LLEtmLgZU5uIF5Bp3wD+GkLSIEOPZBghc1ZFF9saBGTSE20NzQSFmQqpW3Cdpi1aI1eVKK9GQA2Joe4GFVJHZBCOuBA1h+oEZF56LcxbtNtVIWUig3AM1qvnNc5XqlJADQgwXLa4cDocKxE8xM5bCucJ4zKrLRKuWkCm/doo5BpC4jbqGyXoKHSeYWrFIIqCqxdQAy7svMWoxoYlrJJOmQOZ2xivIZxBPKgGI6CGDG5dyA2s0ihLhFByc56jw+oQ3LVtDE5AJt/CNuSpmX3q6/SGaplw3iawNrmmTww6YDNIATV0OGXuLhBT1ZUOSFI3osk9ROwaVmewAZpBC6ih43GNTxvzT0X79hu9uicdzTgavHAaRiGghkyhVw5L7LB8fvXtvsAdO914dTbHaKwpgVEJqAE3VyOktlG7GO7w3sZKNQOGG0ihBcJoOMbLwKKYnue5rgPhjC5qOUoBhcClmWaKNI0JH6GcjT1vNnoBNQRW6bxjV6dmlsi1jdLabEMFtAVEps4RmerTxZPIGhHHue6teosKiCAI847JMjWWpvowfdeogCIISlqaEPBQrNM6CMVrCVMEKqAWICwe5lVqsVDLJm8FK6OV6ImogDIDl+8UoeUJfpayVGuEyW/x80FdsryogHoCwjrckbcx2wYM78FbkNDN2swrPapQesAY83+saZwoUd/PUQAAAABJRU5ErkJggg==;" vertex="1" parent="1">
          <mxGeometry x="50" y="350" width="50" height="50" as="geometry" />
        </mxCell>
        <mxCell id="srN8gHAstGxJ4yh3wAJ1-12" value="" style="endArrow=none;html=1;rounded=0;strokeWidth=2;exitX=0.5;exitY=0;exitDx=0;exitDy=0;strokeColor=#000000;" edge="1" parent="1" source="srN8gHAstGxJ4yh3wAJ1-7" target="srN8gHAstGxJ4yh3wAJ1-1">
          <mxGeometry width="50" height="50" relative="1" as="geometry">
            <mxPoint x="414" y="470" as="sourcePoint" />
            <mxPoint x="414" y="320" as="targetPoint" />
          </mxGeometry>
        </mxCell>
        <mxCell id="srN8gHAstGxJ4yh3wAJ1-15" value="&lt;span style=&quot;color: rgb(0, 0, 0); font-family: &amp;quot;Clear Sans Display&amp;quot;; font-size: 20px; font-style: normal; font-variant-ligatures: normal; font-variant-caps: normal; letter-spacing: normal; orphans: 2; text-align: left; text-indent: 0px; text-transform: none; widows: 2; word-spacing: 0px; -webkit-text-stroke-width: 0px; white-space: normal; text-decoration-thickness: initial; text-decoration-style: initial; text-decoration-color: initial; float: none; display: inline !important;&quot;&gt;&lt;b&gt;Key Feature 1 -&amp;nbsp;&lt;/b&gt;&lt;/span&gt;&lt;span style=&quot;color: rgb(0, 0, 0); font-family: &amp;quot;Clear Sans Display&amp;quot;; font-size: 20px; font-style: normal; font-variant-ligatures: normal; font-variant-caps: normal; font-weight: 400; letter-spacing: normal; orphans: 2; text-align: left; text-indent: 0px; text-transform: none; widows: 2; word-spacing: 0px; -webkit-text-stroke-width: 0px; white-space: normal; text-decoration-thickness: initial; text-decoration-style: initial; text-decoration-color: initial; float: none; display: inline !important;&quot;&gt;&amp;nbsp;One real account can hold the funds of many virtual accounts.&lt;/span&gt;" style="text;whiteSpace=wrap;html=1;labelBackgroundColor=none;" vertex="1" parent="1">
          <mxGeometry x="-120" y="40" width="402.5" height="50" as="geometry" />
        </mxCell>
        <mxCell id="srN8gHAstGxJ4yh3wAJ1-21" value="&lt;font style=&quot;font-size: 19px;&quot;&gt;...&lt;/font&gt;" style="text;html=1;align=center;verticalAlign=middle;whiteSpace=wrap;rounded=0;fontColor=#000000;fontStyle=1" vertex="1" parent="1">
          <mxGeometry x="127.5" y="360" width="35" height="30" as="geometry" />
        </mxCell>
        <mxCell id="srN8gHAstGxJ4yh3wAJ1-22" value="&lt;span style=&quot;color: rgb(0, 0, 0); font-family: &amp;quot;Clear Sans Display&amp;quot;; font-size: 20px; font-style: normal; font-variant-ligatures: normal; font-variant-caps: normal; font-weight: 400; letter-spacing: normal; orphans: 2; text-align: left; text-indent: 0px; text-transform: none; widows: 2; word-spacing: 0px; -webkit-text-stroke-width: 0px; white-space: normal; text-decoration-thickness: initial; text-decoration-style: initial; text-decoration-color: initial; float: none; display: inline !important;&quot;&gt;One real account&lt;/span&gt;" style="text;whiteSpace=wrap;html=1;labelBackgroundColor=none;" vertex="1" parent="1">
          <mxGeometry x="-5" y="130" width="160" height="30" as="geometry" />
        </mxCell>
        <mxCell id="srN8gHAstGxJ4yh3wAJ1-23" value="&lt;span style=&quot;color: rgb(0, 0, 0); font-family: &amp;quot;Clear Sans Display&amp;quot;; font-size: 20px; font-style: normal; font-variant-ligatures: normal; font-variant-caps: normal; font-weight: 400; letter-spacing: normal; orphans: 2; text-indent: 0px; text-transform: none; widows: 2; word-spacing: 0px; -webkit-text-stroke-width: 0px; white-space: normal; text-decoration-thickness: initial; text-decoration-style: initial; text-decoration-color: initial; float: none; display: inline !important;&quot;&gt;Many (2 million+) virtual accounts&amp;nbsp;&lt;/span&gt;" style="text;whiteSpace=wrap;html=1;align=center;labelBackgroundColor=none;" vertex="1" parent="1">
          <mxGeometry x="-85" y="430" width="320" height="60" as="geometry" />
        </mxCell>
        <mxCell id="srN8gHAstGxJ4yh3wAJ1-24" value="&lt;div style=&quot;font-size: 20px;&quot;&gt;&lt;p style=&quot;margin: 0px; text-indent: 0px; direction: ltr; font-size: 20px;&quot;&gt;&lt;font style=&quot;font-size: 20px; color: rgb(0, 0, 0); direction: ltr; letter-spacing: 0px; line-height: 120%; opacity: 1;&quot;&gt;&lt;br style=&quot;font-size: 20px;&quot;&gt;&lt;/font&gt;&lt;/p&gt;&lt;/div&gt;" style="verticalAlign=top;align=left;vsdxID=25;fillColor=#f8f8f8;gradientColor=none;shape=stencil(nZBLDoAgDERP0z3SIyjew0SURgSD+Lu9kMZoXLhwN9O+tukAlrNpJg1SzDH4QW/URgNYgZTkjA4UkwJUgGXng+6DX1zLfmoymdXo17xh5zmRJ6Q42BWCfc2oJfdAr+Yv+AP9Cb7OJ3H/2JG1HNGz/84klThPVCc=);strokeColor=#bfbfbf;strokeWidth=3;points=[[0.5,1,0],[1,0.5,0],[0.5,0,0],[0,0.5,0],[0.5,0.5,0]];labelBackgroundColor=none;rounded=0;html=1;whiteSpace=wrap;fontFamily=Clear Sans Text;fontStyle=0;spacingLeft=7;fontSize=20;movable=1;resizable=1;rotatable=1;deletable=1;editable=1;locked=0;connectable=1;" vertex="1" parent="1">
          <mxGeometry x="340" y="110" width="430" height="388" as="geometry" />
        </mxCell>
        <mxCell id="srN8gHAstGxJ4yh3wAJ1-25" value="" style="rounded=1;whiteSpace=wrap;html=1;strokeWidth=2;fillColor=none;dashed=1;dashPattern=8 8;movable=1;resizable=1;rotatable=1;deletable=1;editable=1;locked=0;connectable=1;strokeColor=#000000;" vertex="1" parent="1">
          <mxGeometry x="410" y="290" width="290" height="120" as="geometry" />
        </mxCell>
        <mxCell id="srN8gHAstGxJ4yh3wAJ1-26" value="" style="shape=image;verticalLabelPosition=bottom;labelBackgroundColor=default;verticalAlign=top;aspect=fixed;imageAspect=0;image=data:image/png,iVBORw0KGgoAAAANSUhEUgAAANAAAADOCAYAAABPeIyfAAAACXBIWXMAAAsSAAALEgHS3X78AAAHVElEQVR4nO3d61EbSRiF4a9d+99kgDNAjsBsBMtGYJEBm4EdgZ2BIYKFCAwRWM4AMlhH0FsNbRU3qWfmzKUv71OlH8syQtPTR31mdLHz3hvy4Zw7MLOVmR0/e1DXZrbx3v/H4coHAcpADM2JmZ2Z2VHiEf00s69mdkmYlkeAFuacW8dAvO35SH6FwHnvz6sblIIQoIXEVSdM/r/ER3BlZmtWo2UQoAU458I5zqWZHY701+9CBfTeb4oaiAq8aX0A5uacC+c5P0YMj8X7+hHvGzNiBZrJiJUthUo3IwI0gwkqWwqVbiYEaGKxVn0Z8Fdu4ms/Fl8T+jDgPv7x3n9dbOcbQIAmIlS2q3h5+vbxD51z7+Ll7iH3R6WbCAGagFDZkivGwBWNSjcRrsKNbOBVtjDB33epW/F33sdtuuIq3URYgUYiVrbeFWvuv4cdx4EA6aasbClUumVR4URTV7YUKt2yWIEGyq1CUemWQYAGWLKypVDp5kWF62npypZCpZsXK1BHpVUkKt08CFAHOVe2FCrdtKhwCblXthQq3bRYgXaorQJR6aZBgF5RcmVLodKNiwr3TOmVLYVKNy5WoKi1ikOlGwcBqryypVDpNM1XuNorWwqVTtPsCkSFeYrxGKbJALVc2VKodP00V+Far2wpVLp+mlmBqCj9MF7dNBEgKttwVLr9qq9wVDYNlW6/alcgKsi4GM/XVRkgKtt0qHRPVVfhqGzTotI9Vc0KRMWYF+P9oIoAUdmW03qlK77CUdmW1XqlK3YFokLkpdXjUWSAqGz5aq3SFVfhqGx5a63SFbMCUdnK0srxKiJAVLZy1V7psg9Qi5dJ4xPGybMfXxa+P3U+AYYA5Xgzs4M46L7nLWxzkOt+7buZWZhomz37G/7fqtB9q/J45jyRbgcM9lmJkyvu87rHfq4L3s+zAcf1NtcnjuwqXKOVLfwz9t97bvaeSre8bALU8lU251wIwlHPzX5671cTPaTJ1XK8s3gdKD4jbQYMZnhGOik8PKsB4QmO4rZFCscsHLtwDHs+/jBHNrns++IB4oXRF1fb5to2C6W/8LpYgMIS7py7HHC+cxVPKGv5cNZBBo9hUfFYruKx7eNLmEOxDi5ikQC1XNnwulIr3ewBorK9wJPBI6VVutkCRGXb6XKhbbNVUqWb5TI272Xbr8XL2F3l/rrg5CsQla2T9UzbFCf3SjdZgKhs3cV9Pe2xyWmD45NnpZvo/U7NvZdtxHGr8s2kI45RVu+lG/0cqPVvaRlDbR9nGFtO59SjBYhPjGJOucy3UQLEVTYsZenGI19E4CoblrT0VbrBKxCVDTlZaj4OChCVDbmau9L1rnBUNuRs7krXeQWisqEkc83XTgGisqFUU1e6ZIWjsqFkU1e6nSsQlQ01mWo+vxogKhtqNXalexEg51x4m/y3sf4AkBthgQjvgj9//IMn50ADw9Pcxw9QNuHjEd9iRra2K1BM5Y+ed0hlQ9EGVrrtt8I+DtBtjyWNyoZqDKh0d977d/a7wjnnPvXYmMqGqgyodIcxMw8rUI/Vh8qGqvWodPerkIuffPw38cu/zOyYVQctiJXu2szeJnb371DhjjuMCeFBM+Jc75SLN7H77XNBeNCaOOcvEru9cvFbS/b503t/zQxCa7q8tJMMkPfeMXPQKufc3nxk8Q9sAaUiQICAAAECAgQICBAgIECAgAABAgIECAgQICBAgIAAAQICBAgIECAgQICAAAECAgQICBAgIECAgAABAgIECP6oZfBSX/5QypejsB9lYQUCBAQIEBAgQECAAAEBAgQECBAQIEBAgAABAQIEBAgQECBAQIAAAQECBAQIEBAgQECAAAEBAgQECBAQIEBAgAABAQIEBAgQECBAQIAAAQECBAQIEBAgQECAAAEBAgQECBAQIEBAgAABAQIEBAgQECBAQIAAAQECBAQIEBAgQECAAAEBAgQECBAQIEBAgAABAQIEBAgQECBAQIAAAQECBAQIEBAgQECAAAEBAgQECBAQIEBAgAABAQIEBAgQECBAQIAAAQECBAQIEBAgQECAAAEBAgQECBAQIEBAgAABAQIEBAgQECBAQIAAAQECBAQIEDgz8/s29947Bhitcs7tzQcrECAgQICAAAECAgQICBAgIECAgAABAgIECAgQICBAgIAAAQICBAgIECAgQICAAAGCZICcc8cMMFrUZe6HAN0kfmfN7EGjUnP/JgRok/ilj865FTMILYlz/mNilzchQNcdxuWaEKEVca53y4X3Pmxwa2aHHTa4MLNz732XOweKEs951h1WnuDOe/8ufGlI+I9P8ctFuHHj1u326X7xiQHqswoBrXtYfZ5dxj5pfVSAjrZZ2QbIex+uxp0ygsBepzEr9568kOq9PydEwE6nMSNb23OgJz98uIx3yTkRcO8u1LbHK89vr76VJ/xiPEn6HDcGWhTm/ueQhdfCY7tWoBe/5Fw4aQrXyMPK9IGphIqFt7aFsFx770ML283M/gdC9Idle8/j8gAAAABJRU5ErkJggg==;" vertex="1" parent="1">
          <mxGeometry x="530" y="190" width="50" height="49.52" as="geometry" />
        </mxCell>
        <mxCell id="srN8gHAstGxJ4yh3wAJ1-27" value="" style="shape=image;verticalLabelPosition=bottom;labelBackgroundColor=default;verticalAlign=top;aspect=fixed;imageAspect=0;image=data:image/png,iVBORw0KGgoAAAANSUhEUgAAANAAAADQCAYAAAB2pO90AAAACXBIWXMAAAsSAAALEgHS3X78AAAV4klEQVR4nO2d4VEbSROGZ1z3H74I4CIAR2A5AnMRGCKwHIFxBCcisIjgRASGCEARnBTBQQTz1djvwiAkdc/s7E7Pbj9VKnx1Qqx2993u6e7pts45o8jFWrvtAi2NMY/Bf9/i5wqvR+fcg17W7lEBCWeHgLisIahb/HxQYeVFBSSclgLaxRKi8mK6dc6thn4eu0IFJJyOBLTJGoLyr4Vz7jHu18eLCkg4PQloE2+h5rBO6vLtQQUknEICCvHWaeEFpWJ6iwpIOAIEFNJYprm6eb9RAQlHmIBCbowxM+fcLf9XhocKqDKstYfGmNPgqI/x8kzw80OP38q7eLOxWiUV0EAJhBa+Tjr8tk+BkEYTFlcBjQxr7QSCmuB10MEZuDbGXI5BSCqgkWOtbcR01oHrN3ghqYCUZ+D2NWI6y2SdGtduNsQ1kgpI2Ym11ovo3BjzKcNZeoI1mg3pjKuAFBJYpnO82gYifNTufCjhbxWQEgWCEF5In1ueuRsIqWq3TgWkJGGt9bknL6Rpi7VS9W6dCkhpBdy7aUsh3cEaVRetUwEpWcggJG+Nps65eU1XRAWkZCWDkKpaG6mAlE6AkGaJwQYfqTurYfvEOwHHoAwQb0Gccz7I8B5rnBiOjDH31tqp9DOjAlI6xVsR55wPfX/FOieGv621c1gzkagLp/QGhDBPqGxYwqUTF6VTASm9gxKheWSQwVuvibR1kbpwSu845xbYBBizNvJiu7XWnku6YiogpQgIMjRrIy5eRD8kiUhdOKU42JO0QPSNy5VzrniUTi2QUhysa06RROXyxUfoSh+7CkgRAVw6H1y4ijiez6VFpC6cIg6scX5EHNc1kra9owJSRIJ10W1EqLuIiNSFU0SCddEEdXEcirhzKiBFLEFwYck8Ri+iXjfnqQuniAclQLcR/Rgu+tpXpBZIEQ/2Bk0iLFFvyVa1QEo1RFqiXmrnVEAFQGebpnd12Cz+kHFzhAOGH/DvBwwWHvykhAQRnXZZxa0C6piNXtSnkeUqKayb2acYKjw4UUWKaAlL1MkWcRVQZtDu6QyCydHRMwc3wfzTQfSphogemA+kznJEKqAMQDRTCKdrC9OWZmTjrHYxRSZbv3bRf04FlAiegGcQTpdzd7pkicYf1U7mhojumW9/nzuooAKKBNbmMuP0Agk8wSpVOYokonZujaBCtoeFCogJggFTQeuarqhy9ikqEL4w3nqDqu88f1cFtB8I57LnuaMSuINFqkZI1toF8wGXrVJBBbSDwFVrO4VgF/4GXW28DELPW12MjQHDxxuvrgRezZS5iMhctvyQCmgL1trLls3SN1kjWtTkZjrJjmNBHc4/zRURfIJbd5np8zojIqhwh54M7fAC0tfvF246/1RyGV4LjP84LnV+YaHOcSw5vtMKSUnR9wwefpzvM237t9QCvZj+S+YidB83uFnFhYWDsPtZhkDIFdw6saFva+0tw619wgMu+XuMXkCJHWFCmiG681pCwJmGY4luAI8Hxorx/dpF5cbsvkWY+l3uzPkAzsF5S7e1tRvU4Xc7Y36HZLe06ovf4sQ2PZpHK5wt56SNkPy5PBT6vTjrv1Xy5w/tRmCc0GOEOmNvkschCmfL+TnHd409Pw8lAyZ7vs8h8/skWdJB3wxbTuZp4s0xk/qE7eg8NcOxUh4ypwK/D8dVf0y5xqPZ0o2Kgpg2SQbFlr4AcVr7OPYY0ORwiuFY3G3UJmgA3z6/khFUYVON7A8gtChGISAUG/6MFM9359xpDWMGuwLDsbzV/h7xJ/w5/iltigJTHFNEKPmMwB05T3BDxCcLC5zHSYL7K2rNyAwczWM+c9B5oIQWsXfIbYzGXYsBuZVFZN1dby2mKCJyQ39yc3qDdeHgh8eIx4/L6Gzv/BAIZvrENID/IWVNhGvL2ZXKrvkbpAVK6Kss5ilZC5HWXcx4xtxWaHAWCItArnieVDxp4JxdMCdvN9G5uAV6N8fNtUKsIMigLJDExntDJ9Lad9piigvTCrEKTYdmgWYqnn4JpihwLNEJ8+nfKUwrdMCxQoOxQNZaH+f/m/FWFU8HSGgxFQPTCq2dc3vdzkFYIFw8jngMap5UPJnBOeVm8v/GNSt5vBwrdERFEKsXUJCb4KABgw4JAgscFrh2JeHcC3sfCkOwQJfMzXBXKp7uwTnm5ImOYvItXYAw9TXx0Z/2Cb3qNRDM60/GW/M0kFDYMLdUez6WbJ3FvId2rtlqF9CK2cKo1b53JZ6IhCW5UO8aa+0DEb1doqj2DdW6cGg9xXHdtLatADjnnF4DR7iWJaFc+5NdQY8qBRRMQ6D4PoahU1LBuedshYjfRpAXztp4a06oShcO48ypjqE7za7SLwwXyXQ5w4cDoy3wVlezOguERR+n3a60DV1jhnMtPheu2qas0NE2N65GF47jL19pslQOuBac0HaxtZBzbsEoR3oj8KpcOGbIUaNuAomIyhULazOWBm+WBbVZINa+9iGJx1rr8Hr0uRXvq/uolbX2TEAmnw2uCev6FTxMqqLlZPOcV2OBEKX5l3hb8ZxCbrx4iI9cwn+vYoAwM3fH3lKdE4jjP+IjX5WD1WSBOP6x+PEbHXCCQtp/vQsiraXUFsReR1hJqv3Vq/NbhQXKVXpeIwwLtI07yVXnDCtUbB3L2Bbz6j6rxQJxBvqO0frswteg3fu5oULXSdS1OmBWMXQBFcA4CpO+tVggKhH35JyrZkEdQ6IFChE5hsQHRYiHYrFEOOPYntdB4i0Q1E5lsYtvExbMEayRtMQydc1OCpb3UFboWdg1uHCcsKbu86H5gVHwUmi9ma1DKAE9BxJqEBDlC9/UMhkuBeecd7MtGr3/heJMKlK0iy9IFkr4XiuMxNxHqXUQ5e6+eETC+zEf19Z/ucdzc4gndMpQrJmQ78DpW15k5hDjuH6NcZFugThPIG4/hEGBNrszhFQvECzg8kXImohz7UpZIWqsy691kHQBUUnBG615+92HAEKKGUPyQ0hnHMqNK5UYpty4XwEO6QKixrGP0vrswjl3ibUSp8mhEdIZh7qGbUfyp0IJ6JewxQqIWZKiu003QL7nmDlZrnhnHM41LFSeVL0FotyL5ZCjb22AazRhiuhLSVcO15Bav5U4PkpAv0qRJAuIeurohrk9BCLiuHOl80PsvEtfcNbW/sFTswVS940gEBHFh8JV3OzMf89Q+bZDyQKi9oyoBWKANREnOlcyrM1ylwRyLFJAnKeh9jzgg+gctc74XKr2jHMtC1lIyjLKFBCy7PtILWUZM5xoW6mkpeG4Sz0dRxRSBUT5vBp9iwTl95QVKunGUde0xDqIOqbJHz0dSCzU02bQAkJYedMaLDK4rTNit+WvphmFqjuoa1rCApH3mVQBjdICQTjzHfufvllrlyieTRXSnDGI7LRQhFOiBSKptbn84ASE4s57YvPgSZvNcSlNM3qkxmsqNow9yO3Zu4Dl+RHxK20KQaXmXChK3BPkviCpAqK2cA8thJ2yyS11Yxx17ko9vPib2HqCsxas0oUbWOfR08SbY+fMGgKRa41ar+kgpnRXTpvcS/TvMgIQnDH1ClABlWdU672h8QfVdwwNLRRGjzY9V+2o8fypBSrP6Lek14wKKI69e2sSF/VttqVH/y7jGLnbwUePqXjIsNRQa3Q1Mxb1nJ2jmywTKxKoY9Qq9whIARW6WVkthQpAuVupx5VSWZBa+Ekdo7qUgHPvvxN6s0q9iKxOLbHAklxE/NpFi3o43SrPh+zL8a7SJ06ppuPUzfUh1WJju8F74oHm/9/7cEJaDDi2D8SvqID4PEqtxn4gLrTUrv0GrlVSkw5YldON7QyHeMjl2M7Acfu010QEHAGVuFkpq1hq6/EjthTsK72Ztu1yA6F0YQmoaQdL7fT6CvI+e8fZ953/uEiyR7syQrlPRwJn8TTbJajmHDom5jXUfXYrNYxNPQUpP75LOLkXieMmOcekrZIjecfZ9933QTnnOO1eS1UN+/N1TbzNWyExIsKxUNbnWju9voG691ccAZVCYrvXBo6r86309APz8qD5xnirum/xrDhh7FLuUic5lxzAQnJaa92WnH6Av82Jqt1xrP4Ioe79x3fMpnYlbgJx/ZI34MzvPCglokA8nP09pWaRioVzzbx2miBCld3xC05xbkLNV4y3nvQtokA8nJ2uV9rldSvUPf9LM42AxG3zZboUpa0Qp2WuwY286mNNhL+xYopnLTRiKAFWa7VGQFI7tUid4vwLJB25x3CAllSd3bD47PuIbdlnmjjdCWs6iFgLBChhfyo9ojChENRH51Y5k63+s/xnMqNtDW0KUscAr7knRnqfUmO9C40ar2bMPcp3YsfNr7CAP0z4e9WPuZf84o65t3gzud/fGPOxRKgTT9Z9SUA/qbuoK9dgrfW5lM+Jv34Hi+utwmrTOmBtc4yH3aRFesEnTMWVGkkCo1R+7juk5/4NwRPtgVDcVPCT/VjK0yzREvX1UsvDu4ZT4no8NO8Na+Gk5l04lc1inqjOuWnkmqgvLnBsCg11rz9rJRSQyMw/6rOoXbOiboxgcxwnxN016zab8EYKe9dujAU6KFjbRVmhA2lbCJrNccxka1dcYbGr0TYmuMepNMBbC8Sc11/KjVsw2i2JSwj6HAvcpvc9j6W8g9WZap4nGuoeX4dV65v7gSgrVCTahZuA2qsiciObgTVyzvkL85GxFaIN14iWTtTqJEPd46808hzGNi+7Fqk5Nf8r8VRD3du/xNv806HkblUW+C5nCH60HduxxFaEhe7naQeS8v8RH3IRric3BcT5gL+cc0V2Llpr/d/9RLztoqYFM875BOulUyRIt/nhT1i8PuLnLcKp6qJlwlrrH2r/EJ/2yoC8EpD5/SEPxFOxWCKOk+DCjXasN5YSCyMR7puuvAqkbeuJQD29i2X9mRvZDrTCWEmEurffaGObgDjh7JKlMxxxfJGwnVqpB9zT7PB1wxsBIXpDhbOLRbtghTiRLE0cKjFQ9/R6W2RzV1srKkhQehvBJSMvdCKpM44iF9zLVHBqqyZ2CYjz9C65Floxa+S+IfCgKPvgeFRbNfEmCvf8P+ho3JuIRN8wtjoYjcopFG3u9X2dSSkrdCLg6c55chxox01lF7iHqWT2Ti20EZApvY0AAQVOsaYfO9Kq4bsyWJLdN7PPhTP8zP+fJUtIsAB8YLhyprYqBaVbmOVhe3c8U83lxW9mi+yM80NqwalSBM69sFcDey2Q4S3URSzSrbV+28DfjLf649Vq5ZEDz2VFJE/J4mTOeBNyM5uEHaHOuRkzwdq029VKhXEzZVQekB4YxwJxlCrFCsW0tFVLNFJy3tOkBcIH1GKFmvUQVaVgAkuka6LxwbI+HINAWiDDj1aISVjCPeNOJjAanRsPTOtjuNFl1ohH5lQ2EVbIvBTExpQa/dA80WjgWB/2tD6WBTIVWiHD36IecqcN14dLbutjuBbIxFkhMU9yuGUxTQ4/YAyJFqAOk1lO62NiLJB5sUIPjIN4Lym6lWCJPN+dc7odYiBgXXxPfJsn9NFjCyhqzH3ENgJR6wlYoo/M6FyD3wrxoPmiwcC6b2PL0qIskInzI78iuSmGhOhcgy9YvdS1UZ0wq1SS1u9RFsi85Fo4rs1l6eFXmwTtdqle25t8wdpIc0aVgXuQdb+mPCCjLdDzL/I2s4mZ3ROCkzpLnOWzxsnWvFEFMHcUJDfkjLZAAZyn8afCHXy2gp7V/vi/Jvz6EfJGapGEg3uPEo9ps6Mg2QIZvrpFb6nGumjB3E+0jSdYs7m21pVDxFq9lZfUVkDcg7xDc3WRBH7yl5bHdwMxLjTgUBZr7S1jDGb7h3sP4/CKjoiM/C6TxKG9214LuAZixk+O5dXnPdnKAjUw1W6kJVh3gX5ynJopLmuEz5uG8LqFoiOYCVOTyyvKJSBuhcIamV7x7g2+02WLqdsUd7B24cvoxIV0IvpjRFcc7CKLgExcuYzI0PYuUBd32WKsfCuex6krnGvFCWqZnNtX2oSxX4EDumG89VNNWwd866xguhzn+ykFwD3FEc9NzhxeNgtkRtJiKnDtON38W6MWiCbC+8m+hMgqIBO3iDO1BBW2gYfFGYINbcc07kQFtJ/S91s2F64BB8jN8FfbHQfVDHP0TP4TBafUWBglI0FxMIevXTyss1ug5w+mx+U1VBOZ4xAMEJ4wffK9qAXaTuRyobOxpF0KKKbF1BItpgYXvkUU7zQYJBxVMqQCeouke6szAZm4/JAZsog2gagON6ZyG/z71U2hAnpNQu+/LPmencfTpYBM/Ca20YhIiUdi48zsQYRN8AW47a5OEFgQtRFPKU+keAzq3DqP8HYuIBPfHUdFpLwiQTy95Rh7EZB5ERFnGJZRESkNCeK56jNB35uAzG8RTZkTFAxOmHbFGTG49tT80pBr3GO90XkQYRsROSKjUxTGSUIHpc5yPfvo1QI14ItyLZE/gffaf2A84FrfSxePKSUgEy8iow3gxwGucUwX2WLiMaVcuFcHEOfOGWwpONdc0bBAsGAeWf5UVDympAVqwAngRucMTrAGFwZEECyIEc9VafEYCQIyL9G5mCkKR1gXiZhHpKSDa3gfWSN40Xe0bRfFXbgQLB45IyhCdKZPhcBlW0RulX9ChYGYjZiiBGTSG8A/YV206PDQlEygY+g84RqLS2eIcOFCEhvA+wvxj28qodULcvHXBo0//okUzxJV1eJygeIEZF7mEE0iw9wGi9CVro3kgWuySthkeA3LI7JtsjgXbhPmbJdt3PVVkavsBi75LLEtmLgZU5uIF5Bp3wD+GkLSIEOPZBghc1ZFF9saBGTSE20NzQSFmQqpW3Cdpi1aI1eVKK9GQA2Joe4GFVJHZBCOuBA1h+oEZF56LcxbtNtVIWUig3AM1qvnNc5XqlJADQgwXLa4cDocKxE8xM5bCucJ4zKrLRKuWkCm/doo5BpC4jbqGyXoKHSeYWrFIIqCqxdQAy7svMWoxoYlrJJOmQOZ2xivIZxBPKgGI6CGDG5dyA2s0ihLhFByc56jw+oQ3LVtDE5AJt/CNuSpmX3q6/SGaplw3iawNrmmTww6YDNIATV0OGXuLhBT1ZUOSFI3osk9ROwaVmewAZpBC6ih43GNTxvzT0X79hu9uicdzTgavHAaRiGghkyhVw5L7LB8fvXtvsAdO914dTbHaKwpgVEJqAE3VyOktlG7GO7w3sZKNQOGG0ihBcJoOMbLwKKYnue5rgPhjC5qOUoBhcClmWaKNI0JH6GcjT1vNnoBNQRW6bxjV6dmlsi1jdLabEMFtAVEps4RmerTxZPIGhHHue6teosKiCAI847JMjWWpvowfdeogCIISlqaEPBQrNM6CMVrCVMEKqAWICwe5lVqsVDLJm8FK6OV6ImogDIDl+8UoeUJfpayVGuEyW/x80FdsryogHoCwjrckbcx2wYM78FbkNDN2swrPapQesAY83+saZwoUd/PUQAAAABJRU5ErkJggg==;" vertex="1" parent="1">
          <mxGeometry x="440" y="310" width="50" height="50" as="geometry" />
        </mxCell>
        <mxCell id="srN8gHAstGxJ4yh3wAJ1-28" value="" style="shape=image;verticalLabelPosition=bottom;labelBackgroundColor=default;verticalAlign=top;aspect=fixed;imageAspect=0;image=data:image/png,iVBORw0KGgoAAAANSUhEUgAAANAAAADQCAYAAAB2pO90AAAACXBIWXMAAAsSAAALEgHS3X78AAAV4klEQVR4nO2d4VEbSROGZ1z3H74I4CIAR2A5AnMRGCKwHIFxBCcisIjgRASGCEARnBTBQQTz1djvwiAkdc/s7E7Pbj9VKnx1Qqx2993u6e7pts45o8jFWrvtAi2NMY/Bf9/i5wqvR+fcg17W7lEBCWeHgLisIahb/HxQYeVFBSSclgLaxRKi8mK6dc6thn4eu0IFJJyOBLTJGoLyr4Vz7jHu18eLCkg4PQloE2+h5rBO6vLtQQUknEICCvHWaeEFpWJ6iwpIOAIEFNJYprm6eb9RAQlHmIBCbowxM+fcLf9XhocKqDKstYfGmNPgqI/x8kzw80OP38q7eLOxWiUV0EAJhBa+Tjr8tk+BkEYTFlcBjQxr7QSCmuB10MEZuDbGXI5BSCqgkWOtbcR01oHrN3ghqYCUZ+D2NWI6y2SdGtduNsQ1kgpI2Ym11ovo3BjzKcNZeoI1mg3pjKuAFBJYpnO82gYifNTufCjhbxWQEgWCEF5In1ueuRsIqWq3TgWkJGGt9bknL6Rpi7VS9W6dCkhpBdy7aUsh3cEaVRetUwEpWcggJG+Nps65eU1XRAWkZCWDkKpaG6mAlE6AkGaJwQYfqTurYfvEOwHHoAwQb0Gccz7I8B5rnBiOjDH31tqp9DOjAlI6xVsR55wPfX/FOieGv621c1gzkagLp/QGhDBPqGxYwqUTF6VTASm9gxKheWSQwVuvibR1kbpwSu845xbYBBizNvJiu7XWnku6YiogpQgIMjRrIy5eRD8kiUhdOKU42JO0QPSNy5VzrniUTi2QUhysa06RROXyxUfoSh+7CkgRAVw6H1y4ijiez6VFpC6cIg6scX5EHNc1kra9owJSRIJ10W1EqLuIiNSFU0SCddEEdXEcirhzKiBFLEFwYck8Ri+iXjfnqQuniAclQLcR/Rgu+tpXpBZIEQ/2Bk0iLFFvyVa1QEo1RFqiXmrnVEAFQGebpnd12Cz+kHFzhAOGH/DvBwwWHvykhAQRnXZZxa0C6piNXtSnkeUqKayb2acYKjw4UUWKaAlL1MkWcRVQZtDu6QyCydHRMwc3wfzTQfSphogemA+kznJEKqAMQDRTCKdrC9OWZmTjrHYxRSZbv3bRf04FlAiegGcQTpdzd7pkicYf1U7mhojumW9/nzuooAKKBNbmMuP0Agk8wSpVOYokonZujaBCtoeFCogJggFTQeuarqhy9ikqEL4w3nqDqu88f1cFtB8I57LnuaMSuINFqkZI1toF8wGXrVJBBbSDwFVrO4VgF/4GXW28DELPW12MjQHDxxuvrgRezZS5iMhctvyQCmgL1trLls3SN1kjWtTkZjrJjmNBHc4/zRURfIJbd5np8zojIqhwh54M7fAC0tfvF246/1RyGV4LjP84LnV+YaHOcSw5vtMKSUnR9wwefpzvM237t9QCvZj+S+YidB83uFnFhYWDsPtZhkDIFdw6saFva+0tw619wgMu+XuMXkCJHWFCmiG681pCwJmGY4luAI8Hxorx/dpF5cbsvkWY+l3uzPkAzsF5S7e1tRvU4Xc7Y36HZLe06ovf4sQ2PZpHK5wt56SNkPy5PBT6vTjrv1Xy5w/tRmCc0GOEOmNvkschCmfL+TnHd409Pw8lAyZ7vs8h8/skWdJB3wxbTuZp4s0xk/qE7eg8NcOxUh4ypwK/D8dVf0y5xqPZ0o2Kgpg2SQbFlr4AcVr7OPYY0ORwiuFY3G3UJmgA3z6/khFUYVON7A8gtChGISAUG/6MFM9359xpDWMGuwLDsbzV/h7xJ/w5/iltigJTHFNEKPmMwB05T3BDxCcLC5zHSYL7K2rNyAwczWM+c9B5oIQWsXfIbYzGXYsBuZVFZN1dby2mKCJyQ39yc3qDdeHgh8eIx4/L6Gzv/BAIZvrENID/IWVNhGvL2ZXKrvkbpAVK6Kss5ilZC5HWXcx4xtxWaHAWCItArnieVDxp4JxdMCdvN9G5uAV6N8fNtUKsIMigLJDExntDJ9Lad9piigvTCrEKTYdmgWYqnn4JpihwLNEJ8+nfKUwrdMCxQoOxQNZaH+f/m/FWFU8HSGgxFQPTCq2dc3vdzkFYIFw8jngMap5UPJnBOeVm8v/GNSt5vBwrdERFEKsXUJCb4KABgw4JAgscFrh2JeHcC3sfCkOwQJfMzXBXKp7uwTnm5ImOYvItXYAw9TXx0Z/2Cb3qNRDM60/GW/M0kFDYMLdUez6WbJ3FvId2rtlqF9CK2cKo1b53JZ6IhCW5UO8aa+0DEb1doqj2DdW6cGg9xXHdtLatADjnnF4DR7iWJaFc+5NdQY8qBRRMQ6D4PoahU1LBuedshYjfRpAXztp4a06oShcO48ypjqE7za7SLwwXyXQ5w4cDoy3wVlezOguERR+n3a60DV1jhnMtPheu2qas0NE2N65GF47jL19pslQOuBac0HaxtZBzbsEoR3oj8KpcOGbIUaNuAomIyhULazOWBm+WBbVZINa+9iGJx1rr8Hr0uRXvq/uolbX2TEAmnw2uCev6FTxMqqLlZPOcV2OBEKX5l3hb8ZxCbrx4iI9cwn+vYoAwM3fH3lKdE4jjP+IjX5WD1WSBOP6x+PEbHXCCQtp/vQsiraXUFsReR1hJqv3Vq/NbhQXKVXpeIwwLtI07yVXnDCtUbB3L2Bbz6j6rxQJxBvqO0frswteg3fu5oULXSdS1OmBWMXQBFcA4CpO+tVggKhH35JyrZkEdQ6IFChE5hsQHRYiHYrFEOOPYntdB4i0Q1E5lsYtvExbMEayRtMQydc1OCpb3UFboWdg1uHCcsKbu86H5gVHwUmi9ma1DKAE9BxJqEBDlC9/UMhkuBeecd7MtGr3/heJMKlK0iy9IFkr4XiuMxNxHqXUQ5e6+eETC+zEf19Z/ucdzc4gndMpQrJmQ78DpW15k5hDjuH6NcZFugThPIG4/hEGBNrszhFQvECzg8kXImohz7UpZIWqsy691kHQBUUnBG615+92HAEKKGUPyQ0hnHMqNK5UYpty4XwEO6QKixrGP0vrswjl3ibUSp8mhEdIZh7qGbUfyp0IJ6JewxQqIWZKiu003QL7nmDlZrnhnHM41LFSeVL0FotyL5ZCjb22AazRhiuhLSVcO15Bav5U4PkpAv0qRJAuIeurohrk9BCLiuHOl80PsvEtfcNbW/sFTswVS940gEBHFh8JV3OzMf89Q+bZDyQKi9oyoBWKANREnOlcyrM1ylwRyLFJAnKeh9jzgg+gctc74XKr2jHMtC1lIyjLKFBCy7PtILWUZM5xoW6mkpeG4Sz0dRxRSBUT5vBp9iwTl95QVKunGUde0xDqIOqbJHz0dSCzU02bQAkJYedMaLDK4rTNit+WvphmFqjuoa1rCApH3mVQBjdICQTjzHfufvllrlyieTRXSnDGI7LRQhFOiBSKptbn84ASE4s57YvPgSZvNcSlNM3qkxmsqNow9yO3Zu4Dl+RHxK20KQaXmXChK3BPkviCpAqK2cA8thJ2yyS11Yxx17ko9vPib2HqCsxas0oUbWOfR08SbY+fMGgKRa41ar+kgpnRXTpvcS/TvMgIQnDH1ClABlWdU672h8QfVdwwNLRRGjzY9V+2o8fypBSrP6Lek14wKKI69e2sSF/VttqVH/y7jGLnbwUePqXjIsNRQa3Q1Mxb1nJ2jmywTKxKoY9Qq9whIARW6WVkthQpAuVupx5VSWZBa+Ekdo7qUgHPvvxN6s0q9iKxOLbHAklxE/NpFi3o43SrPh+zL8a7SJ06ppuPUzfUh1WJju8F74oHm/9/7cEJaDDi2D8SvqID4PEqtxn4gLrTUrv0GrlVSkw5YldON7QyHeMjl2M7Acfu010QEHAGVuFkpq1hq6/EjthTsK72Ztu1yA6F0YQmoaQdL7fT6CvI+e8fZ953/uEiyR7syQrlPRwJn8TTbJajmHDom5jXUfXYrNYxNPQUpP75LOLkXieMmOcekrZIjecfZ9933QTnnOO1eS1UN+/N1TbzNWyExIsKxUNbnWju9voG691ccAZVCYrvXBo6r86309APz8qD5xnirum/xrDhh7FLuUic5lxzAQnJaa92WnH6Av82Jqt1xrP4Ioe79x3fMpnYlbgJx/ZI34MzvPCglokA8nP09pWaRioVzzbx2miBCld3xC05xbkLNV4y3nvQtokA8nJ2uV9rldSvUPf9LM42AxG3zZboUpa0Qp2WuwY286mNNhL+xYopnLTRiKAFWa7VGQFI7tUid4vwLJB25x3CAllSd3bD47PuIbdlnmjjdCWs6iFgLBChhfyo9ojChENRH51Y5k63+s/xnMqNtDW0KUscAr7knRnqfUmO9C40ar2bMPcp3YsfNr7CAP0z4e9WPuZf84o65t3gzud/fGPOxRKgTT9Z9SUA/qbuoK9dgrfW5lM+Jv34Hi+utwmrTOmBtc4yH3aRFesEnTMWVGkkCo1R+7juk5/4NwRPtgVDcVPCT/VjK0yzREvX1UsvDu4ZT4no8NO8Na+Gk5l04lc1inqjOuWnkmqgvLnBsCg11rz9rJRSQyMw/6rOoXbOiboxgcxwnxN016zab8EYKe9dujAU6KFjbRVmhA2lbCJrNccxka1dcYbGr0TYmuMepNMBbC8Sc11/KjVsw2i2JSwj6HAvcpvc9j6W8g9WZap4nGuoeX4dV65v7gSgrVCTahZuA2qsiciObgTVyzvkL85GxFaIN14iWTtTqJEPd46808hzGNi+7Fqk5Nf8r8VRD3du/xNv806HkblUW+C5nCH60HduxxFaEhe7naQeS8v8RH3IRric3BcT5gL+cc0V2Llpr/d/9RLztoqYFM875BOulUyRIt/nhT1i8PuLnLcKp6qJlwlrrH2r/EJ/2yoC8EpD5/SEPxFOxWCKOk+DCjXasN5YSCyMR7puuvAqkbeuJQD29i2X9mRvZDrTCWEmEurffaGObgDjh7JKlMxxxfJGwnVqpB9zT7PB1wxsBIXpDhbOLRbtghTiRLE0cKjFQ9/R6W2RzV1srKkhQehvBJSMvdCKpM44iF9zLVHBqqyZ2CYjz9C65Floxa+S+IfCgKPvgeFRbNfEmCvf8P+ho3JuIRN8wtjoYjcopFG3u9X2dSSkrdCLg6c55chxox01lF7iHqWT2Ti20EZApvY0AAQVOsaYfO9Kq4bsyWJLdN7PPhTP8zP+fJUtIsAB8YLhyprYqBaVbmOVhe3c8U83lxW9mi+yM80NqwalSBM69sFcDey2Q4S3URSzSrbV+28DfjLf649Vq5ZEDz2VFJE/J4mTOeBNyM5uEHaHOuRkzwdq029VKhXEzZVQekB4YxwJxlCrFCsW0tFVLNFJy3tOkBcIH1GKFmvUQVaVgAkuka6LxwbI+HINAWiDDj1aISVjCPeNOJjAanRsPTOtjuNFl1ohH5lQ2EVbIvBTExpQa/dA80WjgWB/2tD6WBTIVWiHD36IecqcN14dLbutjuBbIxFkhMU9yuGUxTQ4/YAyJFqAOk1lO62NiLJB5sUIPjIN4Lym6lWCJPN+dc7odYiBgXXxPfJsn9NFjCyhqzH3ENgJR6wlYoo/M6FyD3wrxoPmiwcC6b2PL0qIskInzI78iuSmGhOhcgy9YvdS1UZ0wq1SS1u9RFsi85Fo4rs1l6eFXmwTtdqle25t8wdpIc0aVgXuQdb+mPCCjLdDzL/I2s4mZ3ROCkzpLnOWzxsnWvFEFMHcUJDfkjLZAAZyn8afCHXy2gp7V/vi/Jvz6EfJGapGEg3uPEo9ps6Mg2QIZvrpFb6nGumjB3E+0jSdYs7m21pVDxFq9lZfUVkDcg7xDc3WRBH7yl5bHdwMxLjTgUBZr7S1jDGb7h3sP4/CKjoiM/C6TxKG9214LuAZixk+O5dXnPdnKAjUw1W6kJVh3gX5ynJopLmuEz5uG8LqFoiOYCVOTyyvKJSBuhcIamV7x7g2+02WLqdsUd7B24cvoxIV0IvpjRFcc7CKLgExcuYzI0PYuUBd32WKsfCuex6krnGvFCWqZnNtX2oSxX4EDumG89VNNWwd866xguhzn+ykFwD3FEc9NzhxeNgtkRtJiKnDtON38W6MWiCbC+8m+hMgqIBO3iDO1BBW2gYfFGYINbcc07kQFtJ/S91s2F64BB8jN8FfbHQfVDHP0TP4TBafUWBglI0FxMIevXTyss1ug5w+mx+U1VBOZ4xAMEJ4wffK9qAXaTuRyobOxpF0KKKbF1BItpgYXvkUU7zQYJBxVMqQCeouke6szAZm4/JAZsog2gagON6ZyG/z71U2hAnpNQu+/LPmencfTpYBM/Ca20YhIiUdi48zsQYRN8AW47a5OEFgQtRFPKU+keAzq3DqP8HYuIBPfHUdFpLwiQTy95Rh7EZB5ERFnGJZRESkNCeK56jNB35uAzG8RTZkTFAxOmHbFGTG49tT80pBr3GO90XkQYRsROSKjUxTGSUIHpc5yPfvo1QI14ItyLZE/gffaf2A84FrfSxePKSUgEy8iow3gxwGucUwX2WLiMaVcuFcHEOfOGWwpONdc0bBAsGAeWf5UVDympAVqwAngRucMTrAGFwZEECyIEc9VafEYCQIyL9G5mCkKR1gXiZhHpKSDa3gfWSN40Xe0bRfFXbgQLB45IyhCdKZPhcBlW0RulX9ChYGYjZiiBGTSG8A/YV206PDQlEygY+g84RqLS2eIcOFCEhvA+wvxj28qodULcvHXBo0//okUzxJV1eJygeIEZF7mEE0iw9wGi9CVro3kgWuySthkeA3LI7JtsjgXbhPmbJdt3PVVkavsBi75LLEtmLgZU5uIF5Bp3wD+GkLSIEOPZBghc1ZFF9saBGTSE20NzQSFmQqpW3Cdpi1aI1eVKK9GQA2Joe4GFVJHZBCOuBA1h+oEZF56LcxbtNtVIWUig3AM1qvnNc5XqlJADQgwXLa4cDocKxE8xM5bCucJ4zKrLRKuWkCm/doo5BpC4jbqGyXoKHSeYWrFIIqCqxdQAy7svMWoxoYlrJJOmQOZ2xivIZxBPKgGI6CGDG5dyA2s0ihLhFByc56jw+oQ3LVtDE5AJt/CNuSpmX3q6/SGaplw3iawNrmmTww6YDNIATV0OGXuLhBT1ZUOSFI3osk9ROwaVmewAZpBC6ih43GNTxvzT0X79hu9uicdzTgavHAaRiGghkyhVw5L7LB8fvXtvsAdO914dTbHaKwpgVEJqAE3VyOktlG7GO7w3sZKNQOGG0ihBcJoOMbLwKKYnue5rgPhjC5qOUoBhcClmWaKNI0JH6GcjT1vNnoBNQRW6bxjV6dmlsi1jdLabEMFtAVEps4RmerTxZPIGhHHue6teosKiCAI847JMjWWpvowfdeogCIISlqaEPBQrNM6CMVrCVMEKqAWICwe5lVqsVDLJm8FK6OV6ImogDIDl+8UoeUJfpayVGuEyW/x80FdsryogHoCwjrckbcx2wYM78FbkNDN2swrPapQesAY83+saZwoUd/PUQAAAABJRU5ErkJggg==;" vertex="1" parent="1">
          <mxGeometry x="530" y="310" width="50" height="50" as="geometry" />
        </mxCell>
        <mxCell id="srN8gHAstGxJ4yh3wAJ1-29" value="" style="shape=image;verticalLabelPosition=bottom;labelBackgroundColor=default;verticalAlign=top;aspect=fixed;imageAspect=0;image=data:image/png,iVBORw0KGgoAAAANSUhEUgAAANAAAADQCAYAAAB2pO90AAAACXBIWXMAAAsSAAALEgHS3X78AAAV4klEQVR4nO2d4VEbSROGZ1z3H74I4CIAR2A5AnMRGCKwHIFxBCcisIjgRASGCEARnBTBQQTz1djvwiAkdc/s7E7Pbj9VKnx1Qqx2993u6e7pts45o8jFWrvtAi2NMY/Bf9/i5wqvR+fcg17W7lEBCWeHgLisIahb/HxQYeVFBSSclgLaxRKi8mK6dc6thn4eu0IFJJyOBLTJGoLyr4Vz7jHu18eLCkg4PQloE2+h5rBO6vLtQQUknEICCvHWaeEFpWJ6iwpIOAIEFNJYprm6eb9RAQlHmIBCbowxM+fcLf9XhocKqDKstYfGmNPgqI/x8kzw80OP38q7eLOxWiUV0EAJhBa+Tjr8tk+BkEYTFlcBjQxr7QSCmuB10MEZuDbGXI5BSCqgkWOtbcR01oHrN3ghqYCUZ+D2NWI6y2SdGtduNsQ1kgpI2Ym11ovo3BjzKcNZeoI1mg3pjKuAFBJYpnO82gYifNTufCjhbxWQEgWCEF5In1ueuRsIqWq3TgWkJGGt9bknL6Rpi7VS9W6dCkhpBdy7aUsh3cEaVRetUwEpWcggJG+Nps65eU1XRAWkZCWDkKpaG6mAlE6AkGaJwQYfqTurYfvEOwHHoAwQb0Gccz7I8B5rnBiOjDH31tqp9DOjAlI6xVsR55wPfX/FOieGv621c1gzkagLp/QGhDBPqGxYwqUTF6VTASm9gxKheWSQwVuvibR1kbpwSu845xbYBBizNvJiu7XWnku6YiogpQgIMjRrIy5eRD8kiUhdOKU42JO0QPSNy5VzrniUTi2QUhysa06RROXyxUfoSh+7CkgRAVw6H1y4ijiez6VFpC6cIg6scX5EHNc1kra9owJSRIJ10W1EqLuIiNSFU0SCddEEdXEcirhzKiBFLEFwYck8Ri+iXjfnqQuniAclQLcR/Rgu+tpXpBZIEQ/2Bk0iLFFvyVa1QEo1RFqiXmrnVEAFQGebpnd12Cz+kHFzhAOGH/DvBwwWHvykhAQRnXZZxa0C6piNXtSnkeUqKayb2acYKjw4UUWKaAlL1MkWcRVQZtDu6QyCydHRMwc3wfzTQfSphogemA+kznJEKqAMQDRTCKdrC9OWZmTjrHYxRSZbv3bRf04FlAiegGcQTpdzd7pkicYf1U7mhojumW9/nzuooAKKBNbmMuP0Agk8wSpVOYokonZujaBCtoeFCogJggFTQeuarqhy9ikqEL4w3nqDqu88f1cFtB8I57LnuaMSuINFqkZI1toF8wGXrVJBBbSDwFVrO4VgF/4GXW28DELPW12MjQHDxxuvrgRezZS5iMhctvyQCmgL1trLls3SN1kjWtTkZjrJjmNBHc4/zRURfIJbd5np8zojIqhwh54M7fAC0tfvF246/1RyGV4LjP84LnV+YaHOcSw5vtMKSUnR9wwefpzvM237t9QCvZj+S+YidB83uFnFhYWDsPtZhkDIFdw6saFva+0tw619wgMu+XuMXkCJHWFCmiG681pCwJmGY4luAI8Hxorx/dpF5cbsvkWY+l3uzPkAzsF5S7e1tRvU4Xc7Y36HZLe06ovf4sQ2PZpHK5wt56SNkPy5PBT6vTjrv1Xy5w/tRmCc0GOEOmNvkschCmfL+TnHd409Pw8lAyZ7vs8h8/skWdJB3wxbTuZp4s0xk/qE7eg8NcOxUh4ypwK/D8dVf0y5xqPZ0o2Kgpg2SQbFlr4AcVr7OPYY0ORwiuFY3G3UJmgA3z6/khFUYVON7A8gtChGISAUG/6MFM9359xpDWMGuwLDsbzV/h7xJ/w5/iltigJTHFNEKPmMwB05T3BDxCcLC5zHSYL7K2rNyAwczWM+c9B5oIQWsXfIbYzGXYsBuZVFZN1dby2mKCJyQ39yc3qDdeHgh8eIx4/L6Gzv/BAIZvrENID/IWVNhGvL2ZXKrvkbpAVK6Kss5ilZC5HWXcx4xtxWaHAWCItArnieVDxp4JxdMCdvN9G5uAV6N8fNtUKsIMigLJDExntDJ9Lad9piigvTCrEKTYdmgWYqnn4JpihwLNEJ8+nfKUwrdMCxQoOxQNZaH+f/m/FWFU8HSGgxFQPTCq2dc3vdzkFYIFw8jngMap5UPJnBOeVm8v/GNSt5vBwrdERFEKsXUJCb4KABgw4JAgscFrh2JeHcC3sfCkOwQJfMzXBXKp7uwTnm5ImOYvItXYAw9TXx0Z/2Cb3qNRDM60/GW/M0kFDYMLdUez6WbJ3FvId2rtlqF9CK2cKo1b53JZ6IhCW5UO8aa+0DEb1doqj2DdW6cGg9xXHdtLatADjnnF4DR7iWJaFc+5NdQY8qBRRMQ6D4PoahU1LBuedshYjfRpAXztp4a06oShcO48ypjqE7za7SLwwXyXQ5w4cDoy3wVlezOguERR+n3a60DV1jhnMtPheu2qas0NE2N65GF47jL19pslQOuBac0HaxtZBzbsEoR3oj8KpcOGbIUaNuAomIyhULazOWBm+WBbVZINa+9iGJx1rr8Hr0uRXvq/uolbX2TEAmnw2uCev6FTxMqqLlZPOcV2OBEKX5l3hb8ZxCbrx4iI9cwn+vYoAwM3fH3lKdE4jjP+IjX5WD1WSBOP6x+PEbHXCCQtp/vQsiraXUFsReR1hJqv3Vq/NbhQXKVXpeIwwLtI07yVXnDCtUbB3L2Bbz6j6rxQJxBvqO0frswteg3fu5oULXSdS1OmBWMXQBFcA4CpO+tVggKhH35JyrZkEdQ6IFChE5hsQHRYiHYrFEOOPYntdB4i0Q1E5lsYtvExbMEayRtMQydc1OCpb3UFboWdg1uHCcsKbu86H5gVHwUmi9ma1DKAE9BxJqEBDlC9/UMhkuBeecd7MtGr3/heJMKlK0iy9IFkr4XiuMxNxHqXUQ5e6+eETC+zEf19Z/ucdzc4gndMpQrJmQ78DpW15k5hDjuH6NcZFugThPIG4/hEGBNrszhFQvECzg8kXImohz7UpZIWqsy691kHQBUUnBG615+92HAEKKGUPyQ0hnHMqNK5UYpty4XwEO6QKixrGP0vrswjl3ibUSp8mhEdIZh7qGbUfyp0IJ6JewxQqIWZKiu003QL7nmDlZrnhnHM41LFSeVL0FotyL5ZCjb22AazRhiuhLSVcO15Bav5U4PkpAv0qRJAuIeurohrk9BCLiuHOl80PsvEtfcNbW/sFTswVS940gEBHFh8JV3OzMf89Q+bZDyQKi9oyoBWKANREnOlcyrM1ylwRyLFJAnKeh9jzgg+gctc74XKr2jHMtC1lIyjLKFBCy7PtILWUZM5xoW6mkpeG4Sz0dRxRSBUT5vBp9iwTl95QVKunGUde0xDqIOqbJHz0dSCzU02bQAkJYedMaLDK4rTNit+WvphmFqjuoa1rCApH3mVQBjdICQTjzHfufvllrlyieTRXSnDGI7LRQhFOiBSKptbn84ASE4s57YvPgSZvNcSlNM3qkxmsqNow9yO3Zu4Dl+RHxK20KQaXmXChK3BPkviCpAqK2cA8thJ2yyS11Yxx17ko9vPib2HqCsxas0oUbWOfR08SbY+fMGgKRa41ar+kgpnRXTpvcS/TvMgIQnDH1ClABlWdU672h8QfVdwwNLRRGjzY9V+2o8fypBSrP6Lek14wKKI69e2sSF/VttqVH/y7jGLnbwUePqXjIsNRQa3Q1Mxb1nJ2jmywTKxKoY9Qq9whIARW6WVkthQpAuVupx5VSWZBa+Ekdo7qUgHPvvxN6s0q9iKxOLbHAklxE/NpFi3o43SrPh+zL8a7SJ06ppuPUzfUh1WJju8F74oHm/9/7cEJaDDi2D8SvqID4PEqtxn4gLrTUrv0GrlVSkw5YldON7QyHeMjl2M7Acfu010QEHAGVuFkpq1hq6/EjthTsK72Ztu1yA6F0YQmoaQdL7fT6CvI+e8fZ953/uEiyR7syQrlPRwJn8TTbJajmHDom5jXUfXYrNYxNPQUpP75LOLkXieMmOcekrZIjecfZ9933QTnnOO1eS1UN+/N1TbzNWyExIsKxUNbnWju9voG691ccAZVCYrvXBo6r86309APz8qD5xnirum/xrDhh7FLuUic5lxzAQnJaa92WnH6Av82Jqt1xrP4Ioe79x3fMpnYlbgJx/ZI34MzvPCglokA8nP09pWaRioVzzbx2miBCld3xC05xbkLNV4y3nvQtokA8nJ2uV9rldSvUPf9LM42AxG3zZboUpa0Qp2WuwY286mNNhL+xYopnLTRiKAFWa7VGQFI7tUid4vwLJB25x3CAllSd3bD47PuIbdlnmjjdCWs6iFgLBChhfyo9ojChENRH51Y5k63+s/xnMqNtDW0KUscAr7knRnqfUmO9C40ar2bMPcp3YsfNr7CAP0z4e9WPuZf84o65t3gzud/fGPOxRKgTT9Z9SUA/qbuoK9dgrfW5lM+Jv34Hi+utwmrTOmBtc4yH3aRFesEnTMWVGkkCo1R+7juk5/4NwRPtgVDcVPCT/VjK0yzREvX1UsvDu4ZT4no8NO8Na+Gk5l04lc1inqjOuWnkmqgvLnBsCg11rz9rJRSQyMw/6rOoXbOiboxgcxwnxN016zab8EYKe9dujAU6KFjbRVmhA2lbCJrNccxka1dcYbGr0TYmuMepNMBbC8Sc11/KjVsw2i2JSwj6HAvcpvc9j6W8g9WZap4nGuoeX4dV65v7gSgrVCTahZuA2qsiciObgTVyzvkL85GxFaIN14iWTtTqJEPd46808hzGNi+7Fqk5Nf8r8VRD3du/xNv806HkblUW+C5nCH60HduxxFaEhe7naQeS8v8RH3IRric3BcT5gL+cc0V2Llpr/d/9RLztoqYFM875BOulUyRIt/nhT1i8PuLnLcKp6qJlwlrrH2r/EJ/2yoC8EpD5/SEPxFOxWCKOk+DCjXasN5YSCyMR7puuvAqkbeuJQD29i2X9mRvZDrTCWEmEurffaGObgDjh7JKlMxxxfJGwnVqpB9zT7PB1wxsBIXpDhbOLRbtghTiRLE0cKjFQ9/R6W2RzV1srKkhQehvBJSMvdCKpM44iF9zLVHBqqyZ2CYjz9C65Floxa+S+IfCgKPvgeFRbNfEmCvf8P+ho3JuIRN8wtjoYjcopFG3u9X2dSSkrdCLg6c55chxox01lF7iHqWT2Ti20EZApvY0AAQVOsaYfO9Kq4bsyWJLdN7PPhTP8zP+fJUtIsAB8YLhyprYqBaVbmOVhe3c8U83lxW9mi+yM80NqwalSBM69sFcDey2Q4S3URSzSrbV+28DfjLf649Vq5ZEDz2VFJE/J4mTOeBNyM5uEHaHOuRkzwdq029VKhXEzZVQekB4YxwJxlCrFCsW0tFVLNFJy3tOkBcIH1GKFmvUQVaVgAkuka6LxwbI+HINAWiDDj1aISVjCPeNOJjAanRsPTOtjuNFl1ohH5lQ2EVbIvBTExpQa/dA80WjgWB/2tD6WBTIVWiHD36IecqcN14dLbutjuBbIxFkhMU9yuGUxTQ4/YAyJFqAOk1lO62NiLJB5sUIPjIN4Lym6lWCJPN+dc7odYiBgXXxPfJsn9NFjCyhqzH3ENgJR6wlYoo/M6FyD3wrxoPmiwcC6b2PL0qIskInzI78iuSmGhOhcgy9YvdS1UZ0wq1SS1u9RFsi85Fo4rs1l6eFXmwTtdqle25t8wdpIc0aVgXuQdb+mPCCjLdDzL/I2s4mZ3ROCkzpLnOWzxsnWvFEFMHcUJDfkjLZAAZyn8afCHXy2gp7V/vi/Jvz6EfJGapGEg3uPEo9ps6Mg2QIZvrpFb6nGumjB3E+0jSdYs7m21pVDxFq9lZfUVkDcg7xDc3WRBH7yl5bHdwMxLjTgUBZr7S1jDGb7h3sP4/CKjoiM/C6TxKG9214LuAZixk+O5dXnPdnKAjUw1W6kJVh3gX5ynJopLmuEz5uG8LqFoiOYCVOTyyvKJSBuhcIamV7x7g2+02WLqdsUd7B24cvoxIV0IvpjRFcc7CKLgExcuYzI0PYuUBd32WKsfCuex6krnGvFCWqZnNtX2oSxX4EDumG89VNNWwd866xguhzn+ykFwD3FEc9NzhxeNgtkRtJiKnDtON38W6MWiCbC+8m+hMgqIBO3iDO1BBW2gYfFGYINbcc07kQFtJ/S91s2F64BB8jN8FfbHQfVDHP0TP4TBafUWBglI0FxMIevXTyss1ug5w+mx+U1VBOZ4xAMEJ4wffK9qAXaTuRyobOxpF0KKKbF1BItpgYXvkUU7zQYJBxVMqQCeouke6szAZm4/JAZsog2gagON6ZyG/z71U2hAnpNQu+/LPmencfTpYBM/Ca20YhIiUdi48zsQYRN8AW47a5OEFgQtRFPKU+keAzq3DqP8HYuIBPfHUdFpLwiQTy95Rh7EZB5ERFnGJZRESkNCeK56jNB35uAzG8RTZkTFAxOmHbFGTG49tT80pBr3GO90XkQYRsROSKjUxTGSUIHpc5yPfvo1QI14ItyLZE/gffaf2A84FrfSxePKSUgEy8iow3gxwGucUwX2WLiMaVcuFcHEOfOGWwpONdc0bBAsGAeWf5UVDympAVqwAngRucMTrAGFwZEECyIEc9VafEYCQIyL9G5mCkKR1gXiZhHpKSDa3gfWSN40Xe0bRfFXbgQLB45IyhCdKZPhcBlW0RulX9ChYGYjZiiBGTSG8A/YV206PDQlEygY+g84RqLS2eIcOFCEhvA+wvxj28qodULcvHXBo0//okUzxJV1eJygeIEZF7mEE0iw9wGi9CVro3kgWuySthkeA3LI7JtsjgXbhPmbJdt3PVVkavsBi75LLEtmLgZU5uIF5Bp3wD+GkLSIEOPZBghc1ZFF9saBGTSE20NzQSFmQqpW3Cdpi1aI1eVKK9GQA2Joe4GFVJHZBCOuBA1h+oEZF56LcxbtNtVIWUig3AM1qvnNc5XqlJADQgwXLa4cDocKxE8xM5bCucJ4zKrLRKuWkCm/doo5BpC4jbqGyXoKHSeYWrFIIqCqxdQAy7svMWoxoYlrJJOmQOZ2xivIZxBPKgGI6CGDG5dyA2s0ihLhFByc56jw+oQ3LVtDE5AJt/CNuSpmX3q6/SGaplw3iawNrmmTww6YDNIATV0OGXuLhBT1ZUOSFI3osk9ROwaVmewAZpBC6ih43GNTxvzT0X79hu9uicdzTgavHAaRiGghkyhVw5L7LB8fvXtvsAdO914dTbHaKwpgVEJqAE3VyOktlG7GO7w3sZKNQOGG0ihBcJoOMbLwKKYnue5rgPhjC5qOUoBhcClmWaKNI0JH6GcjT1vNnoBNQRW6bxjV6dmlsi1jdLabEMFtAVEps4RmerTxZPIGhHHue6teosKiCAI847JMjWWpvowfdeogCIISlqaEPBQrNM6CMVrCVMEKqAWICwe5lVqsVDLJm8FK6OV6ImogDIDl+8UoeUJfpayVGuEyW/x80FdsryogHoCwjrckbcx2wYM78FbkNDN2swrPapQesAY83+saZwoUd/PUQAAAABJRU5ErkJggg==;" vertex="1" parent="1">
          <mxGeometry x="620" y="310" width="50" height="50" as="geometry" />
        </mxCell>
        <mxCell id="srN8gHAstGxJ4yh3wAJ1-32" value="" style="endArrow=none;html=1;rounded=0;strokeWidth=2;exitX=0.5;exitY=0;exitDx=0;exitDy=0;strokeColor=#000000;" edge="1" parent="1" source="srN8gHAstGxJ4yh3wAJ1-25">
          <mxGeometry width="50" height="50" relative="1" as="geometry">
            <mxPoint x="894" y="490" as="sourcePoint" />
            <mxPoint x="555" y="270" as="targetPoint" />
          </mxGeometry>
        </mxCell>
        <mxCell id="srN8gHAstGxJ4yh3wAJ1-33" value="&lt;span style=&quot;color: rgb(0, 0, 0); font-family: &amp;quot;Clear Sans Display&amp;quot;; font-size: 20px; font-style: normal; font-variant-ligatures: normal; font-variant-caps: normal; letter-spacing: normal; orphans: 2; text-align: left; text-indent: 0px; text-transform: none; widows: 2; word-spacing: 0px; -webkit-text-stroke-width: 0px; white-space: normal; text-decoration-thickness: initial; text-decoration-style: initial; text-decoration-color: initial; float: none; display: inline !important;&quot;&gt;&lt;b&gt;Key Feature 2 -&lt;/b&gt;&lt;/span&gt;&lt;span style=&quot;color: rgb(0, 0, 0); font-family: &amp;quot;Clear Sans Display&amp;quot;; font-size: 20px; font-style: normal; font-variant-ligatures: normal; font-variant-caps: normal; font-weight: 400; letter-spacing: normal; orphans: 2; text-align: left; text-indent: 0px; text-transform: none; widows: 2; word-spacing: 0px; -webkit-text-stroke-width: 0px; white-space: normal; text-decoration-thickness: initial; text-decoration-style: initial; text-decoration-color: initial; float: none; display: inline !important;&quot;&gt;&amp;nbsp; Each virtual account shares the sort code of their real account.&lt;/span&gt;" style="text;whiteSpace=wrap;html=1;labelBackgroundColor=none;" vertex="1" parent="1">
          <mxGeometry x="360" y="40" width="402.5" height="50" as="geometry" />
        </mxCell>
        <mxCell id="srN8gHAstGxJ4yh3wAJ1-36" value="&lt;span style=&quot;color: rgb(0, 0, 0); font-family: &amp;quot;Clear Sans Display&amp;quot;; font-size: 20px; font-style: normal; font-variant-ligatures: normal; font-variant-caps: normal; font-weight: 400; letter-spacing: normal; orphans: 2; text-indent: 0px; text-transform: none; widows: 2; word-spacing: 0px; -webkit-text-stroke-width: 0px; white-space: normal; text-decoration-thickness: initial; text-decoration-style: initial; text-decoration-color: initial; float: none; display: inline !important;&quot;&gt;Real account&lt;br&gt;&lt;/span&gt;" style="text;whiteSpace=wrap;html=1;align=center;fillColor=none;labelBackgroundColor=none;" vertex="1" parent="1">
          <mxGeometry x="490" y="150" width="130" height="40" as="geometry" />
        </mxCell>
        <mxCell id="srN8gHAstGxJ4yh3wAJ1-37" value="&lt;span style=&quot;color: rgb(0, 0, 0); font-family: &amp;quot;Clear Sans Display&amp;quot;; font-style: normal; font-variant-ligatures: normal; font-variant-caps: normal; font-weight: 400; letter-spacing: normal; orphans: 2; text-indent: 0px; text-transform: none; widows: 2; word-spacing: 0px; -webkit-text-stroke-width: 0px; white-space: normal; text-decoration-thickness: initial; text-decoration-style: initial; text-decoration-color: initial; float: none; display: inline !important;&quot;&gt;12-34-56&lt;/span&gt;" style="text;whiteSpace=wrap;html=1;align=center;fontSize=16;labelBackgroundColor=none;verticalAlign=middle;" vertex="1" parent="1">
          <mxGeometry x="427.5" y="370" width="75" height="20" as="geometry" />
        </mxCell>
        <mxCell id="srN8gHAstGxJ4yh3wAJ1-38" value="&lt;span style=&quot;color: rgb(0, 0, 0); font-family: &amp;quot;Clear Sans Display&amp;quot;; font-style: normal; font-variant-ligatures: normal; font-variant-caps: normal; font-weight: 400; letter-spacing: normal; orphans: 2; text-indent: 0px; text-transform: none; widows: 2; word-spacing: 0px; -webkit-text-stroke-width: 0px; white-space: normal; text-decoration-thickness: initial; text-decoration-style: initial; text-decoration-color: initial; float: none; display: inline !important;&quot;&gt;12-34-56&lt;/span&gt;" style="text;whiteSpace=wrap;html=1;align=center;fontSize=16;labelBackgroundColor=none;verticalAlign=middle;" vertex="1" parent="1">
          <mxGeometry x="517.5" y="370" width="75" height="20" as="geometry" />
        </mxCell>
        <mxCell id="srN8gHAstGxJ4yh3wAJ1-39" value="&lt;span style=&quot;color: rgb(0, 0, 0); font-family: &amp;quot;Clear Sans Display&amp;quot;; font-style: normal; font-variant-ligatures: normal; font-variant-caps: normal; font-weight: 400; letter-spacing: normal; orphans: 2; text-indent: 0px; text-transform: none; widows: 2; word-spacing: 0px; -webkit-text-stroke-width: 0px; white-space: normal; text-decoration-thickness: initial; text-decoration-style: initial; text-decoration-color: initial; float: none; display: inline !important;&quot;&gt;12-34-56&lt;/span&gt;" style="text;whiteSpace=wrap;html=1;align=center;fontSize=16;labelBackgroundColor=none;verticalAlign=middle;" vertex="1" parent="1">
          <mxGeometry x="607.5" y="370" width="75" height="20" as="geometry" />
        </mxCell>
        <mxCell id="srN8gHAstGxJ4yh3wAJ1-40" value="&lt;span style=&quot;color: rgb(0, 0, 0); font-family: &amp;quot;Clear Sans Display&amp;quot;; font-style: normal; font-variant-ligatures: normal; font-variant-caps: normal; font-weight: 400; letter-spacing: normal; orphans: 2; text-indent: 0px; text-transform: none; widows: 2; word-spacing: 0px; -webkit-text-stroke-width: 0px; white-space: normal; text-decoration-thickness: initial; text-decoration-style: initial; text-decoration-color: initial; float: none; display: inline !important;&quot;&gt;12-34-56&lt;/span&gt;" style="text;whiteSpace=wrap;html=1;align=center;fontSize=16;labelBackgroundColor=none;verticalAlign=middle;" vertex="1" parent="1">
          <mxGeometry x="517.5" y="244" width="75" height="19.52" as="geometry" />
        </mxCell>
        <mxCell id="srN8gHAstGxJ4yh3wAJ1-41" value="&lt;div style=&quot;font-size: 20px;&quot;&gt;&lt;p style=&quot;margin: 0px; text-indent: 0px; direction: ltr; font-size: 20px;&quot;&gt;&lt;font style=&quot;font-size: 20px; color: rgb(0, 0, 0); direction: ltr; letter-spacing: 0px; line-height: 120%; opacity: 1;&quot;&gt;&lt;br style=&quot;font-size: 20px;&quot;&gt;&lt;/font&gt;&lt;/p&gt;&lt;/div&gt;" style="verticalAlign=top;align=left;vsdxID=25;fillColor=#f8f8f8;gradientColor=none;shape=stencil(nZBLDoAgDERP0z3SIyjew0SURgSD+Lu9kMZoXLhwN9O+tukAlrNpJg1SzDH4QW/URgNYgZTkjA4UkwJUgGXng+6DX1zLfmoymdXo17xh5zmRJ6Q42BWCfc2oJfdAr+Yv+AP9Cb7OJ3H/2JG1HNGz/84klThPVCc=);strokeColor=#bfbfbf;strokeWidth=3;points=[[0.5,1,0],[1,0.5,0],[0.5,0,0],[0,0.5,0],[0.5,0.5,0]];labelBackgroundColor=none;rounded=0;html=1;whiteSpace=wrap;fontFamily=Clear Sans Text;fontStyle=0;spacingLeft=7;fontSize=20;movable=1;resizable=1;rotatable=1;deletable=1;editable=1;locked=0;connectable=1;" vertex="1" parent="1">
          <mxGeometry x="820" y="110" width="430" height="388" as="geometry" />
        </mxCell>
        <mxCell id="srN8gHAstGxJ4yh3wAJ1-42" value="" style="rounded=1;whiteSpace=wrap;html=1;strokeWidth=2;fillColor=none;dashed=1;dashPattern=8 8;movable=1;resizable=1;rotatable=1;deletable=1;editable=1;locked=0;connectable=1;strokeColor=#000000;" vertex="1" parent="1">
          <mxGeometry x="900" y="290" width="270" height="120" as="geometry" />
        </mxCell>
        <mxCell id="srN8gHAstGxJ4yh3wAJ1-43" value="" style="shape=image;verticalLabelPosition=bottom;labelBackgroundColor=default;verticalAlign=top;aspect=fixed;imageAspect=0;image=data:image/png,iVBORw0KGgoAAAANSUhEUgAAANAAAADOCAYAAABPeIyfAAAACXBIWXMAAAsSAAALEgHS3X78AAAHVElEQVR4nO3d61EbSRiF4a9d+99kgDNAjsBsBMtGYJEBm4EdgZ2BIYKFCAwRWM4AMlhH0FsNbRU3qWfmzKUv71OlH8syQtPTR31mdLHz3hvy4Zw7MLOVmR0/e1DXZrbx3v/H4coHAcpADM2JmZ2Z2VHiEf00s69mdkmYlkeAFuacW8dAvO35SH6FwHnvz6sblIIQoIXEVSdM/r/ER3BlZmtWo2UQoAU458I5zqWZHY701+9CBfTeb4oaiAq8aX0A5uacC+c5P0YMj8X7+hHvGzNiBZrJiJUthUo3IwI0gwkqWwqVbiYEaGKxVn0Z8Fdu4ms/Fl8T+jDgPv7x3n9dbOcbQIAmIlS2q3h5+vbxD51z7+Ll7iH3R6WbCAGagFDZkivGwBWNSjcRrsKNbOBVtjDB33epW/F33sdtuuIq3URYgUYiVrbeFWvuv4cdx4EA6aasbClUumVR4URTV7YUKt2yWIEGyq1CUemWQYAGWLKypVDp5kWF62npypZCpZsXK1BHpVUkKt08CFAHOVe2FCrdtKhwCblXthQq3bRYgXaorQJR6aZBgF5RcmVLodKNiwr3TOmVLYVKNy5WoKi1ikOlGwcBqryypVDpNM1XuNorWwqVTtPsCkSFeYrxGKbJALVc2VKodP00V+Far2wpVLp+mlmBqCj9MF7dNBEgKttwVLr9qq9wVDYNlW6/alcgKsi4GM/XVRkgKtt0qHRPVVfhqGzTotI9Vc0KRMWYF+P9oIoAUdmW03qlK77CUdmW1XqlK3YFokLkpdXjUWSAqGz5aq3SFVfhqGx5a63SFbMCUdnK0srxKiJAVLZy1V7psg9Qi5dJ4xPGybMfXxa+P3U+AYYA5Xgzs4M46L7nLWxzkOt+7buZWZhomz37G/7fqtB9q/J45jyRbgcM9lmJkyvu87rHfq4L3s+zAcf1NtcnjuwqXKOVLfwz9t97bvaeSre8bALU8lU251wIwlHPzX5671cTPaTJ1XK8s3gdKD4jbQYMZnhGOik8PKsB4QmO4rZFCscsHLtwDHs+/jBHNrns++IB4oXRF1fb5to2C6W/8LpYgMIS7py7HHC+cxVPKGv5cNZBBo9hUfFYruKx7eNLmEOxDi5ikQC1XNnwulIr3ewBorK9wJPBI6VVutkCRGXb6XKhbbNVUqWb5TI272Xbr8XL2F3l/rrg5CsQla2T9UzbFCf3SjdZgKhs3cV9Pe2xyWmD45NnpZvo/U7NvZdtxHGr8s2kI45RVu+lG/0cqPVvaRlDbR9nGFtO59SjBYhPjGJOucy3UQLEVTYsZenGI19E4CoblrT0VbrBKxCVDTlZaj4OChCVDbmau9L1rnBUNuRs7krXeQWisqEkc83XTgGisqFUU1e6ZIWjsqFkU1e6nSsQlQ01mWo+vxogKhtqNXalexEg51x4m/y3sf4AkBthgQjvgj9//IMn50ADw9Pcxw9QNuHjEd9iRra2K1BM5Y+ed0hlQ9EGVrrtt8I+DtBtjyWNyoZqDKh0d977d/a7wjnnPvXYmMqGqgyodIcxMw8rUI/Vh8qGqvWodPerkIuffPw38cu/zOyYVQctiJXu2szeJnb371DhjjuMCeFBM+Jc75SLN7H77XNBeNCaOOcvEru9cvFbS/b503t/zQxCa7q8tJMMkPfeMXPQKufc3nxk8Q9sAaUiQICAAAECAgQICBAgIECAgAABAgIECAgQICBAgIAAAQICBAgIECAgQICAAAECAgQICBAgIECAgAABAgIECP6oZfBSX/5QypejsB9lYQUCBAQIEBAgQECAAAEBAgQECBAQIEBAgAABAQIEBAgQECBAQIAAAQECBAQIEBAgQECAAAEBAgQECBAQIEBAgAABAQIEBAgQECBAQIAAAQECBAQIEBAgQECAAAEBAgQECBAQIEBAgAABAQIEBAgQECBAQIAAAQECBAQIEBAgQECAAAEBAgQECBAQIEBAgAABAQIEBAgQECBAQIAAAQECBAQIEBAgQECAAAEBAgQECBAQIEBAgAABAQIEBAgQECBAQIAAAQECBAQIEBAgQECAAAEBAgQECBAQIEBAgAABAQIEBAgQECBAQIAAAQECBAQIEDgz8/s29947Bhitcs7tzQcrECAgQICAAAECAgQICBAgIECAgAABAgIECAgQICBAgIAAAQICBAgIECAgQICAAAGCZICcc8cMMFrUZe6HAN0kfmfN7EGjUnP/JgRok/ilj865FTMILYlz/mNilzchQNcdxuWaEKEVca53y4X3Pmxwa2aHHTa4MLNz732XOweKEs951h1WnuDOe/8ufGlI+I9P8ctFuHHj1u326X7xiQHqswoBrXtYfZ5dxj5pfVSAjrZZ2QbIex+uxp0ygsBepzEr9568kOq9PydEwE6nMSNb23OgJz98uIx3yTkRcO8u1LbHK89vr76VJ/xiPEn6HDcGWhTm/ueQhdfCY7tWoBe/5Fw4aQrXyMPK9IGphIqFt7aFsFx770ML283M/gdC9Idle8/j8gAAAABJRU5ErkJggg==;" vertex="1" parent="1">
          <mxGeometry x="1010" y="190" width="50" height="49.52" as="geometry" />
        </mxCell>
        <mxCell id="srN8gHAstGxJ4yh3wAJ1-44" value="" style="shape=image;verticalLabelPosition=bottom;labelBackgroundColor=default;verticalAlign=top;aspect=fixed;imageAspect=0;image=data:image/png,iVBORw0KGgoAAAANSUhEUgAAANAAAADQCAYAAAB2pO90AAAACXBIWXMAAAsSAAALEgHS3X78AAAV4klEQVR4nO2d4VEbSROGZ1z3H74I4CIAR2A5AnMRGCKwHIFxBCcisIjgRASGCEARnBTBQQTz1djvwiAkdc/s7E7Pbj9VKnx1Qqx2993u6e7pts45o8jFWrvtAi2NMY/Bf9/i5wqvR+fcg17W7lEBCWeHgLisIahb/HxQYeVFBSSclgLaxRKi8mK6dc6thn4eu0IFJJyOBLTJGoLyr4Vz7jHu18eLCkg4PQloE2+h5rBO6vLtQQUknEICCvHWaeEFpWJ6iwpIOAIEFNJYprm6eb9RAQlHmIBCbowxM+fcLf9XhocKqDKstYfGmNPgqI/x8kzw80OP38q7eLOxWiUV0EAJhBa+Tjr8tk+BkEYTFlcBjQxr7QSCmuB10MEZuDbGXI5BSCqgkWOtbcR01oHrN3ghqYCUZ+D2NWI6y2SdGtduNsQ1kgpI2Ym11ovo3BjzKcNZeoI1mg3pjKuAFBJYpnO82gYifNTufCjhbxWQEgWCEF5In1ueuRsIqWq3TgWkJGGt9bknL6Rpi7VS9W6dCkhpBdy7aUsh3cEaVRetUwEpWcggJG+Nps65eU1XRAWkZCWDkKpaG6mAlE6AkGaJwQYfqTurYfvEOwHHoAwQb0Gccz7I8B5rnBiOjDH31tqp9DOjAlI6xVsR55wPfX/FOieGv621c1gzkagLp/QGhDBPqGxYwqUTF6VTASm9gxKheWSQwVuvibR1kbpwSu845xbYBBizNvJiu7XWnku6YiogpQgIMjRrIy5eRD8kiUhdOKU42JO0QPSNy5VzrniUTi2QUhysa06RROXyxUfoSh+7CkgRAVw6H1y4ijiez6VFpC6cIg6scX5EHNc1kra9owJSRIJ10W1EqLuIiNSFU0SCddEEdXEcirhzKiBFLEFwYck8Ri+iXjfnqQuniAclQLcR/Rgu+tpXpBZIEQ/2Bk0iLFFvyVa1QEo1RFqiXmrnVEAFQGebpnd12Cz+kHFzhAOGH/DvBwwWHvykhAQRnXZZxa0C6piNXtSnkeUqKayb2acYKjw4UUWKaAlL1MkWcRVQZtDu6QyCydHRMwc3wfzTQfSphogemA+kznJEKqAMQDRTCKdrC9OWZmTjrHYxRSZbv3bRf04FlAiegGcQTpdzd7pkicYf1U7mhojumW9/nzuooAKKBNbmMuP0Agk8wSpVOYokonZujaBCtoeFCogJggFTQeuarqhy9ikqEL4w3nqDqu88f1cFtB8I57LnuaMSuINFqkZI1toF8wGXrVJBBbSDwFVrO4VgF/4GXW28DELPW12MjQHDxxuvrgRezZS5iMhctvyQCmgL1trLls3SN1kjWtTkZjrJjmNBHc4/zRURfIJbd5np8zojIqhwh54M7fAC0tfvF246/1RyGV4LjP84LnV+YaHOcSw5vtMKSUnR9wwefpzvM237t9QCvZj+S+YidB83uFnFhYWDsPtZhkDIFdw6saFva+0tw619wgMu+XuMXkCJHWFCmiG681pCwJmGY4luAI8Hxorx/dpF5cbsvkWY+l3uzPkAzsF5S7e1tRvU4Xc7Y36HZLe06ovf4sQ2PZpHK5wt56SNkPy5PBT6vTjrv1Xy5w/tRmCc0GOEOmNvkschCmfL+TnHd409Pw8lAyZ7vs8h8/skWdJB3wxbTuZp4s0xk/qE7eg8NcOxUh4ypwK/D8dVf0y5xqPZ0o2Kgpg2SQbFlr4AcVr7OPYY0ORwiuFY3G3UJmgA3z6/khFUYVON7A8gtChGISAUG/6MFM9359xpDWMGuwLDsbzV/h7xJ/w5/iltigJTHFNEKPmMwB05T3BDxCcLC5zHSYL7K2rNyAwczWM+c9B5oIQWsXfIbYzGXYsBuZVFZN1dby2mKCJyQ39yc3qDdeHgh8eIx4/L6Gzv/BAIZvrENID/IWVNhGvL2ZXKrvkbpAVK6Kss5ilZC5HWXcx4xtxWaHAWCItArnieVDxp4JxdMCdvN9G5uAV6N8fNtUKsIMigLJDExntDJ9Lad9piigvTCrEKTYdmgWYqnn4JpihwLNEJ8+nfKUwrdMCxQoOxQNZaH+f/m/FWFU8HSGgxFQPTCq2dc3vdzkFYIFw8jngMap5UPJnBOeVm8v/GNSt5vBwrdERFEKsXUJCb4KABgw4JAgscFrh2JeHcC3sfCkOwQJfMzXBXKp7uwTnm5ImOYvItXYAw9TXx0Z/2Cb3qNRDM60/GW/M0kFDYMLdUez6WbJ3FvId2rtlqF9CK2cKo1b53JZ6IhCW5UO8aa+0DEb1doqj2DdW6cGg9xXHdtLatADjnnF4DR7iWJaFc+5NdQY8qBRRMQ6D4PoahU1LBuedshYjfRpAXztp4a06oShcO48ypjqE7za7SLwwXyXQ5w4cDoy3wVlezOguERR+n3a60DV1jhnMtPheu2qas0NE2N65GF47jL19pslQOuBac0HaxtZBzbsEoR3oj8KpcOGbIUaNuAomIyhULazOWBm+WBbVZINa+9iGJx1rr8Hr0uRXvq/uolbX2TEAmnw2uCev6FTxMqqLlZPOcV2OBEKX5l3hb8ZxCbrx4iI9cwn+vYoAwM3fH3lKdE4jjP+IjX5WD1WSBOP6x+PEbHXCCQtp/vQsiraXUFsReR1hJqv3Vq/NbhQXKVXpeIwwLtI07yVXnDCtUbB3L2Bbz6j6rxQJxBvqO0frswteg3fu5oULXSdS1OmBWMXQBFcA4CpO+tVggKhH35JyrZkEdQ6IFChE5hsQHRYiHYrFEOOPYntdB4i0Q1E5lsYtvExbMEayRtMQydc1OCpb3UFboWdg1uHCcsKbu86H5gVHwUmi9ma1DKAE9BxJqEBDlC9/UMhkuBeecd7MtGr3/heJMKlK0iy9IFkr4XiuMxNxHqXUQ5e6+eETC+zEf19Z/ucdzc4gndMpQrJmQ78DpW15k5hDjuH6NcZFugThPIG4/hEGBNrszhFQvECzg8kXImohz7UpZIWqsy691kHQBUUnBG615+92HAEKKGUPyQ0hnHMqNK5UYpty4XwEO6QKixrGP0vrswjl3ibUSp8mhEdIZh7qGbUfyp0IJ6JewxQqIWZKiu003QL7nmDlZrnhnHM41LFSeVL0FotyL5ZCjb22AazRhiuhLSVcO15Bav5U4PkpAv0qRJAuIeurohrk9BCLiuHOl80PsvEtfcNbW/sFTswVS940gEBHFh8JV3OzMf89Q+bZDyQKi9oyoBWKANREnOlcyrM1ylwRyLFJAnKeh9jzgg+gctc74XKr2jHMtC1lIyjLKFBCy7PtILWUZM5xoW6mkpeG4Sz0dRxRSBUT5vBp9iwTl95QVKunGUde0xDqIOqbJHz0dSCzU02bQAkJYedMaLDK4rTNit+WvphmFqjuoa1rCApH3mVQBjdICQTjzHfufvllrlyieTRXSnDGI7LRQhFOiBSKptbn84ASE4s57YvPgSZvNcSlNM3qkxmsqNow9yO3Zu4Dl+RHxK20KQaXmXChK3BPkviCpAqK2cA8thJ2yyS11Yxx17ko9vPib2HqCsxas0oUbWOfR08SbY+fMGgKRa41ar+kgpnRXTpvcS/TvMgIQnDH1ClABlWdU672h8QfVdwwNLRRGjzY9V+2o8fypBSrP6Lek14wKKI69e2sSF/VttqVH/y7jGLnbwUePqXjIsNRQa3Q1Mxb1nJ2jmywTKxKoY9Qq9whIARW6WVkthQpAuVupx5VSWZBa+Ekdo7qUgHPvvxN6s0q9iKxOLbHAklxE/NpFi3o43SrPh+zL8a7SJ06ppuPUzfUh1WJju8F74oHm/9/7cEJaDDi2D8SvqID4PEqtxn4gLrTUrv0GrlVSkw5YldON7QyHeMjl2M7Acfu010QEHAGVuFkpq1hq6/EjthTsK72Ztu1yA6F0YQmoaQdL7fT6CvI+e8fZ953/uEiyR7syQrlPRwJn8TTbJajmHDom5jXUfXYrNYxNPQUpP75LOLkXieMmOcekrZIjecfZ9933QTnnOO1eS1UN+/N1TbzNWyExIsKxUNbnWju9voG691ccAZVCYrvXBo6r86309APz8qD5xnirum/xrDhh7FLuUic5lxzAQnJaa92WnH6Av82Jqt1xrP4Ioe79x3fMpnYlbgJx/ZI34MzvPCglokA8nP09pWaRioVzzbx2miBCld3xC05xbkLNV4y3nvQtokA8nJ2uV9rldSvUPf9LM42AxG3zZboUpa0Qp2WuwY286mNNhL+xYopnLTRiKAFWa7VGQFI7tUid4vwLJB25x3CAllSd3bD47PuIbdlnmjjdCWs6iFgLBChhfyo9ojChENRH51Y5k63+s/xnMqNtDW0KUscAr7knRnqfUmO9C40ar2bMPcp3YsfNr7CAP0z4e9WPuZf84o65t3gzud/fGPOxRKgTT9Z9SUA/qbuoK9dgrfW5lM+Jv34Hi+utwmrTOmBtc4yH3aRFesEnTMWVGkkCo1R+7juk5/4NwRPtgVDcVPCT/VjK0yzREvX1UsvDu4ZT4no8NO8Na+Gk5l04lc1inqjOuWnkmqgvLnBsCg11rz9rJRSQyMw/6rOoXbOiboxgcxwnxN016zab8EYKe9dujAU6KFjbRVmhA2lbCJrNccxka1dcYbGr0TYmuMepNMBbC8Sc11/KjVsw2i2JSwj6HAvcpvc9j6W8g9WZap4nGuoeX4dV65v7gSgrVCTahZuA2qsiciObgTVyzvkL85GxFaIN14iWTtTqJEPd46808hzGNi+7Fqk5Nf8r8VRD3du/xNv806HkblUW+C5nCH60HduxxFaEhe7naQeS8v8RH3IRric3BcT5gL+cc0V2Llpr/d/9RLztoqYFM875BOulUyRIt/nhT1i8PuLnLcKp6qJlwlrrH2r/EJ/2yoC8EpD5/SEPxFOxWCKOk+DCjXasN5YSCyMR7puuvAqkbeuJQD29i2X9mRvZDrTCWEmEurffaGObgDjh7JKlMxxxfJGwnVqpB9zT7PB1wxsBIXpDhbOLRbtghTiRLE0cKjFQ9/R6W2RzV1srKkhQehvBJSMvdCKpM44iF9zLVHBqqyZ2CYjz9C65Floxa+S+IfCgKPvgeFRbNfEmCvf8P+ho3JuIRN8wtjoYjcopFG3u9X2dSSkrdCLg6c55chxox01lF7iHqWT2Ti20EZApvY0AAQVOsaYfO9Kq4bsyWJLdN7PPhTP8zP+fJUtIsAB8YLhyprYqBaVbmOVhe3c8U83lxW9mi+yM80NqwalSBM69sFcDey2Q4S3URSzSrbV+28DfjLf649Vq5ZEDz2VFJE/J4mTOeBNyM5uEHaHOuRkzwdq029VKhXEzZVQekB4YxwJxlCrFCsW0tFVLNFJy3tOkBcIH1GKFmvUQVaVgAkuka6LxwbI+HINAWiDDj1aISVjCPeNOJjAanRsPTOtjuNFl1ohH5lQ2EVbIvBTExpQa/dA80WjgWB/2tD6WBTIVWiHD36IecqcN14dLbutjuBbIxFkhMU9yuGUxTQ4/YAyJFqAOk1lO62NiLJB5sUIPjIN4Lym6lWCJPN+dc7odYiBgXXxPfJsn9NFjCyhqzH3ENgJR6wlYoo/M6FyD3wrxoPmiwcC6b2PL0qIskInzI78iuSmGhOhcgy9YvdS1UZ0wq1SS1u9RFsi85Fo4rs1l6eFXmwTtdqle25t8wdpIc0aVgXuQdb+mPCCjLdDzL/I2s4mZ3ROCkzpLnOWzxsnWvFEFMHcUJDfkjLZAAZyn8afCHXy2gp7V/vi/Jvz6EfJGapGEg3uPEo9ps6Mg2QIZvrpFb6nGumjB3E+0jSdYs7m21pVDxFq9lZfUVkDcg7xDc3WRBH7yl5bHdwMxLjTgUBZr7S1jDGb7h3sP4/CKjoiM/C6TxKG9214LuAZixk+O5dXnPdnKAjUw1W6kJVh3gX5ynJopLmuEz5uG8LqFoiOYCVOTyyvKJSBuhcIamV7x7g2+02WLqdsUd7B24cvoxIV0IvpjRFcc7CKLgExcuYzI0PYuUBd32WKsfCuex6krnGvFCWqZnNtX2oSxX4EDumG89VNNWwd866xguhzn+ykFwD3FEc9NzhxeNgtkRtJiKnDtON38W6MWiCbC+8m+hMgqIBO3iDO1BBW2gYfFGYINbcc07kQFtJ/S91s2F64BB8jN8FfbHQfVDHP0TP4TBafUWBglI0FxMIevXTyss1ug5w+mx+U1VBOZ4xAMEJ4wffK9qAXaTuRyobOxpF0KKKbF1BItpgYXvkUU7zQYJBxVMqQCeouke6szAZm4/JAZsog2gagON6ZyG/z71U2hAnpNQu+/LPmencfTpYBM/Ca20YhIiUdi48zsQYRN8AW47a5OEFgQtRFPKU+keAzq3DqP8HYuIBPfHUdFpLwiQTy95Rh7EZB5ERFnGJZRESkNCeK56jNB35uAzG8RTZkTFAxOmHbFGTG49tT80pBr3GO90XkQYRsROSKjUxTGSUIHpc5yPfvo1QI14ItyLZE/gffaf2A84FrfSxePKSUgEy8iow3gxwGucUwX2WLiMaVcuFcHEOfOGWwpONdc0bBAsGAeWf5UVDympAVqwAngRucMTrAGFwZEECyIEc9VafEYCQIyL9G5mCkKR1gXiZhHpKSDa3gfWSN40Xe0bRfFXbgQLB45IyhCdKZPhcBlW0RulX9ChYGYjZiiBGTSG8A/YV206PDQlEygY+g84RqLS2eIcOFCEhvA+wvxj28qodULcvHXBo0//okUzxJV1eJygeIEZF7mEE0iw9wGi9CVro3kgWuySthkeA3LI7JtsjgXbhPmbJdt3PVVkavsBi75LLEtmLgZU5uIF5Bp3wD+GkLSIEOPZBghc1ZFF9saBGTSE20NzQSFmQqpW3Cdpi1aI1eVKK9GQA2Joe4GFVJHZBCOuBA1h+oEZF56LcxbtNtVIWUig3AM1qvnNc5XqlJADQgwXLa4cDocKxE8xM5bCucJ4zKrLRKuWkCm/doo5BpC4jbqGyXoKHSeYWrFIIqCqxdQAy7svMWoxoYlrJJOmQOZ2xivIZxBPKgGI6CGDG5dyA2s0ihLhFByc56jw+oQ3LVtDE5AJt/CNuSpmX3q6/SGaplw3iawNrmmTww6YDNIATV0OGXuLhBT1ZUOSFI3osk9ROwaVmewAZpBC6ih43GNTxvzT0X79hu9uicdzTgavHAaRiGghkyhVw5L7LB8fvXtvsAdO914dTbHaKwpgVEJqAE3VyOktlG7GO7w3sZKNQOGG0ihBcJoOMbLwKKYnue5rgPhjC5qOUoBhcClmWaKNI0JH6GcjT1vNnoBNQRW6bxjV6dmlsi1jdLabEMFtAVEps4RmerTxZPIGhHHue6teosKiCAI847JMjWWpvowfdeogCIISlqaEPBQrNM6CMVrCVMEKqAWICwe5lVqsVDLJm8FK6OV6ImogDIDl+8UoeUJfpayVGuEyW/x80FdsryogHoCwjrckbcx2wYM78FbkNDN2swrPapQesAY83+saZwoUd/PUQAAAABJRU5ErkJggg==;" vertex="1" parent="1">
          <mxGeometry x="920" y="310" width="50" height="50" as="geometry" />
        </mxCell>
        <mxCell id="srN8gHAstGxJ4yh3wAJ1-45" value="" style="shape=image;verticalLabelPosition=bottom;labelBackgroundColor=default;verticalAlign=top;aspect=fixed;imageAspect=0;image=data:image/png,iVBORw0KGgoAAAANSUhEUgAAANAAAADQCAYAAAB2pO90AAAACXBIWXMAAAsSAAALEgHS3X78AAAV4klEQVR4nO2d4VEbSROGZ1z3H74I4CIAR2A5AnMRGCKwHIFxBCcisIjgRASGCEARnBTBQQTz1djvwiAkdc/s7E7Pbj9VKnx1Qqx2993u6e7pts45o8jFWrvtAi2NMY/Bf9/i5wqvR+fcg17W7lEBCWeHgLisIahb/HxQYeVFBSSclgLaxRKi8mK6dc6thn4eu0IFJJyOBLTJGoLyr4Vz7jHu18eLCkg4PQloE2+h5rBO6vLtQQUknEICCvHWaeEFpWJ6iwpIOAIEFNJYprm6eb9RAQlHmIBCbowxM+fcLf9XhocKqDKstYfGmNPgqI/x8kzw80OP38q7eLOxWiUV0EAJhBa+Tjr8tk+BkEYTFlcBjQxr7QSCmuB10MEZuDbGXI5BSCqgkWOtbcR01oHrN3ghqYCUZ+D2NWI6y2SdGtduNsQ1kgpI2Ym11ovo3BjzKcNZeoI1mg3pjKuAFBJYpnO82gYifNTufCjhbxWQEgWCEF5In1ueuRsIqWq3TgWkJGGt9bknL6Rpi7VS9W6dCkhpBdy7aUsh3cEaVRetUwEpWcggJG+Nps65eU1XRAWkZCWDkKpaG6mAlE6AkGaJwQYfqTurYfvEOwHHoAwQb0Gccz7I8B5rnBiOjDH31tqp9DOjAlI6xVsR55wPfX/FOieGv621c1gzkagLp/QGhDBPqGxYwqUTF6VTASm9gxKheWSQwVuvibR1kbpwSu845xbYBBizNvJiu7XWnku6YiogpQgIMjRrIy5eRD8kiUhdOKU42JO0QPSNy5VzrniUTi2QUhysa06RROXyxUfoSh+7CkgRAVw6H1y4ijiez6VFpC6cIg6scX5EHNc1kra9owJSRIJ10W1EqLuIiNSFU0SCddEEdXEcirhzKiBFLEFwYck8Ri+iXjfnqQuniAclQLcR/Rgu+tpXpBZIEQ/2Bk0iLFFvyVa1QEo1RFqiXmrnVEAFQGebpnd12Cz+kHFzhAOGH/DvBwwWHvykhAQRnXZZxa0C6piNXtSnkeUqKayb2acYKjw4UUWKaAlL1MkWcRVQZtDu6QyCydHRMwc3wfzTQfSphogemA+kznJEKqAMQDRTCKdrC9OWZmTjrHYxRSZbv3bRf04FlAiegGcQTpdzd7pkicYf1U7mhojumW9/nzuooAKKBNbmMuP0Agk8wSpVOYokonZujaBCtoeFCogJggFTQeuarqhy9ikqEL4w3nqDqu88f1cFtB8I57LnuaMSuINFqkZI1toF8wGXrVJBBbSDwFVrO4VgF/4GXW28DELPW12MjQHDxxuvrgRezZS5iMhctvyQCmgL1trLls3SN1kjWtTkZjrJjmNBHc4/zRURfIJbd5np8zojIqhwh54M7fAC0tfvF246/1RyGV4LjP84LnV+YaHOcSw5vtMKSUnR9wwefpzvM237t9QCvZj+S+YidB83uFnFhYWDsPtZhkDIFdw6saFva+0tw619wgMu+XuMXkCJHWFCmiG681pCwJmGY4luAI8Hxorx/dpF5cbsvkWY+l3uzPkAzsF5S7e1tRvU4Xc7Y36HZLe06ovf4sQ2PZpHK5wt56SNkPy5PBT6vTjrv1Xy5w/tRmCc0GOEOmNvkschCmfL+TnHd409Pw8lAyZ7vs8h8/skWdJB3wxbTuZp4s0xk/qE7eg8NcOxUh4ypwK/D8dVf0y5xqPZ0o2Kgpg2SQbFlr4AcVr7OPYY0ORwiuFY3G3UJmgA3z6/khFUYVON7A8gtChGISAUG/6MFM9359xpDWMGuwLDsbzV/h7xJ/w5/iltigJTHFNEKPmMwB05T3BDxCcLC5zHSYL7K2rNyAwczWM+c9B5oIQWsXfIbYzGXYsBuZVFZN1dby2mKCJyQ39yc3qDdeHgh8eIx4/L6Gzv/BAIZvrENID/IWVNhGvL2ZXKrvkbpAVK6Kss5ilZC5HWXcx4xtxWaHAWCItArnieVDxp4JxdMCdvN9G5uAV6N8fNtUKsIMigLJDExntDJ9Lad9piigvTCrEKTYdmgWYqnn4JpihwLNEJ8+nfKUwrdMCxQoOxQNZaH+f/m/FWFU8HSGgxFQPTCq2dc3vdzkFYIFw8jngMap5UPJnBOeVm8v/GNSt5vBwrdERFEKsXUJCb4KABgw4JAgscFrh2JeHcC3sfCkOwQJfMzXBXKp7uwTnm5ImOYvItXYAw9TXx0Z/2Cb3qNRDM60/GW/M0kFDYMLdUez6WbJ3FvId2rtlqF9CK2cKo1b53JZ6IhCW5UO8aa+0DEb1doqj2DdW6cGg9xXHdtLatADjnnF4DR7iWJaFc+5NdQY8qBRRMQ6D4PoahU1LBuedshYjfRpAXztp4a06oShcO48ypjqE7za7SLwwXyXQ5w4cDoy3wVlezOguERR+n3a60DV1jhnMtPheu2qas0NE2N65GF47jL19pslQOuBac0HaxtZBzbsEoR3oj8KpcOGbIUaNuAomIyhULazOWBm+WBbVZINa+9iGJx1rr8Hr0uRXvq/uolbX2TEAmnw2uCev6FTxMqqLlZPOcV2OBEKX5l3hb8ZxCbrx4iI9cwn+vYoAwM3fH3lKdE4jjP+IjX5WD1WSBOP6x+PEbHXCCQtp/vQsiraXUFsReR1hJqv3Vq/NbhQXKVXpeIwwLtI07yVXnDCtUbB3L2Bbz6j6rxQJxBvqO0frswteg3fu5oULXSdS1OmBWMXQBFcA4CpO+tVggKhH35JyrZkEdQ6IFChE5hsQHRYiHYrFEOOPYntdB4i0Q1E5lsYtvExbMEayRtMQydc1OCpb3UFboWdg1uHCcsKbu86H5gVHwUmi9ma1DKAE9BxJqEBDlC9/UMhkuBeecd7MtGr3/heJMKlK0iy9IFkr4XiuMxNxHqXUQ5e6+eETC+zEf19Z/ucdzc4gndMpQrJmQ78DpW15k5hDjuH6NcZFugThPIG4/hEGBNrszhFQvECzg8kXImohz7UpZIWqsy691kHQBUUnBG615+92HAEKKGUPyQ0hnHMqNK5UYpty4XwEO6QKixrGP0vrswjl3ibUSp8mhEdIZh7qGbUfyp0IJ6JewxQqIWZKiu003QL7nmDlZrnhnHM41LFSeVL0FotyL5ZCjb22AazRhiuhLSVcO15Bav5U4PkpAv0qRJAuIeurohrk9BCLiuHOl80PsvEtfcNbW/sFTswVS940gEBHFh8JV3OzMf89Q+bZDyQKi9oyoBWKANREnOlcyrM1ylwRyLFJAnKeh9jzgg+gctc74XKr2jHMtC1lIyjLKFBCy7PtILWUZM5xoW6mkpeG4Sz0dRxRSBUT5vBp9iwTl95QVKunGUde0xDqIOqbJHz0dSCzU02bQAkJYedMaLDK4rTNit+WvphmFqjuoa1rCApH3mVQBjdICQTjzHfufvllrlyieTRXSnDGI7LRQhFOiBSKptbn84ASE4s57YvPgSZvNcSlNM3qkxmsqNow9yO3Zu4Dl+RHxK20KQaXmXChK3BPkviCpAqK2cA8thJ2yyS11Yxx17ko9vPib2HqCsxas0oUbWOfR08SbY+fMGgKRa41ar+kgpnRXTpvcS/TvMgIQnDH1ClABlWdU672h8QfVdwwNLRRGjzY9V+2o8fypBSrP6Lek14wKKI69e2sSF/VttqVH/y7jGLnbwUePqXjIsNRQa3Q1Mxb1nJ2jmywTKxKoY9Qq9whIARW6WVkthQpAuVupx5VSWZBa+Ekdo7qUgHPvvxN6s0q9iKxOLbHAklxE/NpFi3o43SrPh+zL8a7SJ06ppuPUzfUh1WJju8F74oHm/9/7cEJaDDi2D8SvqID4PEqtxn4gLrTUrv0GrlVSkw5YldON7QyHeMjl2M7Acfu010QEHAGVuFkpq1hq6/EjthTsK72Ztu1yA6F0YQmoaQdL7fT6CvI+e8fZ953/uEiyR7syQrlPRwJn8TTbJajmHDom5jXUfXYrNYxNPQUpP75LOLkXieMmOcekrZIjecfZ9933QTnnOO1eS1UN+/N1TbzNWyExIsKxUNbnWju9voG691ccAZVCYrvXBo6r86309APz8qD5xnirum/xrDhh7FLuUic5lxzAQnJaa92WnH6Av82Jqt1xrP4Ioe79x3fMpnYlbgJx/ZI34MzvPCglokA8nP09pWaRioVzzbx2miBCld3xC05xbkLNV4y3nvQtokA8nJ2uV9rldSvUPf9LM42AxG3zZboUpa0Qp2WuwY286mNNhL+xYopnLTRiKAFWa7VGQFI7tUid4vwLJB25x3CAllSd3bD47PuIbdlnmjjdCWs6iFgLBChhfyo9ojChENRH51Y5k63+s/xnMqNtDW0KUscAr7knRnqfUmO9C40ar2bMPcp3YsfNr7CAP0z4e9WPuZf84o65t3gzud/fGPOxRKgTT9Z9SUA/qbuoK9dgrfW5lM+Jv34Hi+utwmrTOmBtc4yH3aRFesEnTMWVGkkCo1R+7juk5/4NwRPtgVDcVPCT/VjK0yzREvX1UsvDu4ZT4no8NO8Na+Gk5l04lc1inqjOuWnkmqgvLnBsCg11rz9rJRSQyMw/6rOoXbOiboxgcxwnxN016zab8EYKe9dujAU6KFjbRVmhA2lbCJrNccxka1dcYbGr0TYmuMepNMBbC8Sc11/KjVsw2i2JSwj6HAvcpvc9j6W8g9WZap4nGuoeX4dV65v7gSgrVCTahZuA2qsiciObgTVyzvkL85GxFaIN14iWTtTqJEPd46808hzGNi+7Fqk5Nf8r8VRD3du/xNv806HkblUW+C5nCH60HduxxFaEhe7naQeS8v8RH3IRric3BcT5gL+cc0V2Llpr/d/9RLztoqYFM875BOulUyRIt/nhT1i8PuLnLcKp6qJlwlrrH2r/EJ/2yoC8EpD5/SEPxFOxWCKOk+DCjXasN5YSCyMR7puuvAqkbeuJQD29i2X9mRvZDrTCWEmEurffaGObgDjh7JKlMxxxfJGwnVqpB9zT7PB1wxsBIXpDhbOLRbtghTiRLE0cKjFQ9/R6W2RzV1srKkhQehvBJSMvdCKpM44iF9zLVHBqqyZ2CYjz9C65Floxa+S+IfCgKPvgeFRbNfEmCvf8P+ho3JuIRN8wtjoYjcopFG3u9X2dSSkrdCLg6c55chxox01lF7iHqWT2Ti20EZApvY0AAQVOsaYfO9Kq4bsyWJLdN7PPhTP8zP+fJUtIsAB8YLhyprYqBaVbmOVhe3c8U83lxW9mi+yM80NqwalSBM69sFcDey2Q4S3URSzSrbV+28DfjLf649Vq5ZEDz2VFJE/J4mTOeBNyM5uEHaHOuRkzwdq029VKhXEzZVQekB4YxwJxlCrFCsW0tFVLNFJy3tOkBcIH1GKFmvUQVaVgAkuka6LxwbI+HINAWiDDj1aISVjCPeNOJjAanRsPTOtjuNFl1ohH5lQ2EVbIvBTExpQa/dA80WjgWB/2tD6WBTIVWiHD36IecqcN14dLbutjuBbIxFkhMU9yuGUxTQ4/YAyJFqAOk1lO62NiLJB5sUIPjIN4Lym6lWCJPN+dc7odYiBgXXxPfJsn9NFjCyhqzH3ENgJR6wlYoo/M6FyD3wrxoPmiwcC6b2PL0qIskInzI78iuSmGhOhcgy9YvdS1UZ0wq1SS1u9RFsi85Fo4rs1l6eFXmwTtdqle25t8wdpIc0aVgXuQdb+mPCCjLdDzL/I2s4mZ3ROCkzpLnOWzxsnWvFEFMHcUJDfkjLZAAZyn8afCHXy2gp7V/vi/Jvz6EfJGapGEg3uPEo9ps6Mg2QIZvrpFb6nGumjB3E+0jSdYs7m21pVDxFq9lZfUVkDcg7xDc3WRBH7yl5bHdwMxLjTgUBZr7S1jDGb7h3sP4/CKjoiM/C6TxKG9214LuAZixk+O5dXnPdnKAjUw1W6kJVh3gX5ynJopLmuEz5uG8LqFoiOYCVOTyyvKJSBuhcIamV7x7g2+02WLqdsUd7B24cvoxIV0IvpjRFcc7CKLgExcuYzI0PYuUBd32WKsfCuex6krnGvFCWqZnNtX2oSxX4EDumG89VNNWwd866xguhzn+ykFwD3FEc9NzhxeNgtkRtJiKnDtON38W6MWiCbC+8m+hMgqIBO3iDO1BBW2gYfFGYINbcc07kQFtJ/S91s2F64BB8jN8FfbHQfVDHP0TP4TBafUWBglI0FxMIevXTyss1ug5w+mx+U1VBOZ4xAMEJ4wffK9qAXaTuRyobOxpF0KKKbF1BItpgYXvkUU7zQYJBxVMqQCeouke6szAZm4/JAZsog2gagON6ZyG/z71U2hAnpNQu+/LPmencfTpYBM/Ca20YhIiUdi48zsQYRN8AW47a5OEFgQtRFPKU+keAzq3DqP8HYuIBPfHUdFpLwiQTy95Rh7EZB5ERFnGJZRESkNCeK56jNB35uAzG8RTZkTFAxOmHbFGTG49tT80pBr3GO90XkQYRsROSKjUxTGSUIHpc5yPfvo1QI14ItyLZE/gffaf2A84FrfSxePKSUgEy8iow3gxwGucUwX2WLiMaVcuFcHEOfOGWwpONdc0bBAsGAeWf5UVDympAVqwAngRucMTrAGFwZEECyIEc9VafEYCQIyL9G5mCkKR1gXiZhHpKSDa3gfWSN40Xe0bRfFXbgQLB45IyhCdKZPhcBlW0RulX9ChYGYjZiiBGTSG8A/YV206PDQlEygY+g84RqLS2eIcOFCEhvA+wvxj28qodULcvHXBo0//okUzxJV1eJygeIEZF7mEE0iw9wGi9CVro3kgWuySthkeA3LI7JtsjgXbhPmbJdt3PVVkavsBi75LLEtmLgZU5uIF5Bp3wD+GkLSIEOPZBghc1ZFF9saBGTSE20NzQSFmQqpW3Cdpi1aI1eVKK9GQA2Joe4GFVJHZBCOuBA1h+oEZF56LcxbtNtVIWUig3AM1qvnNc5XqlJADQgwXLa4cDocKxE8xM5bCucJ4zKrLRKuWkCm/doo5BpC4jbqGyXoKHSeYWrFIIqCqxdQAy7svMWoxoYlrJJOmQOZ2xivIZxBPKgGI6CGDG5dyA2s0ihLhFByc56jw+oQ3LVtDE5AJt/CNuSpmX3q6/SGaplw3iawNrmmTww6YDNIATV0OGXuLhBT1ZUOSFI3osk9ROwaVmewAZpBC6ih43GNTxvzT0X79hu9uicdzTgavHAaRiGghkyhVw5L7LB8fvXtvsAdO914dTbHaKwpgVEJqAE3VyOktlG7GO7w3sZKNQOGG0ihBcJoOMbLwKKYnue5rgPhjC5qOUoBhcClmWaKNI0JH6GcjT1vNnoBNQRW6bxjV6dmlsi1jdLabEMFtAVEps4RmerTxZPIGhHHue6teosKiCAI847JMjWWpvowfdeogCIISlqaEPBQrNM6CMVrCVMEKqAWICwe5lVqsVDLJm8FK6OV6ImogDIDl+8UoeUJfpayVGuEyW/x80FdsryogHoCwjrckbcx2wYM78FbkNDN2swrPapQesAY83+saZwoUd/PUQAAAABJRU5ErkJggg==;" vertex="1" parent="1">
          <mxGeometry x="1010" y="310" width="50" height="50" as="geometry" />
        </mxCell>
        <mxCell id="srN8gHAstGxJ4yh3wAJ1-46" value="" style="shape=image;verticalLabelPosition=bottom;labelBackgroundColor=default;verticalAlign=top;aspect=fixed;imageAspect=0;image=data:image/png,iVBORw0KGgoAAAANSUhEUgAAANAAAADQCAYAAAB2pO90AAAACXBIWXMAAAsSAAALEgHS3X78AAAV4klEQVR4nO2d4VEbSROGZ1z3H74I4CIAR2A5AnMRGCKwHIFxBCcisIjgRASGCEARnBTBQQTz1djvwiAkdc/s7E7Pbj9VKnx1Qqx2993u6e7pts45o8jFWrvtAi2NMY/Bf9/i5wqvR+fcg17W7lEBCWeHgLisIahb/HxQYeVFBSSclgLaxRKi8mK6dc6thn4eu0IFJJyOBLTJGoLyr4Vz7jHu18eLCkg4PQloE2+h5rBO6vLtQQUknEICCvHWaeEFpWJ6iwpIOAIEFNJYprm6eb9RAQlHmIBCbowxM+fcLf9XhocKqDKstYfGmNPgqI/x8kzw80OP38q7eLOxWiUV0EAJhBa+Tjr8tk+BkEYTFlcBjQxr7QSCmuB10MEZuDbGXI5BSCqgkWOtbcR01oHrN3ghqYCUZ+D2NWI6y2SdGtduNsQ1kgpI2Ym11ovo3BjzKcNZeoI1mg3pjKuAFBJYpnO82gYifNTufCjhbxWQEgWCEF5In1ueuRsIqWq3TgWkJGGt9bknL6Rpi7VS9W6dCkhpBdy7aUsh3cEaVRetUwEpWcggJG+Nps65eU1XRAWkZCWDkKpaG6mAlE6AkGaJwQYfqTurYfvEOwHHoAwQb0Gccz7I8B5rnBiOjDH31tqp9DOjAlI6xVsR55wPfX/FOieGv621c1gzkagLp/QGhDBPqGxYwqUTF6VTASm9gxKheWSQwVuvibR1kbpwSu845xbYBBizNvJiu7XWnku6YiogpQgIMjRrIy5eRD8kiUhdOKU42JO0QPSNy5VzrniUTi2QUhysa06RROXyxUfoSh+7CkgRAVw6H1y4ijiez6VFpC6cIg6scX5EHNc1kra9owJSRIJ10W1EqLuIiNSFU0SCddEEdXEcirhzKiBFLEFwYck8Ri+iXjfnqQuniAclQLcR/Rgu+tpXpBZIEQ/2Bk0iLFFvyVa1QEo1RFqiXmrnVEAFQGebpnd12Cz+kHFzhAOGH/DvBwwWHvykhAQRnXZZxa0C6piNXtSnkeUqKayb2acYKjw4UUWKaAlL1MkWcRVQZtDu6QyCydHRMwc3wfzTQfSphogemA+kznJEKqAMQDRTCKdrC9OWZmTjrHYxRSZbv3bRf04FlAiegGcQTpdzd7pkicYf1U7mhojumW9/nzuooAKKBNbmMuP0Agk8wSpVOYokonZujaBCtoeFCogJggFTQeuarqhy9ikqEL4w3nqDqu88f1cFtB8I57LnuaMSuINFqkZI1toF8wGXrVJBBbSDwFVrO4VgF/4GXW28DELPW12MjQHDxxuvrgRezZS5iMhctvyQCmgL1trLls3SN1kjWtTkZjrJjmNBHc4/zRURfIJbd5np8zojIqhwh54M7fAC0tfvF246/1RyGV4LjP84LnV+YaHOcSw5vtMKSUnR9wwefpzvM237t9QCvZj+S+YidB83uFnFhYWDsPtZhkDIFdw6saFva+0tw619wgMu+XuMXkCJHWFCmiG681pCwJmGY4luAI8Hxorx/dpF5cbsvkWY+l3uzPkAzsF5S7e1tRvU4Xc7Y36HZLe06ovf4sQ2PZpHK5wt56SNkPy5PBT6vTjrv1Xy5w/tRmCc0GOEOmNvkschCmfL+TnHd409Pw8lAyZ7vs8h8/skWdJB3wxbTuZp4s0xk/qE7eg8NcOxUh4ypwK/D8dVf0y5xqPZ0o2Kgpg2SQbFlr4AcVr7OPYY0ORwiuFY3G3UJmgA3z6/khFUYVON7A8gtChGISAUG/6MFM9359xpDWMGuwLDsbzV/h7xJ/w5/iltigJTHFNEKPmMwB05T3BDxCcLC5zHSYL7K2rNyAwczWM+c9B5oIQWsXfIbYzGXYsBuZVFZN1dby2mKCJyQ39yc3qDdeHgh8eIx4/L6Gzv/BAIZvrENID/IWVNhGvL2ZXKrvkbpAVK6Kss5ilZC5HWXcx4xtxWaHAWCItArnieVDxp4JxdMCdvN9G5uAV6N8fNtUKsIMigLJDExntDJ9Lad9piigvTCrEKTYdmgWYqnn4JpihwLNEJ8+nfKUwrdMCxQoOxQNZaH+f/m/FWFU8HSGgxFQPTCq2dc3vdzkFYIFw8jngMap5UPJnBOeVm8v/GNSt5vBwrdERFEKsXUJCb4KABgw4JAgscFrh2JeHcC3sfCkOwQJfMzXBXKp7uwTnm5ImOYvItXYAw9TXx0Z/2Cb3qNRDM60/GW/M0kFDYMLdUez6WbJ3FvId2rtlqF9CK2cKo1b53JZ6IhCW5UO8aa+0DEb1doqj2DdW6cGg9xXHdtLatADjnnF4DR7iWJaFc+5NdQY8qBRRMQ6D4PoahU1LBuedshYjfRpAXztp4a06oShcO48ypjqE7za7SLwwXyXQ5w4cDoy3wVlezOguERR+n3a60DV1jhnMtPheu2qas0NE2N65GF47jL19pslQOuBac0HaxtZBzbsEoR3oj8KpcOGbIUaNuAomIyhULazOWBm+WBbVZINa+9iGJx1rr8Hr0uRXvq/uolbX2TEAmnw2uCev6FTxMqqLlZPOcV2OBEKX5l3hb8ZxCbrx4iI9cwn+vYoAwM3fH3lKdE4jjP+IjX5WD1WSBOP6x+PEbHXCCQtp/vQsiraXUFsReR1hJqv3Vq/NbhQXKVXpeIwwLtI07yVXnDCtUbB3L2Bbz6j6rxQJxBvqO0frswteg3fu5oULXSdS1OmBWMXQBFcA4CpO+tVggKhH35JyrZkEdQ6IFChE5hsQHRYiHYrFEOOPYntdB4i0Q1E5lsYtvExbMEayRtMQydc1OCpb3UFboWdg1uHCcsKbu86H5gVHwUmi9ma1DKAE9BxJqEBDlC9/UMhkuBeecd7MtGr3/heJMKlK0iy9IFkr4XiuMxNxHqXUQ5e6+eETC+zEf19Z/ucdzc4gndMpQrJmQ78DpW15k5hDjuH6NcZFugThPIG4/hEGBNrszhFQvECzg8kXImohz7UpZIWqsy691kHQBUUnBG615+92HAEKKGUPyQ0hnHMqNK5UYpty4XwEO6QKixrGP0vrswjl3ibUSp8mhEdIZh7qGbUfyp0IJ6JewxQqIWZKiu003QL7nmDlZrnhnHM41LFSeVL0FotyL5ZCjb22AazRhiuhLSVcO15Bav5U4PkpAv0qRJAuIeurohrk9BCLiuHOl80PsvEtfcNbW/sFTswVS940gEBHFh8JV3OzMf89Q+bZDyQKi9oyoBWKANREnOlcyrM1ylwRyLFJAnKeh9jzgg+gctc74XKr2jHMtC1lIyjLKFBCy7PtILWUZM5xoW6mkpeG4Sz0dRxRSBUT5vBp9iwTl95QVKunGUde0xDqIOqbJHz0dSCzU02bQAkJYedMaLDK4rTNit+WvphmFqjuoa1rCApH3mVQBjdICQTjzHfufvllrlyieTRXSnDGI7LRQhFOiBSKptbn84ASE4s57YvPgSZvNcSlNM3qkxmsqNow9yO3Zu4Dl+RHxK20KQaXmXChK3BPkviCpAqK2cA8thJ2yyS11Yxx17ko9vPib2HqCsxas0oUbWOfR08SbY+fMGgKRa41ar+kgpnRXTpvcS/TvMgIQnDH1ClABlWdU672h8QfVdwwNLRRGjzY9V+2o8fypBSrP6Lek14wKKI69e2sSF/VttqVH/y7jGLnbwUePqXjIsNRQa3Q1Mxb1nJ2jmywTKxKoY9Qq9whIARW6WVkthQpAuVupx5VSWZBa+Ekdo7qUgHPvvxN6s0q9iKxOLbHAklxE/NpFi3o43SrPh+zL8a7SJ06ppuPUzfUh1WJju8F74oHm/9/7cEJaDDi2D8SvqID4PEqtxn4gLrTUrv0GrlVSkw5YldON7QyHeMjl2M7Acfu010QEHAGVuFkpq1hq6/EjthTsK72Ztu1yA6F0YQmoaQdL7fT6CvI+e8fZ953/uEiyR7syQrlPRwJn8TTbJajmHDom5jXUfXYrNYxNPQUpP75LOLkXieMmOcekrZIjecfZ9933QTnnOO1eS1UN+/N1TbzNWyExIsKxUNbnWju9voG691ccAZVCYrvXBo6r86309APz8qD5xnirum/xrDhh7FLuUic5lxzAQnJaa92WnH6Av82Jqt1xrP4Ioe79x3fMpnYlbgJx/ZI34MzvPCglokA8nP09pWaRioVzzbx2miBCld3xC05xbkLNV4y3nvQtokA8nJ2uV9rldSvUPf9LM42AxG3zZboUpa0Qp2WuwY286mNNhL+xYopnLTRiKAFWa7VGQFI7tUid4vwLJB25x3CAllSd3bD47PuIbdlnmjjdCWs6iFgLBChhfyo9ojChENRH51Y5k63+s/xnMqNtDW0KUscAr7knRnqfUmO9C40ar2bMPcp3YsfNr7CAP0z4e9WPuZf84o65t3gzud/fGPOxRKgTT9Z9SUA/qbuoK9dgrfW5lM+Jv34Hi+utwmrTOmBtc4yH3aRFesEnTMWVGkkCo1R+7juk5/4NwRPtgVDcVPCT/VjK0yzREvX1UsvDu4ZT4no8NO8Na+Gk5l04lc1inqjOuWnkmqgvLnBsCg11rz9rJRSQyMw/6rOoXbOiboxgcxwnxN016zab8EYKe9dujAU6KFjbRVmhA2lbCJrNccxka1dcYbGr0TYmuMepNMBbC8Sc11/KjVsw2i2JSwj6HAvcpvc9j6W8g9WZap4nGuoeX4dV65v7gSgrVCTahZuA2qsiciObgTVyzvkL85GxFaIN14iWTtTqJEPd46808hzGNi+7Fqk5Nf8r8VRD3du/xNv806HkblUW+C5nCH60HduxxFaEhe7naQeS8v8RH3IRric3BcT5gL+cc0V2Llpr/d/9RLztoqYFM875BOulUyRIt/nhT1i8PuLnLcKp6qJlwlrrH2r/EJ/2yoC8EpD5/SEPxFOxWCKOk+DCjXasN5YSCyMR7puuvAqkbeuJQD29i2X9mRvZDrTCWEmEurffaGObgDjh7JKlMxxxfJGwnVqpB9zT7PB1wxsBIXpDhbOLRbtghTiRLE0cKjFQ9/R6W2RzV1srKkhQehvBJSMvdCKpM44iF9zLVHBqqyZ2CYjz9C65Floxa+S+IfCgKPvgeFRbNfEmCvf8P+ho3JuIRN8wtjoYjcopFG3u9X2dSSkrdCLg6c55chxox01lF7iHqWT2Ti20EZApvY0AAQVOsaYfO9Kq4bsyWJLdN7PPhTP8zP+fJUtIsAB8YLhyprYqBaVbmOVhe3c8U83lxW9mi+yM80NqwalSBM69sFcDey2Q4S3URSzSrbV+28DfjLf649Vq5ZEDz2VFJE/J4mTOeBNyM5uEHaHOuRkzwdq029VKhXEzZVQekB4YxwJxlCrFCsW0tFVLNFJy3tOkBcIH1GKFmvUQVaVgAkuka6LxwbI+HINAWiDDj1aISVjCPeNOJjAanRsPTOtjuNFl1ohH5lQ2EVbIvBTExpQa/dA80WjgWB/2tD6WBTIVWiHD36IecqcN14dLbutjuBbIxFkhMU9yuGUxTQ4/YAyJFqAOk1lO62NiLJB5sUIPjIN4Lym6lWCJPN+dc7odYiBgXXxPfJsn9NFjCyhqzH3ENgJR6wlYoo/M6FyD3wrxoPmiwcC6b2PL0qIskInzI78iuSmGhOhcgy9YvdS1UZ0wq1SS1u9RFsi85Fo4rs1l6eFXmwTtdqle25t8wdpIc0aVgXuQdb+mPCCjLdDzL/I2s4mZ3ROCkzpLnOWzxsnWvFEFMHcUJDfkjLZAAZyn8afCHXy2gp7V/vi/Jvz6EfJGapGEg3uPEo9ps6Mg2QIZvrpFb6nGumjB3E+0jSdYs7m21pVDxFq9lZfUVkDcg7xDc3WRBH7yl5bHdwMxLjTgUBZr7S1jDGb7h3sP4/CKjoiM/C6TxKG9214LuAZixk+O5dXnPdnKAjUw1W6kJVh3gX5ynJopLmuEz5uG8LqFoiOYCVOTyyvKJSBuhcIamV7x7g2+02WLqdsUd7B24cvoxIV0IvpjRFcc7CKLgExcuYzI0PYuUBd32WKsfCuex6krnGvFCWqZnNtX2oSxX4EDumG89VNNWwd866xguhzn+ykFwD3FEc9NzhxeNgtkRtJiKnDtON38W6MWiCbC+8m+hMgqIBO3iDO1BBW2gYfFGYINbcc07kQFtJ/S91s2F64BB8jN8FfbHQfVDHP0TP4TBafUWBglI0FxMIevXTyss1ug5w+mx+U1VBOZ4xAMEJ4wffK9qAXaTuRyobOxpF0KKKbF1BItpgYXvkUU7zQYJBxVMqQCeouke6szAZm4/JAZsog2gagON6ZyG/z71U2hAnpNQu+/LPmencfTpYBM/Ca20YhIiUdi48zsQYRN8AW47a5OEFgQtRFPKU+keAzq3DqP8HYuIBPfHUdFpLwiQTy95Rh7EZB5ERFnGJZRESkNCeK56jNB35uAzG8RTZkTFAxOmHbFGTG49tT80pBr3GO90XkQYRsROSKjUxTGSUIHpc5yPfvo1QI14ItyLZE/gffaf2A84FrfSxePKSUgEy8iow3gxwGucUwX2WLiMaVcuFcHEOfOGWwpONdc0bBAsGAeWf5UVDympAVqwAngRucMTrAGFwZEECyIEc9VafEYCQIyL9G5mCkKR1gXiZhHpKSDa3gfWSN40Xe0bRfFXbgQLB45IyhCdKZPhcBlW0RulX9ChYGYjZiiBGTSG8A/YV206PDQlEygY+g84RqLS2eIcOFCEhvA+wvxj28qodULcvHXBo0//okUzxJV1eJygeIEZF7mEE0iw9wGi9CVro3kgWuySthkeA3LI7JtsjgXbhPmbJdt3PVVkavsBi75LLEtmLgZU5uIF5Bp3wD+GkLSIEOPZBghc1ZFF9saBGTSE20NzQSFmQqpW3Cdpi1aI1eVKK9GQA2Joe4GFVJHZBCOuBA1h+oEZF56LcxbtNtVIWUig3AM1qvnNc5XqlJADQgwXLa4cDocKxE8xM5bCucJ4zKrLRKuWkCm/doo5BpC4jbqGyXoKHSeYWrFIIqCqxdQAy7svMWoxoYlrJJOmQOZ2xivIZxBPKgGI6CGDG5dyA2s0ihLhFByc56jw+oQ3LVtDE5AJt/CNuSpmX3q6/SGaplw3iawNrmmTww6YDNIATV0OGXuLhBT1ZUOSFI3osk9ROwaVmewAZpBC6ih43GNTxvzT0X79hu9uicdzTgavHAaRiGghkyhVw5L7LB8fvXtvsAdO914dTbHaKwpgVEJqAE3VyOktlG7GO7w3sZKNQOGG0ihBcJoOMbLwKKYnue5rgPhjC5qOUoBhcClmWaKNI0JH6GcjT1vNnoBNQRW6bxjV6dmlsi1jdLabEMFtAVEps4RmerTxZPIGhHHue6teosKiCAI847JMjWWpvowfdeogCIISlqaEPBQrNM6CMVrCVMEKqAWICwe5lVqsVDLJm8FK6OV6ImogDIDl+8UoeUJfpayVGuEyW/x80FdsryogHoCwjrckbcx2wYM78FbkNDN2swrPapQesAY83+saZwoUd/PUQAAAABJRU5ErkJggg==;" vertex="1" parent="1">
          <mxGeometry x="1100" y="310" width="50" height="50" as="geometry" />
        </mxCell>
        <mxCell id="srN8gHAstGxJ4yh3wAJ1-47" value="" style="endArrow=none;html=1;rounded=0;strokeWidth=2;exitX=0.5;exitY=0;exitDx=0;exitDy=0;strokeColor=#000000;" edge="1" parent="1" source="srN8gHAstGxJ4yh3wAJ1-42">
          <mxGeometry width="50" height="50" relative="1" as="geometry">
            <mxPoint x="1374" y="490" as="sourcePoint" />
            <mxPoint x="1035" y="270" as="targetPoint" />
          </mxGeometry>
        </mxCell>
        <mxCell id="srN8gHAstGxJ4yh3wAJ1-48" value="&lt;span style=&quot;color: rgb(0, 0, 0); font-family: &amp;quot;Clear Sans Display&amp;quot;; font-size: 20px; font-style: normal; font-variant-ligatures: normal; font-variant-caps: normal; letter-spacing: normal; orphans: 2; text-align: left; text-indent: 0px; text-transform: none; widows: 2; word-spacing: 0px; -webkit-text-stroke-width: 0px; white-space: normal; text-decoration-thickness: initial; text-decoration-style: initial; text-decoration-color: initial; float: none; display: inline !important;&quot;&gt;&lt;b&gt;Key Feature 3 -&lt;/b&gt;&lt;/span&gt;&lt;span style=&quot;color: rgb(0, 0, 0); font-family: &amp;quot;Clear Sans Display&amp;quot;; font-size: 20px; font-style: normal; font-variant-ligatures: normal; font-variant-caps: normal; font-weight: 400; letter-spacing: normal; orphans: 2; text-align: left; text-indent: 0px; text-transform: none; widows: 2; word-spacing: 0px; -webkit-text-stroke-width: 0px; white-space: normal; text-decoration-thickness: initial; text-decoration-style: initial; text-decoration-color: initial; float: none; display: inline !important;&quot;&gt;&amp;nbsp; Virtual account&#39;s funds aggregate and settle in their real account.&lt;/span&gt;" style="text;whiteSpace=wrap;html=1;labelBackgroundColor=none;" vertex="1" parent="1">
          <mxGeometry x="840" y="40" width="402.5" height="50" as="geometry" />
        </mxCell>
        <mxCell id="srN8gHAstGxJ4yh3wAJ1-49" value="&lt;span style=&quot;color: rgb(0, 0, 0); font-family: &amp;quot;Clear Sans Display&amp;quot;; font-size: 20px; font-style: normal; font-variant-ligatures: normal; font-variant-caps: normal; font-weight: 400; letter-spacing: normal; orphans: 2; text-indent: 0px; text-transform: none; widows: 2; word-spacing: 0px; -webkit-text-stroke-width: 0px; white-space: normal; text-decoration-thickness: initial; text-decoration-style: initial; text-decoration-color: initial; float: none; display: inline !important;&quot;&gt;Real account&lt;br&gt;&lt;/span&gt;" style="text;whiteSpace=wrap;html=1;align=center;fillColor=none;labelBackgroundColor=none;" vertex="1" parent="1">
          <mxGeometry x="970" y="150" width="130" height="40" as="geometry" />
        </mxCell>
        <mxCell id="srN8gHAstGxJ4yh3wAJ1-50" value="&lt;span style=&quot;color: rgb(0, 0, 0); font-family: &amp;quot;Clear Sans Display&amp;quot;; font-style: normal; font-variant-ligatures: normal; font-variant-caps: normal; font-weight: 400; letter-spacing: normal; orphans: 2; text-indent: 0px; text-transform: none; widows: 2; word-spacing: 0px; -webkit-text-stroke-width: 0px; white-space: normal; text-decoration-thickness: initial; text-decoration-style: initial; text-decoration-color: initial; float: none; display: inline !important;&quot;&gt;£30&lt;/span&gt;" style="text;whiteSpace=wrap;html=1;align=center;fontSize=16;labelBackgroundColor=none;verticalAlign=middle;" vertex="1" parent="1">
          <mxGeometry x="907.5" y="365" width="75" height="20" as="geometry" />
        </mxCell>
        <mxCell id="srN8gHAstGxJ4yh3wAJ1-51" value="&lt;span style=&quot;color: rgb(0, 0, 0); font-family: &amp;quot;Clear Sans Display&amp;quot;; font-style: normal; font-variant-ligatures: normal; font-variant-caps: normal; font-weight: 400; letter-spacing: normal; orphans: 2; text-indent: 0px; text-transform: none; widows: 2; word-spacing: 0px; -webkit-text-stroke-width: 0px; white-space: normal; text-decoration-thickness: initial; text-decoration-style: initial; text-decoration-color: initial; float: none; display: inline !important;&quot;&gt;£1000&lt;/span&gt;" style="text;whiteSpace=wrap;html=1;align=center;fontSize=16;labelBackgroundColor=none;verticalAlign=middle;" vertex="1" parent="1">
          <mxGeometry x="997.5" y="365" width="75" height="20" as="geometry" />
        </mxCell>
        <mxCell id="srN8gHAstGxJ4yh3wAJ1-52" value="&lt;span style=&quot;font-family: &amp;quot;Clear Sans Display&amp;quot;; font-style: normal; font-variant-ligatures: normal; font-variant-caps: normal; font-weight: 400; letter-spacing: normal; orphans: 2; text-indent: 0px; text-transform: none; widows: 2; word-spacing: 0px; -webkit-text-stroke-width: 0px; white-space: normal; text-decoration-thickness: initial; text-decoration-style: initial; text-decoration-color: initial; float: none; display: inline !important;&quot;&gt;&lt;font style=&quot;color: rgb(0, 0, 0);&quot;&gt;£200&lt;/font&gt;&lt;/span&gt;" style="text;whiteSpace=wrap;html=1;align=center;fontSize=16;labelBackgroundColor=none;verticalAlign=middle;" vertex="1" parent="1">
          <mxGeometry x="1087.5" y="365" width="75" height="20" as="geometry" />
        </mxCell>
        <mxCell id="srN8gHAstGxJ4yh3wAJ1-53" value="&lt;span style=&quot;color: rgb(0, 0, 0); font-family: &amp;quot;Clear Sans Display&amp;quot;; font-style: normal; font-variant-ligatures: normal; font-variant-caps: normal; font-weight: 400; letter-spacing: normal; orphans: 2; text-indent: 0px; text-transform: none; widows: 2; word-spacing: 0px; -webkit-text-stroke-width: 0px; white-space: normal; text-decoration-thickness: initial; text-decoration-style: initial; text-decoration-color: initial; float: none; display: inline !important;&quot;&gt;£1230&amp;nbsp;&lt;/span&gt;&lt;span style=&quot;font-family: &amp;quot;Clear Sans Display&amp;quot;;&quot;&gt;&lt;font style=&quot;color: rgb(0, 153, 0);&quot;&gt;+£5&lt;/font&gt;&lt;/span&gt;" style="text;whiteSpace=wrap;html=1;align=center;fontSize=16;labelBackgroundColor=none;verticalAlign=middle;" vertex="1" parent="1">
          <mxGeometry x="993.75" y="244" width="82.5" height="19.52" as="geometry" />
        </mxCell>
        <mxCell id="srN8gHAstGxJ4yh3wAJ1-54" value="&lt;span style=&quot;color: rgb(0, 0, 0); font-family: &amp;quot;Clear Sans Display&amp;quot;; font-size: 20px; font-style: normal; font-variant-ligatures: normal; font-variant-caps: normal; font-weight: 400; letter-spacing: normal; orphans: 2; text-indent: 0px; text-transform: none; widows: 2; word-spacing: 0px; -webkit-text-stroke-width: 0px; white-space: normal; text-decoration-thickness: initial; text-decoration-style: initial; text-decoration-color: initial; float: none; display: inline !important;&quot;&gt;Virtual accounts have the same sort code, but each have different IBANs&lt;/span&gt;" style="text;whiteSpace=wrap;html=1;align=center;labelBackgroundColor=none;" vertex="1" parent="1">
          <mxGeometry x="395" y="410" width="320" height="60" as="geometry" />
        </mxCell>
        <mxCell id="srN8gHAstGxJ4yh3wAJ1-56" value="&lt;span style=&quot;font-family: &amp;quot;Clear Sans Display&amp;quot;; font-style: normal; font-variant-ligatures: normal; font-variant-caps: normal; font-weight: 400; letter-spacing: normal; orphans: 2; text-indent: 0px; text-transform: none; widows: 2; word-spacing: 0px; -webkit-text-stroke-width: 0px; white-space: normal; text-decoration-thickness: initial; text-decoration-style: initial; text-decoration-color: initial; float: none; display: inline !important;&quot;&gt;&lt;font style=&quot;color: rgb(0, 153, 0);&quot;&gt;+£5&lt;/font&gt;&lt;/span&gt;" style="text;whiteSpace=wrap;html=1;align=center;fontSize=16;labelBackgroundColor=none;verticalAlign=middle;" vertex="1" parent="1">
          <mxGeometry x="1095" y="385" width="60" height="20" as="geometry" />
        </mxCell>
      </root>
    </mxGraphModel>
  </diagram>
</mxfile>
